{
.appVersion = "939";
classes = (
{
automatic = 1;
code = "";
name = All;
},
{
code = "";
name = DevaIMatras;
}
);
copyright = "Froyo Tam";
date = "2020-01-22 06:11:39 +0000";
designer = "Froyo Tam";
designerURL = froyotam.info;
familyName = "Ferrite Core DX";
featurePrefixes = (
{
automatic = 1;
code = "";
name = ss01;
},
{
automatic = 1;
code = "languagesystem DFLT dflt;\012";
name = Languagesystems;
}
);
features = (
{
automatic = 1;
code = "feature salt;\012feature ss01;\012";
name = aalt;
},
{
automatic = 1;
code = "sub A by A.ss01;\012sub B by B.ss01;\012sub C by C.ss01;\012sub D by D.ss01;\012sub E by E.ss01;\012sub F by F.ss01;\012sub G by G.ss01;\012sub H by H.ss01;\012sub I by I.ss01;\012sub J by J.ss01;\012sub K by K.ss01;\012sub L by L.ss01;\012sub M by M.ss01;\012sub N by N.ss01;\012sub O by O.ss01;\012sub P by P.ss01;\012sub Q by Q.ss01;\012sub R by R.ss01;\012sub S by S.ss01;\012sub T by T.ss01;\012sub U by U.ss01;\012sub V by V.ss01;\012sub W by W.ss01;\012sub X by X.ss01;\012sub Y by Y.ss01;\012sub Z by Z.ss01;\012sub j by j.ss01;\012sub n by n.ss01;\012sub u by u.ss01;\012sub y by y.ss01;\012sub zero by zero.ss01;\012sub one by one.ss01;\012sub two by two.ss01;\012sub three by three.ss01;\012sub four by four.ss01;\012sub five by five.ss01;\012sub six by six.ss01;\012sub seven by seven.ss01;\012sub eight by eight.ss01;\012sub nine by nine.ss01;\012sub slash by slash.ss01;\012";
name = salt;
},
{
automatic = 1;

glyphs = (
{
glyphname = A;
lastChange = "2020-01-03 10:32:34 +0000";
layers = (
{
hints = (
{
horizontal = 1;
origin = "{1, 0}";
target = "{0, 6}";
},
{
horizontal = 1;
origin = "{0, 1}";
target = "{1, 3}";
},
{
place = "{0, 155}";
},
{
place = "{700, 155}";
}
);
layerId = "C80544D9-48F8-4DA0-91C0-E0123F10AF4A";
paths = (
{
closed = 1;
nodes = (
"155 0 LINE",
"155 345 LINE",
"700 345 LINE",
"700 0 LINE",
"855 0 LINE",
"855 675 LINE",
"0 675 LINE",
"0 0 LINE"
);
},
{
closed = 1;
nodes = (
"155 520 LINE",
"700 520 LINE",
"700 500 LINE",
"155 500 LINE"
);
}
);
width = 875;
},
{
hints = (
{
horizontal = 1;
origin = "{0, 1}";
target = "{1, 3}";
},
{
horizontal = 1;
origin = "{1, 0}";
target = "{0, 6}";
},
{
place = "{0, 40}";
},
{
place = "{755, 40}";
}
);
layerId = "9FDCACD5-7DFA-4B53-9786-D575BF0C2E18";
paths = (
{
closed = 1;
nodes = (
"40 0 LINE",
"40 405 LINE",
"755 405 LINE",
"755 0 LINE",
"795 0 LINE",
"795 675 LINE",
"0 675 LINE",
"0 0 LINE"
);
},
{
closed = 1;
nodes = (
"40 635 LINE",
"755 635 LINE",
"755 445 LINE",
"40 445 LINE"
);
}
);
width = 995;
}
);
unicode = 0041;
},
{
glyphname = B;
lastChange = "2020-01-22 05:46:26 +0000";
layers = (
{
hints = (
{
horizontal = 1;
origin = "{0, 5}";
target = "{1, 3}";
},
{
horizontal = 1;
origin = "{2, 0}";
target = "{0, 4}";
},
{
horizontal = 1;
origin = "{1, 0}";
target = "{2, 3}";
},
{
origin = "{0, 5}";
target = "{1, 3}";
},
{
place = "{700, 155}";
}
);
layerId = "C80544D9-48F8-4DA0-91C0-E0123F10AF4A";
paths = (
{
closed = 1;
nodes = (
"855 0 LINE",
"855 500 LINE",
"700 500 LINE",
"700 675 LINE",
"0 675 LINE",
"0 0 LINE"
);
},
{
closed = 1;
nodes = (
"155 345 LINE",
"700 345 LINE",
"700 155 LINE",
"155 155 LINE"
);
},
{
closed = 1;
nodes = (
"155 520 LINE",
"545 520 LINE",
"545 500 LINE",
"155 500 LINE"
);
}
);
width = 875;
},
{
hints = (
{
horizontal = 1;
origin = "{0, 5}";
target = "{1, 3}";
},
{
horizontal = 1;
origin = "{1, 0}";
target = "{2, 3}";
},
{
horizontal = 1;
origin = "{2, 0}";
target = "{0, 4}";
},
{
origin = "{0, 5}";
target = "{1, 3}";
},
{
place = "{555, 40}";
},
{
place = "{755, 40}";
}
);
layerId = "9FDCACD5-7DFA-4B53-9786-D575BF0C2E18";
paths = (
{
closed = 1;
nodes = (
"795 0 LINE",
"795 445 LINE",
"595 445 LINE",
"595 675 LINE",
"0 675 LINE",
"0 0 LINE"
);
},
{
closed = 1;
nodes = (
"40 404 LINE",
"755 404 LINE",
"755 40 LINE",
"40 40 LINE"
);
},
{
closed = 1;
nodes = (
"40 635 LINE",
"555 635 LINE",
"555 444 LINE",
"40 444 LINE"
);
}
);
width = 995;
}
);
unicode = 0042;
},
{
glyphname = C;
lastChange = "2020-01-22 05:46:31 +0000";
layers = (
{
hints = (
{
horizontal = 1;
origin = "{0, 7}";
target = "{0, 2}";
},
{
horizontal = 1;
origin = "{0, 3}";
target = "{0, 6}";
},
{
origin = "{0, 7}";
target = "{0, 2}";
}
);
layerId = "C80544D9-48F8-4DA0-91C0-E0123F10AF4A";
paths = (
{
closed = 1;
nodes = (
"855 0 LINE",
"855 155 LINE",
"155 155 LINE",
"155 520 LINE",
"855 520 LINE",
"855 675 LINE",
"0 675 LINE",
"0 0 LINE"
);
}
);
width = 875;
},
{
hints = (
{
horizontal = 1;
origin = "{0, 7}";
target = "{0, 2}";
},
{
horizontal = 1;
origin = "{0, 3}";
target = "{0, 6}";
},
{
place = "{0, 40}";
}
);
layerId = "9FDCACD5-7DFA-4B53-9786-D575BF0C2E18";
paths = (
{
closed = 1;
nodes = (
"795 0 LINE",
"795 41 LINE",
"40 41 LINE",
"40 634 LINE",
"795 634 LINE",
"795 675 LINE",
"0 675 LINE",
"0 0 LINE"
);
}
);
width = 995;
}
);
unicode = 0043;
},
{
glyphname = Ccedilla;
lastChange = "2020-01-20 21:15:48 +0000";
layers = (
{
hints = (
{
horizontal = 1;
place = "{-232, 155}";
},
{
horizontal = 1;
place = "{520, 155}";
},
{
horizontal = 1;
place = "{-15, -217}";
},
{
place = "{0, 155}";
},
{
place = "{387, 10950}";
}
);
layerId = "C80544D9-48F8-4DA0-91C0-E0123F10AF4A";
paths = (
{
closed = 1;
nodes = (
"536 -200 LINE",
"536 -61 LINE",
"421 -61 LINE",
"461 -32 LINE",
"461 0 LINE",
"855 0 LINE",
"855 155 LINE",
"155 155 LINE",
"155 520 LINE",
"855 520 LINE",
"855 675 LINE",
"0 675 LINE",
"0 0 LINE",
"426 0 LINE",
"336 -66 LINE",
"336 -101 LINE",
"496 -101 LINE",
"496 -160 LINE",
"336 -160 LINE",
"336 -200 LINE"
);
}
);
width = 875;
},
{
layerId = "9FDCACD5-7DFA-4B53-9786-D575BF0C2E18";
paths = (
{
closed = 1;
nodes = (
"511 -200 LINE",
"511 -59 LINE",
"390 -59 LINE",
"430 -30 LINE",
"430 0 LINE",
"795 0 LINE",
"795 41 LINE",
"40 41 LINE",
"40 634 LINE",
"795 634 LINE",
"795 675 LINE",
"0 675 LINE",
"0 0 LINE",
"398.273 0 LINE",
"311 -64 LINE",
"311 -99 LINE",
"471 -99 LINE",
"471 -160 LINE",
"311 -160 LINE",
"311 -200 LINE"
);
}
);
width = 995;
}
);
unicode = 00C7;
},
{
glyphname = D;
lastChange = "2020-01-22 05:46:37 +0000";
layers = (
{
hints = (
{
horizontal = 1;
origin = "{0, 4}";
target = "{1, 4}";
},
{
horizontal = 1;
origin = "{1, 0}";
target = "{0, 3}";
},
{
origin = "{0, 4}";
target = "{1, 4}";
},
{
place = "{700, 155}";
}
);
layerId = "C80544D9-48F8-4DA0-91C0-E0123F10AF4A";
paths = (
{
closed = 1;
nodes = (
"855 0 LINE",
"855 479 LINE",
"467 675 LINE",
"0 675 LINE",
"0 0 LINE"
);
},
{
closed = 1;
nodes = (
"155 520 LINE",
"411 520 LINE",
"700 373 LINE",
"700 155 LINE",
"155 155 LINE"
);
}
);
width = 875;
},
{
hints = (
{
horizontal = 1;
origin = "{0, 4}";
target = "{1, 4}";
},
{
horizontal = 1;
place = "{634.5, 40.5}";
},
{
origin = "{0, 4}";
target = "{1, 4}";
},
{
place = "{755, 40}";
}
);
layerId = "9FDCACD5-7DFA-4B53-9786-D575BF0C2E18";
paths = (
{
closed = 1;
nodes = (
"795 0 LINE",
"795 469 LINE",
"403 675 LINE",
"0 675 LINE",
"0 0 LINE"
);
},
{
closed = 1;
nodes = (
"40 635 LINE",
"387 634 LINE",
"755 450 LINE",
"755 40 LINE",
"40 40 LINE"
);
}
);
width = 995;
}
);
unicode = 0044;
},
{
glyphname = E;
lastChange = "2020-01-22 05:46:42 +0000";
layers = (
{
hints = (
{
horizontal = 1;
origin = "{0, 11}";
target = "{0, 2}";
},
{
horizontal = 1;
origin = "{0, 7}";
target = "{0, 10}";
},
{
horizontal = 1;
origin = "{0, 3}";
target = "{0, 6}";
},
{
origin = "{0, 11}";
target = "{0, 2}";
}
);
layerId = "C80544D9-48F8-4DA0-91C0-E0123F10AF4A";
paths = (
{
closed = 1;
nodes = (
"855 0 LINE",
"855 155 LINE",
"155 155 LINE",
"155 345 LINE",
"855 345 LINE",
"855 500 LINE",
"155 500 LINE",
"155 520 LINE",
"855 520 LINE",
"855 675 LINE",
"0 675 LINE",
"0 0 LINE"
);
}
);
width = 875;
},
{
hints = (
{
horizontal = 1;
origin = "{0, 11}";
target = "{0, 2}";
},
{
horizontal = 1;
origin = "{0, 3}";
target = "{0, 6}";
},
{
horizontal = 1;
origin = "{0, 7}";
target = "{0, 10}";
},
{
origin = "{0, 11}";
target = "{0, 2}";
}
);
layerId = "9FDCACD5-7DFA-4B53-9786-D575BF0C2E18";
paths = (
{
closed = 1;
nodes = (
"795 0 LINE",
"795 40 LINE",
"40 40 LINE",
"40 405 LINE",
"795 405 LINE",
"795 445 LINE",
"40 445 LINE",
"40 635 LINE",
"795 635 LINE",
"795 675 LINE",
"0 675 LINE",
"0 0 LINE"
);
}
);
width = 995;
}
);
unicode = 0045;
},
{
glyphname = Eogonek;
lastChange = "2020-01-24 04:36:29 +0000";
layers = (
{
layerId = "C80544D9-48F8-4DA0-91C0-E0123F10AF4A";
paths = (
{
closed = 1;
nodes = (
"636 0 LINE",
"426 -125 LINE",
"426 -200 LINE",
"700 -200 LINE",
"700 -120 LINE",
"598 -120 LINE",
"855 45 LINE",
"855 155 LINE",
"155 155 LINE",
"155 345 LINE",
"855 345 LINE",
"855 500 LINE",
"155 500 LINE",
"155 520 LINE",
"855 520 LINE",
"855 675 LINE",
"0 675 LINE",
"0 0 LINE"
);
}
);
width = 875;
},
{
layerId = "9FDCACD5-7DFA-4B53-9786-D575BF0C2E18";
paths = (
{
closed = 1;
nodes = (
"708 0 LINE",
"496 -158 LINE",
"496 -200 LINE",
"755 -200 LINE",
"755 -158 LINE",
"558 -158 LINE",
"795 20 LINE",
"795 40 LINE",
"40 40 LINE",
"40 405 LINE",
"795 405 LINE",
"795 445 LINE",
"40 445 LINE",
"40 635 LINE",
"795 635 LINE",
"795 675 LINE",
"0 675 LINE",
"0 0 LINE"
);
}
);
width = 995;
}
);
unicode = 0118;
},
{
glyphname = F;
lastChange = "2020-01-22 05:46:48 +0000";
layers = (
{
hints = (
{
horizontal = 1;
origin = "{0, 5}";
target = "{0, 8}";
},
{
horizontal = 1;
origin = "{0, 1}";
target = "{0, 4}";
},
{
place = "{0, 158}";
}
);
layerId = "C80544D9-48F8-4DA0-91C0-E0123F10AF4A";
paths = (
{
closed = 1;
nodes = (
"158 0 LINE",
"158 345 LINE",
"855 345 LINE",
"855 500 LINE",
"158 500 LINE",
"158 520 LINE",
"855 520 LINE",
"855 675 LINE",
"0 675 LINE",
"0 0 LINE"
);
}
);
width = 875;
},
{
hints = (
{
horizontal = 1;
origin = "{0, 1}";
target = "{0, 4}";
},
{
horizontal = 1;
origin = "{0, 5}";
target = "{0, 8}";
},
{
place = "{0, 40}";
}
);
layerId = "9FDCACD5-7DFA-4B53-9786-D575BF0C2E18";
paths = (
{
closed = 1;
nodes = (
"40 0 LINE",
"40 405 LINE",
"795 405 LINE",
"795 445 LINE",
"40 445 LINE",
"40 635 LINE",
"795 635 LINE",
"795 675 LINE",
"0 675 LINE",
"0 0 LINE"
);
}
);
width = 995;
}
);
unicode = 0046;
},
{
glyphname = G;
lastChange = "2020-01-22 05:46:53 +0000";
layers = (
{
hints = (
{
horizontal = 1;
origin = "{0, 11}";
target = "{0, 6}";
},
{
horizontal = 1;
origin = "{0, 7}";
target = "{0, 10}";
},
{
horizontal = 1;
origin = "{0, 3}";
target = "{0, 2}";
},
{
origin = "{0, 11}";
target = "{0, 6}";
},
{
place = "{700, 155}";
}
);
layerId = "C80544D9-48F8-4DA0-91C0-E0123F10AF4A";
paths = (
{
closed = 1;
nodes = (
"855 0 LINE",
"855 500 LINE",
"525 500 LINE",
"525 345 LINE",
"700 345 LINE",
"700 155 LINE",
"155 155 LINE",
"155 520 LINE",
"855 520 LINE",
"855 675 LINE",
"0 675 LINE",
"0 0 LINE"
);
}
);
width = 875;
},
{
hints = (
{
horizontal = 1;
origin = "{0, 11}";
target = "{0, 6}";
},
{
horizontal = 1;
origin = "{0, 3}";
target = "{0, 2}";
},
{
horizontal = 1;
origin = "{0, 7}";
target = "{0, 10}";
},
{
origin = "{0, 11}";
target = "{0, 6}";
},
{
place = "{755, 40}";
}
);
layerId = "9FDCACD5-7DFA-4B53-9786-D575BF0C2E18";
paths = (
{
closed = 1;
nodes = (
"795 0 LINE",
"795 445 LINE",
"585 445 LINE",
"585 405 LINE",
"755 405 LINE",
"755 40 LINE",
"40 40 LINE",
"40 635 LINE",
"795 635 LINE",
"795 675 LINE",
"0 675 LINE",
"0 0 LINE"
);
}
);
width = 995;
}
);
unicode = 0047;
},
{
glyphname = H;
lastChange = "2020-01-22 05:46:57 +0000";
layers = (
{
hints = (
{
horizontal = 1;
origin = "{0, 1}";
target = "{0, 8}";
},
{
place = "{0, 155}";
},
{
place = "{700, 155}";
}
);
layerId = "C80544D9-48F8-4DA0-91C0-E0123F10AF4A";
paths = (
{
closed = 1;
nodes = (
"155 0 LINE",
"155 350 LINE",
"700 350 LINE",
"700 0 LINE",
"855 0 LINE",
"855 675 LINE",
"700 675 LINE",
"700 500 LINE",
"155 500 LINE",
"155 675 LINE",
"0 675 LINE",
"0 0 LINE"
);
}
);
width = 875;
},
{
hints = (
{
horizontal = 1;
origin = "{0, 1}";
target = "{0, 8}";
},
{
place = "{0, 40}";
},
{
place = "{755, 40}";
}
);
layerId = "9FDCACD5-7DFA-4B53-9786-D575BF0C2E18";
paths = (
{
closed = 1;
nodes = (
"40 0 LINE",
"40 405 LINE",
"755 405 LINE",
"755 0 LINE",
"795 0 LINE",
"795 675 LINE",
"755 675 LINE",
"755 445 LINE",
"40 445 LINE",
"40 675 LINE",
"0 675 LINE",
"0 0 LINE"
);
}
);
width = 995;
}
);
unicode = 0048;
},
{
glyphname = I;
lastChange = "2020-01-22 05:47:01 +0000";
layers = (
{
hints = (
{
horizontal = 1;
origin = "{0, 3}";
target = "{0, 2}";
},
{
place = "{0, 155}";
}
);
layerId = "C80544D9-48F8-4DA0-91C0-E0123F10AF4A";
paths = (
{
closed = 1;
nodes = (
"155 0 LINE",
"155 675 LINE",
"0 675 LINE",
"0 0 LINE"
);
}
);
width = 175;
},
{
hints = (
{
horizontal = 1;
origin = "{0, 3}";
target = "{0, 2}";
},
{
place = "{0, 40}";
}
);
layerId = "9FDCACD5-7DFA-4B53-9786-D575BF0C2E18";
paths = (
{
closed = 1;
nodes = (
"40 0 LINE",
"40 675 LINE",
"0 675 LINE",
"0 0 LINE"
);
}
);
width = 240;
}
);
unicode = 0049;
},
{
glyphname = J;
lastChange = "2020-01-22 05:47:15 +0000";
layers = (
{
hints = (
{
horizontal = 1;
origin = "{0, 5}";
target = "{0, 4}";
},
{
place = "{0, 155}";
}
);
layerId = "C80544D9-48F8-4DA0-91C0-E0123F10AF4A";
paths = (
{
closed = 1;
nodes = (
"155 -175 LINE",
"155 675 LINE",
"0 675 LINE",
"0 -20 LINE",
"-350 -20 LINE",
"-350 -175 LINE"
);
}
);
width = 175;
},
{
hints = (
{
horizontal = 1;
origin = "{0, 5}";
target = "{0, 4}";
},
{
place = "{0, 40}";
}
);
layerId = "9FDCACD5-7DFA-4B53-9786-D575BF0C2E18";
paths = (
{
closed = 1;
nodes = (
"40 -175 LINE",
"40 675 LINE",
"0 675 LINE",
"0 -135 LINE",
"-478 -135 LINE",
"-478 -175 LINE"
);
}
);
width = 240;
}
);
unicode = 004A;
},
{
glyphname = K;
lastChange = "2020-01-22 05:47:22 +0000";
layers = (
{
hints = (
{
horizontal = 1;
origin = "{0, 1}";
target = "{0, 12}";
},
{
horizontal = 1;
origin = "{0, 8}";
target = "{0, 14}";
},
{
place = "{0, 155}";
},
{
place = "{700, 155}";
}
);
layerId = "C80544D9-48F8-4DA0-91C0-E0123F10AF4A";
paths = (
{
closed = 1;
nodes = (
"155 0 LINE",
"155 350 LINE",
"411 350 LINE",
"700 175 LINE",
"700 0 LINE",
"855 0 LINE",
"855 255 LINE",
"576 425 LINE",
"853 593 LINE",
"853 675 LINE",
"698 675 LINE",
"411 505 LINE",
"155 505 LINE",
"155 675 LINE",
"0 675 LINE",
"0 0 LINE"
);
}
);
width = 875;
},
{
hints = (
{
horizontal = 1;
origin = "{0, 1}";
target = "{0, 12}";
},
{
horizontal = 1;
origin = "{0, 8}";
target = "{0, 14}";
},
{
place = "{0, 40}";
},
{
place = "{755, 40}";
}
);
layerId = "9FDCACD5-7DFA-4B53-9786-D575BF0C2E18";
paths = (
{
closed = 1;
nodes = (
"40 0 LINE",
"40 405 LINE",
"388 405 LINE",
"755 185.753 LINE",
"755 0 LINE",
"795 0 LINE",
"795 209 LINE",
"436 425 LINE",
"795 642 LINE",
"795 675 LINE",
"775 675 LINE",
"388 445 LINE",
"40 445 LINE",
"40 675 LINE",
"0 675 LINE",
"0 0 LINE"
);
}
);
width = 995;
}
);
unicode = 004B;
},
{
glyphname = L;
lastChange = "2020-01-25 02:18:59 +0000";
layers = (
{
hints = (
{
horizontal = 1;
origin = "{0, 5}";
target = "{0, 2}";
},
{
origin = "{0, 5}";
target = "{0, 2}";
}
);
layerId = "C80544D9-48F8-4DA0-91C0-E0123F10AF4A";
paths = (
{
closed = 1;
nodes = (
"855 0 LINE",
"855 155 LINE",
"155 155 LINE",
"155 675 LINE",
"0 675 LINE",
"0 0 LINE"
);
}
);
width = 875;
},
{
hints = (
{
horizontal = 1;
origin = "{0, 5}";
target = "{0, 2}";
},
{
origin = "{0, 5}";
target = "{0, 2}";
}
);
layerId = "9FDCACD5-7DFA-4B53-9786-D575BF0C2E18";
paths = (
{
closed = 1;
nodes = (
"795 0 LINE",
"795 40 LINE",
"40 40 LINE",
"40 675 LINE",
"0 675 LINE",
"0 0 LINE"
);
}
);
width = 995;
}
);
unicode = 004C;
},
{
glyphname = Lslash;
lastChange = "2020-01-22 06:01:22 +0000";
layers = (
{
layerId = "C80544D9-48F8-4DA0-91C0-E0123F10AF4A";
paths = (
{
closed = 1;
nodes = (
"947 0 LINE",
"947 155 LINE",
"247 155 LINE",
"247 284 LINE",
"361 365 LINE",
"361 500 LINE",
"261 500 LINE",
"247 490 LINE",
"247 675 LINE",
"92 675 LINE",
"92 380 LINE",
"0 314 LINE",
"0 179 LINE",
"67 179 LINE",
"92 196 LINE",
"92 0 LINE"
);
}
);
width = 967;
},
{
layerId = "9FDCACD5-7DFA-4B53-9786-D575BF0C2E18";
paths = (
{
closed = 1;
nodes = (
"795 0 LINE",
"795 40 LINE",
"40 40 LINE",
"40 330 LINE",
"272 471 LINE",
"272 501 LINE",
"252 501 LINE",
"40 372 LINE",
"40 675 LINE",
"0 675 LINE",
"0 348 LINE",
"-180 239 LINE",
"-180 209 LINE",
"-160 209 LINE",
"0 306 LINE",
"0 0 LINE"
);
}
);
width = 995;
}
);
unicode = 0141;
},
{
glyphname = M;
lastChange = "2020-01-22 05:47:39 +0000";
layers = (
{
hints = (
{
horizontal = 1;
origin = "{0, 1}";
target = "{0, 10}";
},
{
place = "{0, 155}";
},
{
place = "{350, 155}";
},
{
place = "{700, 155}";
}
);
layerId = "C80544D9-48F8-4DA0-91C0-E0123F10AF4A";
paths = (
{
closed = 1;
nodes = (
"155 0 LINE",
"155 520 LINE",
"350 520 LINE",
"350 0 LINE",
"505 0 LINE",
"505 520 LINE",
"700 520 LINE",
"700 0 LINE",
"855 0 LINE",
"855 675 LINE",
"0 675 LINE",
"0 0 LINE"
);
}
);
width = 875;
},
{
hints = (
{
horizontal = 1;
origin = "{0, 1}";
target = "{0, 10}";
},
{
place = "{0, 40}";
},
{
place = "{378, 40}";
},
{
place = "{755, 40}";
}
);
layerId = "9FDCACD5-7DFA-4B53-9786-D575BF0C2E18";
paths = (
{
closed = 1;
nodes = (
"40 0 LINE",
"40 635 LINE",
"378 635 LINE",
"378 0 LINE",
"418 0 LINE",
"418 635 LINE",
"755 635 LINE",
"755 0 LINE",
"795 0 LINE",
"795 675 LINE",
"0 675 LINE",
"0 0 LINE"
);
}
);
width = 995;
}
);
unicode = 004D;
},
{
glyphname = N;
lastChange = "2020-01-05 05:46:25 +0000";
layers = (
{
hints = (
{
horizontal = 1;
origin = "{0, 9}";
target = "{0, 8}";
},
{
place = "{0, 15550}";
},
{
place = "{700, 155}";
}
);
layerId = "C80544D9-48F8-4DA0-91C0-E0123F10AF4A";
paths = (
{
closed = 1;
nodes = (
"155 0 LINE",
"156 440 LINE",
"700 -1 LINE",
"855 -1 LINE",
"855 674 LINE",
"700 674 LINE",
"700 235 LINE",
"155 675 LINE",
"0 675 LINE",
"0 0 LINE"
);
}
);
width = 875;
},
{
hints = (
{
horizontal = 1;
origin = "{0, 9}";
target = "{0, 8}";
},
{
place = "{0, 40}";
},
{
place = "{755, 40}";
}
);
layerId = "9FDCACD5-7DFA-4B53-9786-D575BF0C2E18";
paths = (
{
closed = 1;
nodes = (
"40 0 LINE",
"40 602 LINE",
"775 0 LINE",
"795 0 LINE",
"795 675 LINE",
"755 675 LINE",
"755 72 LINE",
"22 675 LINE",
"0 675 LINE",
"0 0 LINE"
);
}
);
width = 995;
}
);
unicode = 004E;
},
{
glyphname = O;
lastChange = "2020-01-22 05:47:48 +0000";
layers = (
{
layerId = "C80544D9-48F8-4DA0-91C0-E0123F10AF4A";
paths = (
{
closed = 1;
nodes = (
"855 0 LINE",
"855 675 LINE",
"0 675 LINE",
"0 0 LINE"
);
},
{
closed = 1;
nodes = (
"155 520 LINE",
"700 520 LINE",
"700 155 LINE",
"155 155 LINE"
);
}
);
width = 875;
},
{
hints = (
{
horizontal = 1;
origin = "{0, 3}";
target = "{1, 3}";
},
{
horizontal = 1;
origin = "{1, 0}";
target = "{0, 2}";
},
{
origin = "{0, 3}";
target = "{1, 3}";
},
{
place = "{755, 40}";
}
);
layerId = "9FDCACD5-7DFA-4B53-9786-D575BF0C2E18";
paths = (
{
closed = 1;
nodes = (
"795 0 LINE",
"795 675 LINE",
"0 675 LINE",
"0 0 LINE"
);
},
{
closed = 1;
nodes = (
"40 635 LINE",
"755 635 LINE",
"755 40 LINE",
"40 40 LINE"
);
}
);
width = 995;
}
);
unicode = 004F;
},
{
glyphname = Odieresis;
lastChange = "2020-01-20 06:53:29 +0000";
layers = (
{
components = (
{
name = dieresis;
transform = "{1, 0, 0, 1, 156, 180}";
}
);
layerId = "C80544D9-48F8-4DA0-91C0-E0123F10AF4A";
paths = (
{
closed = 1;
nodes = (
"855 0 LINE",
"855 675 LINE",
"0 675 LINE",
"0 0 LINE"
);
},
{
closed = 1;
nodes = (
"155 520 LINE",
"700 520 LINE",
"700 155 LINE",
"155 155 LINE"
);
}
);
width = 875;
},
{
components = (
{
name = dieresis;
transform = "{1, 0, 0, 1, 180, 180}";
}
);
layerId = "9FDCACD5-7DFA-4B53-9786-D575BF0C2E18";
paths = (
{
closed = 1;
nodes = (
"795 0 LINE",
"795 675 LINE",
"0 675 LINE",
"0 0 LINE"
);
},
{
closed = 1;
nodes = (
"40 635 LINE",
"755 635 LINE",
"755 40 LINE",
"40 40 LINE"
);
}
);
width = 995;
}
);
unicode = 00D6;
},
{
glyphname = P;
lastChange = "2020-01-03 10:31:53 +0000";
layers = (
{
hints = (
{
horizontal = 1;
origin = "{1, 0}";
target = "{0, 4}";
},
{
horizontal = 1;
origin = "{0, 1}";
target = "{1, 3}";
},
{
place = "{0, 155}";
},
{
place = "{700, 155}";
}
);
layerId = "C80544D9-48F8-4DA0-91C0-E0123F10AF4A";
paths = (
{
closed = 1;
nodes = (
"155 0 LINE",
"155 345 LINE",
"855 345 LINE",
"855 675 LINE",
"0 675 LINE",
"0 0 LINE"
);
},
{
closed = 1;
nodes = (
"155 520 LINE",
"700 520 LINE",
"700 500 LINE",
"155 500 LINE"
);
}
);
width = 875;
},
{
hints = (
{
horizontal = 1;
origin = "{0, 1}";
target = "{1, 3}";
},
{
horizontal = 1;
origin = "{1, 0}";
target = "{0, 4}";
},
{
place = "{0, 40}";
},
{
place = "{755, 40}";
}
);
layerId = "9FDCACD5-7DFA-4B53-9786-D575BF0C2E18";
paths = (
{
closed = 1;
nodes = (
"40 0 LINE",
"40 405 LINE",
"795 405 LINE",
"795 675 LINE",
"0 675 LINE",
"0 0 LINE"
);
},
{
closed = 1;
nodes = (
"40 635 LINE",
"755 635 LINE",
"755 445 LINE",
"40 445 LINE"
);
}
);
width = 995;
}
);
unicode = 0050;
},
{
glyphname = Q;
lastChange = "2020-01-03 07:43:59 +0000";
layers = (
{
hints = (
{
horizontal = 1;
origin = "{0, 9}";
target = "{0, 2}";
},
{
horizontal = 1;
origin = "{0, 7}";
target = "{1, 3}";
},
{
horizontal = 1;
origin = "{1, 0}";
target = "{0, 6}";
},
{
origin = "{0, 7}";
target = "{1, 3}";
},
{
place = "{525, 155}";
},
{
place = "{700, 155}";
}
);
layerId = "C80544D9-48F8-4DA0-91C0-E0123F10AF4A";
paths = (
{
closed = 1;
nodes = (
"855 -175 LINE",
"855 -20 LINE",
"680 -20 LINE",
"680 0 LINE",
"855 0 LINE",
"855 675 LINE",
"0 675 LINE",
"0 0 LINE",
"525 0 LINE",
"525 -175 LINE"
);
},
{
closed = 1;
nodes = (
"155 520 LINE",
"700 520 LINE",
"700 155 LINE",
"155 155 LINE"
);
}
);
width = 875;
},
{
hints = (
{
horizontal = 1;
origin = "{0, 9}";
target = "{0, 2}";
},
{
horizontal = 1;
origin = "{0, 7}";
target = "{1, 3}";
},
{
horizontal = 1;
origin = "{1, 0}";
target = "{0, 6}";
},
{
origin = "{0, 7}";
target = "{1, 3}";
},
{
place = "{560, 40}";
},
{
place = "{755, 40}";
}
);
layerId = "9FDCACD5-7DFA-4B53-9786-D575BF0C2E18";
paths = (
{
closed = 1;
nodes = (
"795 -175 LINE",
"795 -135 LINE",
"600 -135 LINE",
"600 0 LINE",
"795 0 LINE",
"795 675 LINE",
"0 675 LINE",
"0 0 LINE",
"560 0 LINE",
"560 -175 LINE"
);
},
{
closed = 1;
nodes = (
"40 635 LINE",
"755 635 LINE",
"755 40 LINE",
"40 40 LINE"
);
}
);
width = 995;
}
);
unicode = 0051;
},
{
glyphname = R;
lastChange = "2020-01-03 10:31:32 +0000";
layers = (
{
hints = (
{
horizontal = 1;
origin = "{1, 0}";
target = "{0, 10}";
},
{
horizontal = 1;
origin = "{0, 1}";
target = "{1, 3}";
},
{
place = "{0, 155}";
},
{
place = "{700, 155}";
}
);
layerId = "C80544D9-48F8-4DA0-91C0-E0123F10AF4A";
paths = (
{
closed = 1;
nodes = (
"155 0 LINE",
"155 345 LINE",
"411 345 LINE",
"700 170 LINE",
"700 0 LINE",
"855 0 LINE",
"855 250 LINE",
"699 345 LINE",
"855 345 LINE",
"855 675 LINE",
"0 675 LINE",
"0 0 LINE"
);
},
{
closed = 1;
nodes = (
"155 520 LINE",
"700 520 LINE",
"700 500 LINE",
"155 500 LINE"
);
}
);
width = 875;
},
{
hints = (
{
horizontal = 1;
origin = "{0, 1}";
target = "{1, 3}";
},
{
horizontal = 1;
origin = "{1, 0}";
target = "{0, 10}";
},
{
place = "{0, 40}";
},
{
place = "{755, 40}";
}
);
layerId = "9FDCACD5-7DFA-4B53-9786-D575BF0C2E18";
paths = (
{
closed = 1;
nodes = (
"40 0 LINE",
"40 405 LINE",
"388 405 LINE",
"755 185.753 LINE",
"755 0 LINE",
"795 0 LINE",
"795 209 LINE",
"459 405 LINE",
"795 405 LINE",
"795 675 LINE",
"0 675 LINE",
"0 0 LINE"
);
},
{
closed = 1;
nodes = (
"40 635 LINE",
"755 635 LINE",
"755 445 LINE",
"40 445 LINE"
);
}
);
width = 995;
}
);
unicode = 0052;
},
{
glyphname = S;
lastChange = "2020-01-22 05:48:12 +0000";
layers = (
{
hints = (
{
horizontal = 1;
origin = "{0, 11}";
target = "{0, 10}";
},
{
horizontal = 1;
origin = "{0, 3}";
target = "{0, 6}";
},
{
horizontal = 1;
origin = "{0, 7}";
target = "{0, 2}";
},
{
origin = "{0, 11}";
target = "{0, 10}";
},
{
place = "{700, 155}";
}
);
layerId = "C80544D9-48F8-4DA0-91C0-E0123F10AF4A";
paths = (
{
closed = 1;
nodes = (
"855 0 LINE",
"855 500 LINE",
"155 500 LINE",
"155 520 LINE",
"855 520 LINE",
"855 675 LINE",
"0 675 LINE",
"0 345 LINE",
"700 345 LINE",
"700 155 LINE",
"0 155 LINE",
"0 0 LINE"
);
}
);
width = 875;
},
{
hints = (
{
horizontal = 1;
origin = "{0, 11}";
target = "{0, 10}";
},
{
horizontal = 1;
origin = "{0, 7}";
target = "{0, 2}";
},
{
horizontal = 1;
origin = "{0, 3}";
target = "{0, 6}";
},
{
origin = "{0, 11}";
target = "{0, 10}";
},
{
place = "{755, 40}";
},
{
origin = "{0, 6}";
target = "{0, 3}";
}
);
layerId = "9FDCACD5-7DFA-4B53-9786-D575BF0C2E18";
paths = (
{
closed = 1;
nodes = (
"795 0 LINE",
"795 445 LINE",
"40 445 LINE",
"40 635 LINE",
"795 635 LINE",
"795 675 LINE",
"0 675 LINE",
"0 405 LINE",
"755 405 LINE",
"755 40 LINE",
"0 40 LINE",
"0 0 LINE"
);
}
);
width = 995;
}
);
unicode = 0053;
},
{
glyphname = T;
lastChange = "2020-01-25 02:15:33 +0000";
layers = (
{
hints = (
{
horizontal = 1;
origin = "{0, 7}";
target = "{0, 6}";
},
{
place = "{350, 155}";
}
);
layerId = "C80544D9-48F8-4DA0-91C0-E0123F10AF4A";
paths = (
{
closed = 1;
nodes = (
"350 520 LINE",
"350 0 LINE",
"505 0 LINE",
"505 520 LINE",
"855 520 LINE",
"855 675 LINE",
"0 675 LINE",
"0 520 LINE"
);
}
);
width = 875;
},
{
hints = (
{
horizontal = 1;
origin = "{0, 7}";
target = "{0, 6}";
},
{
place = "{380, 40}";
}
);
layerId = "9FDCACD5-7DFA-4B53-9786-D575BF0C2E18";
paths = (
{
closed = 1;
nodes = (
"380 635 LINE",
"380 0 LINE",
"420 0 LINE",
"420 635 LINE",
"795 635 LINE",
"795 675 LINE",
"0 675 LINE",
"0 635 LINE"
);
}
);
width = 995;
}
);
unicode = 0054;
},
{
glyphname = U;
lastChange = "2020-01-03 07:44:50 +0000";
layers = (
{
hints = (
{
horizontal = 1;
origin = "{0, 11}";
target = "{0, 8}";
},
{
origin = "{0, 11}";
target = "{0, 8}";
},
{
place = "{700, 155}";
}
);
layerId = "C80544D9-48F8-4DA0-91C0-E0123F10AF4A";
paths = (
{
closed = 1;
nodes = (
"447 0 LINE",
"700 129 LINE",
"700 0 LINE",
"855 0 LINE",
"855 675 LINE",
"700 675 LINE",
"700 299 LINE",
"411 155 LINE",
"155 155 LINE",
"155 675 LINE",
"0 675 LINE",
"0 0 LINE"
);
}
);
width = 875;
},
{
hints = (
{
horizontal = 1;
origin = "{0, 11}";
target = "{0, 8}";
},
{
origin = "{0, 2}";
target = "{0, 3}";
}
);
layerId = "9FDCACD5-7DFA-4B53-9786-D575BF0C2E18";
paths = (
{
closed = 1;
nodes = (
"403 0 LINE",
"755 184.98 LINE",
"755 0 LINE",
"795 0 LINE",
"795 675 LINE",
"755 675 LINE",
"755 225 LINE",
"387 41 LINE",
"40 40 LINE",
"40 675 LINE",
"0 675 LINE",
"0 0 LINE"
);
}
);
width = 995;
}
);
unicode = 0055;
},
{
glyphname = V;
lastChange = "2020-01-03 07:45:21 +0000";
layers = (
{
hints = (
{
horizontal = 1;
origin = "{0, 9}";
target = "{0, 6}";
},
{
origin = "{0, 9}";
target = "{0, 6}";
},
{
place = "{701, 155}";
}
);
layerId = "C80544D9-48F8-4DA0-91C0-E0123F10AF4A";
paths = (
{
closed = 1;
nodes = (
"467 0 LINE",
"856 196 LINE",
"856 675 LINE",
"701 675 LINE",
"701 302 LINE",
"411 155 LINE",
"155 155 LINE",
"155 675 LINE",
"0 675 LINE",
"0 0 LINE"
);
}
);
width = 876;
},
{
hints = (
{
horizontal = 1;
origin = "{0, 9}";
target = "{0, 6}";
},
{
origin = "{0, 4}";
target = "{0, 1}";
}
);
layerId = "9FDCACD5-7DFA-4B53-9786-D575BF0C2E18";
paths = (
{
closed = 1;
nodes = (
"403 0 LINE",
"795 206 LINE",
"795 675 LINE",
"755 675 LINE",
"755 225 LINE",
"387 41 LINE",
"40 40.103 LINE",
"40 675 LINE",
"0 675 LINE",
"0 0 LINE"
);
}
);
width = 995;
}
);
unicode = 0056;
},
{
glyphname = W;
lastChange = "2020-01-03 07:45:30 +0000";
layers = (
{
hints = (
{
horizontal = 1;
origin = "{0, 11}";
target = "{0, 8}";
},
{
origin = "{0, 11}";
target = "{0, 8}";
},
{
place = "{350, 155}";
},
{
place = "{700, 155}";
}
);
layerId = "C80544D9-48F8-4DA0-91C0-E0123F10AF4A";
paths = (
{
closed = 1;
nodes = (
"855 0 LINE",
"855 675 LINE",
"700 675 LINE",
"700 155 LINE",
"505 155 LINE",
"505 675 LINE",
"350 675 LINE",
"350 155 LINE",
"155 155 LINE",
"155 675 LINE",
"0 675 LINE",
"0 0 LINE"
);
}
);
width = 873;
},
{
hints = (
{
horizontal = 1;
origin = "{0, 11}";
target = "{0, 8}";
},
{
origin = "{0, 11}";
target = "{0, 8}";
},
{
place = "{378, 40}";
},
{
place = "{755, 40}";
}
);
layerId = "9FDCACD5-7DFA-4B53-9786-D575BF0C2E18";
paths = (
{
closed = 1;
nodes = (
"795 0 LINE",
"795 675 LINE",
"755 675 LINE",
"755 40 LINE",
"418 40 LINE",
"418 675 LINE",
"378 675 LINE",
"378 40 LINE",
"40 40 LINE",
"40 675 LINE",
"0 675 LINE",
"0 0 LINE"
);
}
);
width = 995;
}
);
unicode = 0057;
},
{
glyphname = X;
lastChange = "2020-01-03 07:48:01 +0000";
layers = (
{
hints = (
{
horizontal = 1;
origin = "{0, 12}";
target = "{0, 11}";
},
{
horizontal = 1;
origin = "{0, 15}";
target = "{0, 14}";
},
{
origin = "{0, 2}";
target = "{0, 3}";
},
{
origin = "{0, 15}";
target = "{0, 0}";
}
);
layerId = "C80544D9-48F8-4DA0-91C0-E0123F10AF4A";
paths = (
{
closed = 1;
nodes = (
"100 0 LINE",
"427.5 234.238 LINE",
"755 0 LINE",
"855 0 LINE",
"855 135 LINE",
"571.875 337.5 LINE",
"855 540 LINE",
"855 675 LINE",
"755 675 LINE",
"427.5 440.762 LINE",
"100 675 LINE",
"0 675 LINE",
"0 540 LINE",
"283.125 337.5 LINE",
"0 135 LINE",
"0 0 LINE"
);
}
);
width = 875;
},
{
hints = (
{
horizontal = 1;
place = "{344.578, 0}";
},
{
horizontal = 1;
origin = "{0, 6}";
target = "{0, 7}";
},
{
horizontal = 1;
origin = "{0, 15}";
target = "{0, 14}";
},
{
origin = "{0, 15}";
target = "{0, 0}";
},
{
origin = "{0, 2}";
target = "{0, 3}";
},
{
origin = "{0, 8}";
target = "{0, 7}";
},
{
origin = "{0, 11}";
target = "{0, 10}";
}
);
layerId = "9FDCACD5-7DFA-4B53-9786-D575BF0C2E18";
paths = (
{
closed = 1;
nodes = (
"22 0 LINE",
"397.5 308.95 LINE",
"773 0 LINE",
"795 0 LINE",
"795 40 LINE",
"432.055 337.381 LINE",
"795 636 LINE",
"795 675 LINE",
"775 675 LINE",
"397.5 365.694 LINE",
"20 675 LINE",
"0 675 LINE",
"0 636 LINE",
"362.945 337.381 LINE",
"0 40 LINE",
"0 0 LINE"
);
}
);
width = 995;
}
);
unicode = 0058;
},
{
glyphname = Y;
lastChange = "2020-01-03 10:17:40 +0000";
layers = (
{
hints = (
{
horizontal = 1;
origin = "{0, 11}";
target = "{0, 8}";
},
{
place = "{0, 155}";
},
{
place = "{350, 155}";
},
{
place = "{700, 155}";
}
);
layerId = "C80544D9-48F8-4DA0-91C0-E0123F10AF4A";
paths = (
{
closed = 1;
nodes = (
"350 345 LINE",
"350 0 LINE",
"505 0 LINE",
"505 345 LINE",
"855 345 LINE",
"855 675 LINE",
"700 675 LINE",
"700 500 LINE",
"155 500 LINE",
"155 675 LINE",
"0 675 LINE",
"0 345 LINE"
);
}
);
width = 875;
},
{
hints = (
{
horizontal = 1;
origin = "{0, 11}";
target = "{0, 8}";
},
{
place = "{0, 40}";
},
{
place = "{378, 40}";
},
{
place = "{755, 40}";
}
);
layerId = "9FDCACD5-7DFA-4B53-9786-D575BF0C2E18";
paths = (
{
closed = 1;
nodes = (
"378 405 LINE",
"378 0 LINE",
"418 0 LINE",
"418 405 LINE",
"795 405 LINE",
"795 675 LINE",
"755 675 LINE",
"755 445 LINE",
"40 445 LINE",
"40 675 LINE",
"0 675 LINE",
"0 405 LINE"
);
}
);
width = 995;
}
);
unicode = 0059;
},
{
glyphname = Z;
lastChange = "2020-01-03 07:49:57 +0000";
layers = (
{
hints = (
{
horizontal = 1;
origin = "{0, 6}";
target = "{0, 5}";
},
{
horizontal = 1;
origin = "{0, 0}";
target = "{0, 1}";
},
{
origin = "{0, 8}";
target = "{0, 2}";
},
{
origin = "{0, 7}";
target = "{0, 3}";
}
);
layerId = "C80544D9-48F8-4DA0-91C0-E0123F10AF4A";
paths = (
{
closed = 1;
nodes = (
"855 0 LINE",
"855 155 LINE",
"323 155 LINE",
"855 520 LINE",
"855 675 LINE",
"0 675 LINE",
"0 520 LINE",
"531 520 LINE",
"0 153 LINE",
"0 0 LINE"
);
}
);
width = 875;
},
{
hints = (
{
horizontal = 1;
origin = "{0, 9}";
target = "{0, 8}";
},
{
horizontal = 1;
origin = "{0, 6}";
target = "{0, 5}";
},
{
origin = "{0, 7}";
target = "{0, 3}";
},
{
origin = "{0, 8}";
target = "{0, 2}";
}
);
layerId = "9FDCACD5-7DFA-4B53-9786-D575BF0C2E18";
paths = (
{
closed = 1;
nodes = (
"795 0 LINE",
"795 40 LINE",
"71 40 LINE",
"795 635 LINE",
"795 675 LINE",
"0 675 LINE",
"0 635 LINE",
"726 635 LINE",
"0 40 LINE",
"0 0 LINE"
);
}
);
width = 995;
}
);
unicode = 005A;
},
{
glyphname = A.001;
lastChange = "2020-01-25 01:51:15 +0000";
layers = (
{
layerId = "C80544D9-48F8-4DA0-91C0-E0123F10AF4A";
paths = (
{
closed = 1;
nodes = (
"155 0 LINE",
"155 175 LINE",
"700 175 LINE",
"700 0 LINE",
"855 0 LINE",
"855 500 LINE",
"0 500 LINE",
"0 0 LINE"
);
},
{
closed = 1;
nodes = (
"155 345 LINE",
"700 345 LINE",
"700 325 LINE",
"155 325 LINE"
);
}
);
width = 875;
},
{
hints = (
{
horizontal = 1;
origin = "{0, 1}";
target = "{1, 3}";
},
{
horizontal = 1;
origin = "{1, 0}";
target = "{0, 6}";
},
{
place = "{0, 40}";
},
{
place = "{755, 40}";
}
);
layerId = "9FDCACD5-7DFA-4B53-9786-D575BF0C2E18";
paths = (
{
closed = 1;
nodes = (
"40 0 LINE",
"40 230 LINE",
"755 230 LINE",
"755 0 LINE",
"795 0 LINE",
"795 500 LINE",
"0 500 LINE",
"0 0 LINE"
);
},
{
closed = 1;
nodes = (
"40 460 LINE",
"755 460 LINE",
"755 270 LINE",
"40 270 LINE"
);
}
);
width = 995;
}
);
},
{
glyphname = A.ss01;
lastChange = "2020-01-25 01:51:21 +0000";
layers = (
{
layerId = "C80544D9-48F8-4DA0-91C0-E0123F10AF4A";
paths = (
{
closed = 1;
nodes = (
"155 0 LINE",
"155 175 LINE",
"700 175 LINE",
"700 0 LINE",
"855 0 LINE",
"855 500 LINE",
"0 500 LINE",
"0 0 LINE"
);
},
{
closed = 1;
nodes = (
"155 345 LINE",
"700 345 LINE",
"700 325 LINE",
"155 325 LINE"
);
}
);
width = 875;
},
{
hints = (
{
horizontal = 1;
origin = "{0, 1}";
target = "{1, 3}";
},
{
horizontal = 1;
origin = "{1, 0}";
target = "{0, 6}";
},
{
place = "{0, 40}";
},
{
place = "{755, 40}";
}
);
layerId = "9FDCACD5-7DFA-4B53-9786-D575BF0C2E18";
paths = (
{
closed = 1;
nodes = (
"40 0 LINE",
"40 230 LINE",
"755 230 LINE",
"755 0 LINE",
"795 0 LINE",
"795 500 LINE",
"0 500 LINE",
"0 0 LINE"
);
},
{
closed = 1;
nodes = (
"40 460 LINE",
"755 460 LINE",
"755 270 LINE",
"40 270 LINE"
);
}
);
width = 995;
}
);
},
{
glyphname = B.ss01;
lastChange = "2020-01-25 01:52:00 +0000";
layers = (
{
layerId = "C80544D9-48F8-4DA0-91C0-E0123F10AF4A";
paths = (
{
closed = 1;
nodes = (
"855 0 LINE",
"855 240 LINE",
"795 240 LINE",
"795 260 LINE",
"855 260 LINE",
"855 500 LINE",
"0 500 LINE",
"0 0 LINE"
);
},
{
closed = 1;
nodes = (
"155 175 LINE",
"700 175 LINE",
"700 155 LINE",
"155 155 LINE"
);
},
{
closed = 1;
nodes = (
"155 345 LINE",
"700 345 LINE",
"700 325 LINE",
"155 325 LINE"
);
}
);
width = 875;
},
{
hints = (
{
horizontal = 1;
origin = "{0, 7}";
target = "{1, 3}";
},
{
horizontal = 1;
origin = "{1, 0}";
target = "{2, 3}";
},
{
horizontal = 1;
origin = "{2, 0}";
target = "{0, 6}";
},
{
origin = "{0, 7}";
target = "{1, 3}";
},
{
place = "{755, 40}";
}
);
layerId = "9FDCACD5-7DFA-4B53-9786-D575BF0C2E18";
paths = (
{
closed = 1;
nodes = (
"795 0 LINE",
"795 242 LINE",
"775 242 LINE",
"775 257 LINE",
"795 257 LINE",
"795 500 LINE",
"0 500 LINE",
"0 0 LINE"
);
},
{
closed = 1;
nodes = (
"40 230 LINE",
"755 230 LINE",
"755 40 LINE",
"40 40 LINE"
);
},
{
closed = 1;
nodes = (
"40 460 LINE",
"755 460 LINE",
"755 270 LINE",
"40 270 LINE"
);
}
);
width = 995;
}
);
},
{
glyphname = C.ss01;
lastChange = "2020-01-25 01:52:18 +0000";
layers = (
{
layerId = "C80544D9-48F8-4DA0-91C0-E0123F10AF4A";
paths = (
{
closed = 1;
nodes = (
"855 0 LINE",
"855 155 LINE",
"155 155 LINE",
"155 345 LINE",
"855 345 LINE",
"855 500 LINE",
"0 500 LINE",
"0 0 LINE"
);
}
);
width = 875;
},
{
hints = (
{
horizontal = 1;
origin = "{0, 7}";
target = "{0, 2}";
},
{
horizontal = 1;
origin = "{0, 3}";
target = "{0, 6}";
},
{
place = "{0, 40}";
}
);
layerId = "9FDCACD5-7DFA-4B53-9786-D575BF0C2E18";
paths = (
{
closed = 1;
nodes = (
"795 0 LINE",
"795 41 LINE",
"40 41 LINE",
"40 459 LINE",
"795 459 LINE",
"795 500 LINE",
"0 500 LINE",
"0 0 LINE"
);
}
);
width = 995;
}
);
},
{
glyphname = D.ss01;
lastChange = "2020-01-25 02:16:33 +0000";
layers = (
{
layerId = "C80544D9-48F8-4DA0-91C0-E0123F10AF4A";
paths = (
{
closed = 1;
nodes = (
"855 0 LINE",
"855 304 LINE",
"467 500 LINE",
"0 500 LINE",
"0 0 LINE"
);
},
{
closed = 1;
nodes = (
"155 345 LINE",
"411 345 LINE",
"700 198 LINE",
"700 155 LINE",
"155 155 LINE"
);
}
);
width = 876;
},
{
hints = (
{
horizontal = 1;
origin = "{0, 4}";
target = "{1, 4}";
},
{
horizontal = 1;
place = "{459.5, 40.5}";
},
{
origin = "{0, 4}";
target = "{1, 4}";
},
{
place = "{755, 40}";
}
);
layerId = "9FDCACD5-7DFA-4B53-9786-D575BF0C2E18";
paths = (
{
closed = 1;
nodes = (
"795 0 LINE",
"795 294 LINE",
"403 500 LINE",
"0 500 LINE",
"0 0 LINE"
);
},
{
closed = 1;
nodes = (
"40 460 LINE",
"387 459 LINE",
"755 275 LINE",
"755 40 LINE",
"40 40 LINE"
);
}
);
width = 995;
}
);
},
{
glyphname = E.ss01;
lastChange = "2020-01-25 01:52:47 +0000";
layers = (
{
layerId = "C80544D9-48F8-4DA0-91C0-E0123F10AF4A";
paths = (
{
closed = 1;
nodes = (
"855 0 LINE",
"855 155 LINE",
"155 155 LINE",
"155 175 LINE",
"855 175 LINE",
"855 325 LINE",
"155 325 LINE",
"155 345 LINE",
"855 345 LINE",
"855 500 LINE",
"0 500 LINE",
"0 0 LINE"
);
}
);
width = 875;
},
{
hints = (
{
horizontal = 1;
origin = "{0, 11}";
target = "{0, 2}";
},
{
horizontal = 1;
origin = "{0, 3}";
target = "{0, 6}";
},
{
horizontal = 1;
origin = "{0, 7}";
target = "{0, 10}";
},
{
origin = "{0, 11}";
target = "{0, 2}";
}
);
layerId = "9FDCACD5-7DFA-4B53-9786-D575BF0C2E18";
paths = (
{
closed = 1;
nodes = (
"795 0 LINE",
"795 40 LINE",
"40 40 LINE",
"40 230 LINE",
"795 230 LINE",
"795 270 LINE",
"40 270 LINE",
"40 460 LINE",
"795 460 LINE",
"795 500 LINE",
"0 500 LINE",
"0 0 LINE"
);
}
);
width = 995;
}
);
},
{
glyphname = Eogonek.ss01;
lastChange = "2020-01-25 01:53:13 +0000";
layers = (
{
layerId = "C80544D9-48F8-4DA0-91C0-E0123F10AF4A";
paths = (
{
closed = 1;
nodes = (
"636 0 LINE",
"426 -125 LINE",
"426 -200 LINE",
"700 -200 LINE",
"700 -120 LINE",
"598 -120 LINE",
"855 45 LINE",
"855 155 LINE",
"155 155 LINE",
"155 175 LINE",
"855 175 LINE",
"855 325 LINE",
"155 325 LINE",
"155 345 LINE",
"855 345 LINE",
"855 500 LINE",
"0 500 LINE",
"0 0 LINE"
);
}
);
width = 875;
},
{
layerId = "9FDCACD5-7DFA-4B53-9786-D575BF0C2E18";
paths = (
{
closed = 1;
nodes = (
"708 0 LINE",
"496 -158 LINE",
"496 -200 LINE",
"755 -200 LINE",
"755 -158 LINE",
"558 -158 LINE",
"795 20 LINE",
"795 40 LINE",
"40 40 LINE",
"40 230 LINE",
"795 230 LINE",
"795 270 LINE",
"40 270 LINE",
"40 460 LINE",
"795 460 LINE",
"795 500 LINE",
"0 500 LINE",
"0 0 LINE"
);
}
);
width = 995;
}
);
},
{
glyphname = F.ss01;
lastChange = "2020-01-25 01:53:19 +0000";
layers = (
{
layerId = "C80544D9-48F8-4DA0-91C0-E0123F10AF4A";
paths = (
{
closed = 1;
nodes = (
"158 0 LINE",
"158 170 LINE",
"855 170 LINE",
"855 325 LINE",
"158 325 LINE",
"158 345 LINE",
"855 345 LINE",
"855 500 LINE",
"0 500 LINE",
"0 0 LINE"
);
}
);
width = 875;
},
{
hints = (
{
horizontal = 1;
origin = "{0, 1}";
target = "{0, 4}";
},
{
horizontal = 1;
origin = "{0, 5}";
target = "{0, 8}";
},
{
place = "{0, 40}";
}
);
layerId = "9FDCACD5-7DFA-4B53-9786-D575BF0C2E18";
paths = (
{
closed = 1;
nodes = (
"40 0 LINE",
"40 230 LINE",
"795 230 LINE",
"795 270 LINE",
"40 270 LINE",
"40 460 LINE",
"795 460 LINE",
"795 500 LINE",
"0 500 LINE",
"0 0 LINE"
);
}
);
width = 995;
}
);
},
{
glyphname = G.ss01;
lastChange = "2020-01-25 01:53:27 +0000";
layers = (
{
layerId = "C80544D9-48F8-4DA0-91C0-E0123F10AF4A";
paths = (
{
closed = 1;
nodes = (
"855 0 LINE",
"855 325 LINE",
"525 325 LINE",
"525 175 LINE",
"700 175 LINE",
"700 155 LINE",
"155 155 LINE",
"155 345 LINE",
"855 345 LINE",
"855 500 LINE",
"0 500 LINE",
"0 0 LINE"
);
}
);
width = 875;
},
{
hints = (
{
horizontal = 1;
origin = "{0, 11}";
target = "{0, 6}";
},
{
horizontal = 1;
origin = "{0, 3}";
target = "{0, 2}";
},
{
horizontal = 1;
origin = "{0, 7}";
target = "{0, 10}";
},
{
origin = "{0, 11}";
target = "{0, 6}";
},
{
place = "{755, 40}";
}
);
layerId = "9FDCACD5-7DFA-4B53-9786-D575BF0C2E18";
paths = (
{
closed = 1;
nodes = (
"795 0 LINE",
"795 270 LINE",
"585 270 LINE",
"585 230 LINE",
"755 230 LINE",
"755 40 LINE",
"40 40 LINE",
"40 460 LINE",
"795 460 LINE",
"795 500 LINE",
"0 500 LINE",
"0 0 LINE"
);
}
);
width = 995;
}
);
},
{
glyphname = H.ss01;
lastChange = "2020-01-25 01:54:02 +0000";
layers = (
{
layerId = "C80544D9-48F8-4DA0-91C0-E0123F10AF4A";
paths = (
{
closed = 1;
nodes = (
"155 0 LINE",
"155 175 LINE",
"700 175 LINE",
"700 0 LINE",
"855 0 LINE",
"855 500 LINE",
"700 500 LINE",
"700 325 LINE",
"155 325 LINE",
"155 500 LINE",
"0 500 LINE",
"0 0 LINE"
);
}
);
width = 875;
},
{
hints = (
{
horizontal = 1;
origin = "{0, 1}";
target = "{0, 8}";
},
{
place = "{0, 40}";
},
{
place = "{755, 40}";
}
);
layerId = "9FDCACD5-7DFA-4B53-9786-D575BF0C2E18";
paths = (
{
closed = 1;
nodes = (
"40 0 LINE",
"40 230 LINE",
"755 230 LINE",
"755 0 LINE",
"795 0 LINE",
"795 500 LINE",
"755 500 LINE",
"755 270 LINE",
"40 270 LINE",
"40 500 LINE",
"0 500 LINE",
"0 0 LINE"
);
}
);
width = 995;
}
);
},
{
glyphname = I.ss01;
lastChange = "2020-01-25 01:54:11 +0000";
layers = (
{
layerId = "C80544D9-48F8-4DA0-91C0-E0123F10AF4A";
paths = (
{
closed = 1;
nodes = (
"155 0 LINE",
"155 500 LINE",
"0 500 LINE",
"0 0 LINE"
);
}
);
width = 175;
},
{
hints = (
{
horizontal = 1;
origin = "{0, 3}";
target = "{0, 2}";
},
{
place = "{0, 40}";
}
);
layerId = "9FDCACD5-7DFA-4B53-9786-D575BF0C2E18";
paths = (
{
closed = 1;
nodes = (
"40 0 LINE",
"40 500 LINE",
"0 500 LINE",
"0 0 LINE"
);
}
);
width = 240;
}
);
},
{
glyphname = J.ss01;
lastChange = "2020-01-25 01:54:21 +0000";
layers = (
{
layerId = "C80544D9-48F8-4DA0-91C0-E0123F10AF4A";
paths = (
{
closed = 1;
nodes = (
"155 -176 LINE",
"155 500 LINE",
"0 500 LINE",
"0 -20 LINE",
"-350 -20 LINE",
"-350 -176 LINE"
);
}
);
width = 175;
},
{
hints = (
{
horizontal = 1;
origin = "{0, 5}";
target = "{0, 4}";
},
{
place = "{0, 40}";
}
);
layerId = "9FDCACD5-7DFA-4B53-9786-D575BF0C2E18";
paths = (
{
closed = 1;
nodes = (
"40 -175 LINE",
"40 500 LINE",
"0 500 LINE",
"0 -135 LINE",
"-478 -135 LINE",
"-478 -175 LINE"
);
}
);
width = 240;
}
);
},
{
glyphname = K.ss01;
lastChange = "2020-01-25 01:54:30 +0000";
layers = (
{
layerId = "C80544D9-48F8-4DA0-91C0-E0123F10AF4A";
paths = (
{
closed = 1;
nodes = (
"155 0 LINE",
"155 175 LINE",
"411 175 LINE",
"700 0 LINE",
"855 0 LINE",
"855 80 LINE",
"576 250 LINE",
"853 418 LINE",
"853 500 LINE",
"698 500 LINE",
"411 330 LINE",
"155 330 LINE",
"155 500 LINE",
"0 500 LINE",
"0 0 LINE"
);
}
);
width = 875;
},
{
hints = (
{
horizontal = 1;
origin = "{0, 14}";
target = "{0, 5}";
},
{
horizontal = 1;
origin = "{0, 1}";
target = "{0, 11}";
},
{
horizontal = 1;
origin = "{0, 7}";
target = "{0, 13}";
},
{
place = "{0, 40}";
}
);
layerId = "9FDCACD5-7DFA-4B53-9786-D575BF0C2E18";
paths = (
{
closed = 1;
nodes = (
"40 0 LINE",
"40 230 LINE",
"401.867 230 LINE",
"775 0 LINE",
"795 0 LINE",
"795 30 LINE",
"441 250 LINE",
"795 470 LINE",
"795 500 LINE",
"775 500 LINE",
"400.259 270 LINE",
"40 270 LINE",
"40 500 LINE",
"0 500 LINE",
"0 0 LINE"
);
}
);
width = 995;
}
);
},
{
glyphname = L.ss01;
lastChange = "2020-01-25 01:54:37 +0000";
layers = (
{
layerId = "C80544D9-48F8-4DA0-91C0-E0123F10AF4A";
paths = (
{
closed = 1;
nodes = (
"855 0 LINE",
"855 155 LINE",
"155 155 LINE",
"155 500 LINE",
"0 500 LINE",
"0 0 LINE"
);
}
);
width = 875;
},
{
hints = (
{
horizontal = 1;
origin = "{0, 5}";
target = "{0, 2}";
},
{
origin = "{0, 5}";
target = "{0, 2}";
}
);
layerId = "9FDCACD5-7DFA-4B53-9786-D575BF0C2E18";
paths = (
{
closed = 1;
nodes = (
"795 0 LINE",
"795 40 LINE",
"40 40 LINE",
"40 500 LINE",
"0 500 LINE",
"0 0 LINE"
);
}
);
width = 995;
}
);
},
{
glyphname = M.ss01;
lastChange = "2020-01-25 01:54:44 +0000";
layers = (
{
layerId = "C80544D9-48F8-4DA0-91C0-E0123F10AF4A";
paths = (
{
closed = 1;
nodes = (
"155 0 LINE",
"155 345 LINE",
"350 345 LINE",
"350 0 LINE",
"505 0 LINE",
"505 345 LINE",
"700 345 LINE",
"700 0 LINE",
"855 0 LINE",
"855 500 LINE",
"0 500 LINE",
"0 0 LINE"
);
}
);
width = 875;
},
{
hints = (
{
horizontal = 1;
origin = "{0, 1}";
target = "{0, 10}";
},
{
place = "{0, 40}";
},
{
place = "{378, 40}";
},
{
place = "{755, 40}";
}
);
layerId = "9FDCACD5-7DFA-4B53-9786-D575BF0C2E18";
paths = (
{
closed = 1;
nodes = (
"40 0 LINE",
"40 460 LINE",
"378 460 LINE",
"378 0 LINE",
"418 0 LINE",
"418 460 LINE",
"755 460 LINE",
"755 0 LINE",
"795 0 LINE",
"795 500 LINE",
"0 500 LINE",
"0 0 LINE"
);
}
);
width = 995;
}
);
},
{
glyphname = N.ss01;
lastChange = "2020-01-25 01:54:51 +0000";
layers = (
{
layerId = "C80544D9-48F8-4DA0-91C0-E0123F10AF4A";
paths = (
{
closed = 1;
nodes = (
"155 0 LINE",
"155 299 LINE",
"700 0 LINE",
"855 0 LINE",
"855 500 LINE",
"700 500 LINE",
"700 204 LINE",
"155 500 LINE",
"0 500 LINE",
"0 0 LINE"
);
}
);
width = 875;
},
{
hints = (
{
origin = "{0, 5}";
target = "{0, 4}";
},
{
origin = "{0, 9}";
target = "{0, 0}";
}
);
layerId = "9FDCACD5-7DFA-4B53-9786-D575BF0C2E18";
paths = (
{
closed = 1;
nodes = (
"40 0 LINE",
"40 437 LINE",
"773 0 LINE",
"795 0 LINE",
"795 500 LINE",
"755 500 LINE",
"755 64 LINE",
"19 500 LINE",
"0 500 LINE",
"0 0 LINE"
);
}
);
width = 995;
}
);
},
{
glyphname = O.ss01;
lastChange = "2020-01-22 05:43:07 +0000";
layers = (
{
layerId = "C80544D9-48F8-4DA0-91C0-E0123F10AF4A";
paths = (
{
closed = 1;
nodes = (
"855 0 LINE",
"855 500 LINE",
"0 500 LINE",
"0 0 LINE"
);
},
{
closed = 1;
nodes = (
"155 345 LINE",
"700 345 LINE",
"700 155 LINE",
"155 155 LINE"
);
}
);
width = 875;
},
{
hints = (
{
horizontal = 1;
origin = "{0, 3}";
target = "{1, 3}";
},
{
horizontal = 1;
origin = "{1, 0}";
target = "{0, 2}";
},
{
origin = "{0, 3}";
target = "{1, 3}";
},
{
place = "{755, 40}";
}
);
layerId = "9FDCACD5-7DFA-4B53-9786-D575BF0C2E18";
paths = (
{
closed = 1;
nodes = (
"795 0 LINE",
"795 500 LINE",
"0 500 LINE",
"0 0 LINE"
);
},
{
closed = 1;
nodes = (
"40 460 LINE",
"755 460 LINE",
"755 40 LINE",
"40 40 LINE"
);
}
);
width = 995;
}
);
},
{
glyphname = P.ss01;
lastChange = "2020-01-25 01:55:00 +0000";
layers = (
{
layerId = "C80544D9-48F8-4DA0-91C0-E0123F10AF4A";
paths = (
{
closed = 1;
nodes = (
"155 0 LINE",
"155 175 LINE",
"855 175 LINE",
"855 500 LINE",
"0 500 LINE",
"0 0 LINE"
);
},
{
closed = 1;
nodes = (
"155 345 LINE",
"700 345 LINE",
"700 325 LINE",
"155 325 LINE"
);
}
);
width = 875;
},
{
hints = (
{
horizontal = 1;
origin = "{0, 1}";
target = "{1, 3}";
},
{
horizontal = 1;
origin = "{1, 0}";
target = "{0, 4}";
},
{
place = "{0, 40}";
},
{
place = "{755, 40}";
}
);
layerId = "9FDCACD5-7DFA-4B53-9786-D575BF0C2E18";
paths = (
{
closed = 1;
nodes = (
"40 0 LINE",
"40 230 LINE",
"795 230 LINE",
"795 500 LINE",
"0 500 LINE",
"0 0 LINE"
);
},
{
closed = 1;
nodes = (
"40 460 LINE",
"755 460 LINE",
"755 270 LINE",
"40 270 LINE"
);
}
);
width = 995;
}
);
},
{
glyphname = Q.ss01;
lastChange = "2020-01-25 01:58:57 +0000";
layers = (
{
layerId = "C80544D9-48F8-4DA0-91C0-E0123F10AF4A";
paths = (
{
closed = 1;
nodes = (
"855 -175 LINE",
"855 -20 LINE",
"680 -20 LINE",
"680 0 LINE",
"855 0 LINE",
"855 500 LINE",
"0 500 LINE",
"0 0 LINE",
"525 0 LINE",
"525 -175 LINE"
);
},
{
closed = 1;
nodes = (
"155 345 LINE",
"700 345 LINE",
"700 155 LINE",
"155 155 LINE"
);
}
);
width = 875;
},
{
hints = (
{
horizontal = 1;
origin = "{0, 9}";
target = "{0, 2}";
},
{
horizontal = 1;
origin = "{0, 7}";
target = "{1, 3}";
},
{
horizontal = 1;
origin = "{1, 0}";
target = "{0, 6}";
},
{
origin = "{0, 7}";
target = "{1, 3}";
},
{
place = "{560, 40}";
},
{
place = "{755, 40}";
}
);
layerId = "9FDCACD5-7DFA-4B53-9786-D575BF0C2E18";
paths = (
{
closed = 1;
nodes = (
"795 -175 LINE",
"795 -135 LINE",
"600 -135 LINE",
"600 0 LINE",
"795 0 LINE",
"795 500 LINE",
"0 500 LINE",
"0 0 LINE",
"560 0 LINE",
"560 -175 LINE"
);
},
{
closed = 1;
nodes = (
"40 460 LINE",
"755 460 LINE",
"755 40 LINE",
"40 40 LINE"
);
}
);
width = 995;
}
);
},
{
glyphname = R.ss01;
lastChange = "2020-01-25 01:59:03 +0000";
layers = (
{
layerId = "C80544D9-48F8-4DA0-91C0-E0123F10AF4A";
paths = (
{
closed = 1;
nodes = (
"155 0 LINE",
"155 175 LINE",
"411 175 LINE",
"700 0 LINE",
"855 0 LINE",
"855 80 LINE",
"699 175 LINE",
"855 175 LINE",
"855 500 LINE",
"0 500 LINE",
"0 0 LINE"
);
},
{
closed = 1;
nodes = (
"155 345 LINE",
"700 345 LINE",
"700 325 LINE",
"155 325 LINE"
);
}
);
width = 875;
},
{
hints = (
{
horizontal = 1;
origin = "{0, 10}";
target = "{0, 5}";
},
{
horizontal = 1;
origin = "{0, 1}";
target = "{1, 3}";
},
{
horizontal = 1;
origin = "{1, 0}";
target = "{0, 9}";
},
{
place = "{0, 40}";
},
{
place = "{755, 40}";
}
);
layerId = "9FDCACD5-7DFA-4B53-9786-D575BF0C2E18";
paths = (
{
closed = 1;
nodes = (
"40 0 LINE",
"40 230 LINE",
"388 230 LINE",
"773 0 LINE",
"795 0 LINE",
"795 34 LINE",
"459 230 LINE",
"795 230 LINE",
"795 500 LINE",
"0 500 LINE",
"0 0 LINE"
);
},
{
closed = 1;
nodes = (
"40 460 LINE",
"755 460 LINE",
"755 270 LINE",
"40 270 LINE"
);
}
);
width = 995;
}
);
},
{
glyphname = S.ss01;
lastChange = "2020-01-25 01:59:10 +0000";
layers = (
{
layerId = "C80544D9-48F8-4DA0-91C0-E0123F10AF4A";
paths = (
{
closed = 1;
nodes = (
"855 0 LINE",
"855 325 LINE",
"155 325 LINE",
"155 345 LINE",
"855 345 LINE",
"855 500 LINE",
"0 500 LINE",
"0 175 LINE",
"700 175 LINE",
"700 155 LINE",
"0 155 LINE",
"0 0 LINE"
);
}
);
width = 875;
},
{
hints = (
{
horizontal = 1;
origin = "{0, 11}";
target = "{0, 10}";
},
{
horizontal = 1;
origin = "{0, 7}";
target = "{0, 2}";
},
{
horizontal = 1;
origin = "{0, 3}";
target = "{0, 6}";
},
{
origin = "{0, 11}";
target = "{0, 10}";
},
{
place = "{755, 40}";
}
);
layerId = "9FDCACD5-7DFA-4B53-9786-D575BF0C2E18";
paths = (
{
closed = 1;
nodes = (
"795 0 LINE",
"795 270 LINE",
"40 270 LINE",
"40 460 LINE",
"795 460 LINE",
"795 500 LINE",
"0 500 LINE",
"0 230 LINE",
"755 230 LINE",
"755 40 LINE",
"0 40 LINE",
"0 0 LINE"
);
}
);
width = 995;
}
);
},
{
glyphname = T.ss01;
lastChange = "2020-01-25 01:59:15 +0000";
layers = (
{
layerId = "C80544D9-48F8-4DA0-91C0-E0123F10AF4A";
paths = (
{
closed = 1;
nodes = (
"350 345 LINE",
"350 0 LINE",
"505 0 LINE",
"505 345 LINE",
"855 345 LINE",
"855 500 LINE",
"0 500 LINE",
"0 345 LINE"
);
}
);
width = 875;
},
{
hints = (
{
horizontal = 1;
origin = "{0, 7}";
target = "{0, 6}";
},
{
place = "{380, 40}";
}
);
layerId = "9FDCACD5-7DFA-4B53-9786-D575BF0C2E18";
paths = (
{
closed = 1;
nodes = (
"380 462 LINE",
"380 0 LINE",
"420 0 LINE",
"420 462 LINE",
"795 462 LINE",
"795 502 LINE",
"0 502 LINE",
"0 462 LINE"
);
}
);
width = 995;
}
);
},
{
glyphname = U.ss01;
lastChange = "2020-01-25 01:59:21 +0000";
layers = (
{
layerId = "C80544D9-48F8-4DA0-91C0-E0123F10AF4A";
paths = (
{
closed = 1;
nodes = (
"447 0 LINE",
"700 129 LINE",
"700 0 LINE",
"855 0 LINE",
"855 500 LINE",
"700 500 LINE",
"700 299 LINE",
"411 155 LINE",
"155 155 LINE",
"155 500 LINE",
"0 500 LINE",
"0 0 LINE"
);
}
);
width = 875;
},
{
hints = (
{
origin = "{0, 5}";
target = "{0, 4}";
},
{
origin = "{0, 10}";
target = "{0, 9}";
},
{
horizontal = 1;
origin = "{0, 11}";
target = "{0, 8}";
},
{
horizontal = 1;
origin = "{0, 1}";
target = "{0, 6}";
}
);
layerId = "9FDCACD5-7DFA-4B53-9786-D575BF0C2E18";
paths = (
{
closed = 1;
nodes = (
"403 0 LINE",
"755 184.98 LINE",
"755 0 LINE",
"795 0 LINE",
"795 500 LINE",
"755 500 LINE",
"755 225 LINE",
"387 41 LINE",
"40 40 LINE",
"40 500 LINE",
"0 500 LINE",
"0 0 LINE"
);
}
);
width = 995;
}
);
},
{
glyphname = V.ss01;
lastChange = "2020-01-25 01:59:56 +0000";
layers = (
{
layerId = "C80544D9-48F8-4DA0-91C0-E0123F10AF4A";
paths = (
{
closed = 1;
nodes = (
"467 0 LINE",
"855 196 LINE",
"855 500 LINE",
"700 500 LINE",
"700 302 LINE",
"411 155 LINE",
"155 155 LINE",
"155 500 LINE",
"0 500 LINE",
"0 0 LINE"
);
}
);
width = 875;
},
{
hints = (
{
origin = "{0, 3}";
target = "{0, 2}";
},
{
origin = "{0, 8}";
target = "{0, 7}";
}
);
layerId = "9FDCACD5-7DFA-4B53-9786-D575BF0C2E18";
paths = (
{
closed = 1;
nodes = (
"403 0 LINE",
"795 206 LINE",
"795 500 LINE",
"755 500 LINE",
"755 225 LINE",
"387 41 LINE",
"40 40.103 LINE",
"40 500 LINE",
"0 500 LINE",
"0 0 LINE"
);
}
);
width = 995;
}
);
},
{
glyphname = W.ss01;
lastChange = "2020-01-25 02:00:08 +0000";
layers = (
{
layerId = "C80544D9-48F8-4DA0-91C0-E0123F10AF4A";
paths = (
{
closed = 1;
nodes = (
"855 0 LINE",
"855 500 LINE",
"700 500 LINE",
"700 155 LINE",
"505 155 LINE",
"505 500 LINE",
"350 500 LINE",
"350 155 LINE",
"155 155 LINE",
"155 500 LINE",
"0 500 LINE",
"0 0 LINE"
);
}
);
width = 875;
},
{
hints = (
{
horizontal = 1;
origin = "{0, 11}";
target = "{0, 8}";
},
{
origin = "{0, 11}";
target = "{0, 8}";
},
{
place = "{378, 40}";
},
{
place = "{755, 40}";
}
);
layerId = "9FDCACD5-7DFA-4B53-9786-D575BF0C2E18";
paths = (
{
closed = 1;
nodes = (
"795 0 LINE",
"795 500 LINE",
"755 500 LINE",
"755 40 LINE",
"418 40 LINE",
"418 500 LINE",
"378 500 LINE",
"378 40 LINE",
"40 40 LINE",
"40 500 LINE",
"0 500 LINE",
"0 0 LINE"
);
}
);
width = 995;
}
);
},
{
glyphname = X.ss01;
lastChange = "2020-01-25 02:00:14 +0000";
layers = (
{
layerId = "C80544D9-48F8-4DA0-91C0-E0123F10AF4A";
paths = (
{
closed = 1;
nodes = (
"100 0 LINE",
"428 166 LINE",
"755 0 LINE",
"855 0 LINE",
"855 128 LINE",
"604 252 LINE",
"855 375 LINE",
"855 500 LINE",
"755 500 LINE",
"428 339 LINE",
"100 500 LINE",
"0 500 LINE",
"0 375 LINE",
"251 252 LINE",
"0 128 LINE",
"0 0 LINE"
);
}
);
width = 875;
},
{
hints = (
{
origin = "{0, 8}";
target = "{0, 7}";
},
{
origin = "{0, 15}";
target = "{0, 0}";
},
{
horizontal = 1;
origin = "{0, 12}";
target = "{0, 11}";
},
{
horizontal = 1;
origin = "{0, 3}";
target = "{0, 4}";
}
);
layerId = "9FDCACD5-7DFA-4B53-9786-D575BF0C2E18";
paths = (
{
closed = 1;
nodes = (
"20 0 LINE",
"397 233 LINE",
"775 0 LINE",
"795 0 LINE",
"795 30 LINE",
"441 250 LINE",
"795 470 LINE",
"795 500 LINE",
"775 500 LINE",
"397 268 LINE",
"20 500 LINE",
"0 500 LINE",
"0 470 LINE",
"353 250 LINE",
"0 30 LINE",
"0 0 LINE"
);
}
);
width = 995;
}
);
},
{
glyphname = Y.ss01;
lastChange = "2020-01-25 02:00:22 +0000";
layers = (
{
layerId = "C80544D9-48F8-4DA0-91C0-E0123F10AF4A";
paths = (
{
closed = 1;
nodes = (
"350 175 LINE",
"350 0 LINE",
"505 0 LINE",
"505 175 LINE",
"855 175 LINE",
"855 500 LINE",
"700 500 LINE",
"700 328 LINE",
"155 328 LINE",
"155 500 LINE",
"0 500 LINE",
"0 175 LINE"
);
}
);
width = 875;
},
{
hints = (
{
horizontal = 1;
origin = "{0, 11}";
target = "{0, 8}";
},
{
place = "{0, 40}";
},
{
place = "{378, 40}";
},
{
place = "{755, 40}";
}
);
layerId = "9FDCACD5-7DFA-4B53-9786-D575BF0C2E18";
paths = (
{
closed = 1;
nodes = (
"378 231 LINE",
"378 0 LINE",
"418 0 LINE",
"418 231 LINE",
"795 231 LINE",
"795 501 LINE",
"755 501 LINE",
"755 271 LINE",
"40 271 LINE",
"40 501 LINE",
"0 501 LINE",
"0 231 LINE"
);
}
);
width = 995;
}
);
},
{
glyphname = Z.ss01;
lastChange = "2020-01-25 02:00:33 +0000";
layers = (
{
layerId = "C80544D9-48F8-4DA0-91C0-E0123F10AF4A";
paths = (
{
closed = 1;
nodes = (
"855 0 LINE",
"855 155 LINE",
"421 155 LINE",
"855 369 LINE",
"855 500 LINE",
"0 500 LINE",
"0 345 LINE",
"443 345 LINE",
"0 123 LINE",
"0 0 LINE"
);
}
);
width = 875;
},
{
hints = (
{
horizontal = 1;
origin = "{0, 6}";
target = "{0, 5}";
},
{
horizontal = 1;
origin = "{0, 0}";
target = "{0, 1}";
},
{
origin = "{0, 7}";
target = "{0, 3}";
},
{
origin = "{0, 8}";
target = "{0, 2}";
}
);
layerId = "9FDCACD5-7DFA-4B53-9786-D575BF0C2E18";
paths = (
{
closed = 1;
nodes = (
"795 0 LINE",
"795 40 LINE",
"89 40 LINE",
"795 460 LINE",
"795 500 LINE",
"0 500 LINE",
"0 460 LINE",
"708 460 LINE",
"0 40 LINE",
"0 0 LINE"
);
}
);
width = 995;
}
);
},
{
glyphname = a;
lastChange = "2020-01-25 01:32:38 +0000";
layers = (
{
hints = (
{
horizontal = 1;
origin = "{0, 4}";
target = "{1, 2}";
},
{
horizontal = 1;
origin = "{0, 0}";
target = "{0, 7}";
},
{
horizontal = 1;
origin = "{1, 3}";
target = "{0, 3}";
},
{
origin = "{0, 4}";
target = "{1, 2}";
},
{
place = "{700, 155}";
}
);
layerId = "C80544D9-48F8-4DA0-91C0-E0123F10AF4A";
paths = (
{
closed = 1;
nodes = (
"0 345 LINE",
"700 345 LINE",
"700 325 LINE",
"0 325 LINE",
"0 0 LINE",
"855 0 LINE",
"855 500 LINE",
"0 500 LINE"
);
},
{
closed = 1;
nodes = (
"700 175 LINE",
"700 155 LINE",
"155 155 LINE",
"155 175 LINE"
);
}
);
width = 875;
},
{
hints = (
{
horizontal = 1;
origin = "{0, 4}";
target = "{1, 2}";
},
{
horizontal = 1;
origin = "{1, 3}";
target = "{0, 3}";
},
{
horizontal = 1;
origin = "{0, 0}";
target = "{0, 7}";
},
{
origin = "{0, 4}";
target = "{1, 2}";
},
{
place = "{755, 40}";
}
);
layerId = "9FDCACD5-7DFA-4B53-9786-D575BF0C2E18";
paths = (
{
closed = 1;
nodes = (
"0 460 LINE",
"755 460 LINE",
"755 270 LINE",
"0 270 LINE",
"0 0 LINE",
"795 0 LINE",
"795 500 LINE",
"0 500 LINE"
);
},
{
closed = 1;
nodes = (
"755 230 LINE",
"755 40 LINE",
"40 40 LINE",
"40 230 LINE"
);
}
);
width = 995;
}
);
unicode = 0061;
},
{
glyphname = ae;
lastChange = "2020-01-25 01:56:49 +0000";
layers = (
{
layerId = "C80544D9-48F8-4DA0-91C0-E0123F10AF4A";
paths = (
{
closed = 1;
nodes = (
"855 0 LINE",
"855 155 LINE",
"505 155 LINE",
"505 175 LINE",
"855 175 LINE",
"855 500 LINE",
"0 500 LINE",
"0 345 LINE",
"350 345 LINE",
"350 325 LINE",
"0 325 LINE",
"0 0 LINE"
);
},
{
closed = 1;
nodes = (
"155 175 LINE",
"350 175 LINE",
"350 155 LINE",
"155 155 LINE"
);
},
{
closed = 1;
nodes = (
"505 345 LINE",
"702 345 LINE",
"702 325 LINE",
"505 325 LINE"
);
}
);
width = 875;
},
{
layerId = "9FDCACD5-7DFA-4B53-9786-D575BF0C2E18";
paths = (
{
closed = 1;
nodes = (
"795 0 LINE",
"795 40 LINE",
"418 40 LINE",
"418 230 LINE",
"795 230 LINE",
"795 500 LINE",
"0 500 LINE",
"0 460 LINE",
"378 460 LINE",
"378 270 LINE",
"0 270 LINE",
"0 0 LINE"
);
},
{
closed = 1;
nodes = (
"40 230 LINE",
"378 230 LINE",
"378 40 LINE",
"40 40 LINE"
);
},
{
closed = 1;
nodes = (
"418 460 LINE",
"755 460 LINE",
"755 270 LINE",
"418 270 LINE"
);
}
);
width = 995;
}
);
unicode = 00E6;
},
{
glyphname = b;
lastChange = "2020-01-25 01:32:49 +0000";
layers = (
{
backgroundImage = {
crop = "{{0, 0}, {1377, 655}}";
imagePath = "../../sources/Screen Shot 2019-12-10 at 11.19.38 PM.png";
transform = "{6.532, 0, 0, 6.532, -1020, -3379}";
};
hints = (
{
horizontal = 1;
origin = "{0, 5}";
target = "{1, 3}";
},
{
horizontal = 1;
origin = "{1, 0}";
target = "{0, 2}";
},
{
origin = "{0, 5}";
target = "{1, 3}";
},
{
place = "{700, 155}";
}
);
layerId = "C80544D9-48F8-4DA0-91C0-E0123F10AF4A";
paths = (
{
closed = 1;
nodes = (
"855 0 LINE",
"855 500 LINE",
"155 500 LINE",
"155 675 LINE",
"0 675 LINE",
"0 0 LINE"
);
},
{
closed = 1;
nodes = (
"155 343 LINE",
"700 343 LINE",
"700 155 LINE",
"155 155 LINE"
);
}
);
width = 875;
},
{
hints = (
{
horizontal = 1;
origin = "{0, 5}";
target = "{1, 3}";
},
{
horizontal = 1;
origin = "{1, 0}";
target = "{0, 2}";
},
{
origin = "{0, 5}";
target = "{1, 3}";
},
{
place = "{755, 40}";
}
);
layerId = "9FDCACD5-7DFA-4B53-9786-D575BF0C2E18";
paths = (
{
closed = 1;
nodes = (
"795 0 LINE",
"795 500 LINE",
"40 500 LINE",
"40 675 LINE",
"0 675 LINE",
"0 0 LINE"
);
},
{
closed = 1;
nodes = (
"40 460 LINE",
"755 460 LINE",
"755 40 LINE",
"40 40 LINE"
);
}
);
width = 995;
}
);
unicode = 0062;
},
{
glyphname = c;
lastChange = "2020-01-25 01:33:01 +0000";
layers = (
{
hints = (
{
horizontal = 1;
origin = "{0, 7}";
target = "{0, 2}";
},
{
horizontal = 1;
origin = "{0, 3}";
target = "{0, 6}";
},
{
place = "{0, 156}";
}
);
layerId = "C80544D9-48F8-4DA0-91C0-E0123F10AF4A";
paths = (
{
closed = 1;
nodes = (
"855 0 LINE",
"855 155 LINE",
"156 155 LINE",
"156 345 LINE",
"855 345 LINE",
"855 500 LINE",
"0 500 LINE",
"0 0 LINE"
);
}
);
width = 875;
},
{
hints = (
{
horizontal = 1;
origin = "{0, 7}";
target = "{0, 2}";
},
{
horizontal = 1;
origin = "{0, 3}";
target = "{0, 6}";
},
{
place = "{0, 40}";
}
);
layerId = "9FDCACD5-7DFA-4B53-9786-D575BF0C2E18";
paths = (
{
closed = 1;
nodes = (
"795 0 LINE",
"795 41 LINE",
"40 41 LINE",
"40 459 LINE",
"795 459 LINE",
"795 500 LINE",
"0 500 LINE",
"0 0 LINE"
);
}
);
width = 995;
}
);
unicode = 0063;
},
{
glyphname = ccedilla;
lastChange = "2020-01-25 02:00:48 +0000";
layers = (
{
layerId = "C80544D9-48F8-4DA0-91C0-E0123F10AF4A";
paths = (
{
closed = 1;
nodes = (
"426 0 LINE",
"336 -66 LINE",
"336 -101 LINE",
"496 -101 LINE",
"496 -160 LINE",
"336 -160 LINE",
"336 -200 LINE",
"536 -200 LINE",
"536 -61 LINE",
"421 -61 LINE",
"461 -32 LINE",
"461 0 LINE",
"855 0 LINE",
"855 155 LINE",
"156 155 LINE",
"156 345 LINE",
"855 345 LINE",
"855 500 LINE",
"0 500 LINE",
"0 0 LINE"
);
}
);
width = 875;
},
{
layerId = "9FDCACD5-7DFA-4B53-9786-D575BF0C2E18";
paths = (
{
closed = 1;
nodes = (
"398.273 0 LINE",
"311 -64 LINE",
"311 -99 LINE",
"471 -99 LINE",
"471 -160 LINE",
"311 -160 LINE",
"311 -200 LINE",
"511 -200 LINE",
"511 -59 LINE",
"390 -59 LINE",
"430 -30 LINE",
"430 0 LINE",
"795 0 LINE",
"795 41 LINE",
"40 41 LINE",
"40 459 LINE",
"795 459 LINE",
"795 500 LINE",
"0 500 LINE",
"0 0 LINE"
);
}
);
width = 995;
}
);
unicode = 00E7;
},
{
glyphname = d;
lastChange = "2020-01-04 08:06:31 +0000";
layers = (
{
hints = (
{
horizontal = 1;
origin = "{0, 5}";
target = "{1, 3}";
},
{
horizontal = 1;
origin = "{1, 0}";
target = "{0, 4}";
},
{
origin = "{0, 5}";
target = "{1, 3}";
},
{
place = "{700, 155}";
}
);
layerId = "C80544D9-48F8-4DA0-91C0-E0123F10AF4A";
paths = (
{
closed = 1;
nodes = (
"855 0 LINE",
"855 675 LINE",
"700 675 LINE",
"700 500 LINE",
"0 500 LINE",
"0 0 LINE"
);
},
{
closed = 1;
nodes = (
"155 345 LINE",
"700 345 LINE",
"700 155 LINE",
"155 155 LINE"
);
}
);
width = 875;
},
{
hints = (
{
horizontal = 1;
origin = "{0, 5}";
target = "{0, 5}";
},
{
horizontal = 1;
origin = "{0, 5}";
target = "{0, 5}";
},
{
origin = "{0, 5}";
target = "{0, 5}";
},
{
place = "{755, 40}";
}
);
layerId = "9FDCACD5-7DFA-4B53-9786-D575BF0C2E18";
paths = (
{
closed = 1;
nodes = (
"795 0 LINE",
"795 675 LINE",
"755 675 LINE",
"755 500 LINE",
"0 500 LINE",
"0 0 LINE"
);
},
{
closed = 1;
nodes = (
"40 460 LINE",
"755 460 LINE",
"755 40 LINE",
"40 40 LINE"
);
}
);
width = 995;
}
);
unicode = 0064;
},
{
glyphname = e;
lastChange = "2020-01-25 01:33:41 +0000";
layers = (
{
hints = (
{
horizontal = 1;
origin = "{0, 7}";
target = "{0, 2}";
},
{
horizontal = 1;
origin = "{1, 0}";
target = "{0, 6}";
},
{
horizontal = 1;
origin = "{0, 3}";
target = "{1, 3}";
},
{
origin = "{0, 7}";
target = "{0, 2}";
},
{
place = "{700, 155}";
}
);
layerId = "C80544D9-48F8-4DA0-91C0-E0123F10AF4A";
paths = (
{
closed = 1;
nodes = (
"855 0 LINE",
"855 155 LINE",
"155 155 LINE",
"155 175 LINE",
"855 175 LINE",
"855 500 LINE",
"0 500 LINE",
"0 0 LINE"
);
},
{
closed = 1;
nodes = (
"155 345 LINE",
"700 345 LINE",
"700 325 LINE",
"155 325 LINE"
);
}
);
width = 875;
},
{
hints = (
{
horizontal = 1;
origin = "{0, 7}";
target = up;
type = BottomGhost;
},
{
horizontal = 1;
origin = "{0, 3}";
target = "{1, 3}";
},
{
horizontal = 1;
origin = "{1, 0}";
target = up;
type = BottomGhost;
},
{
origin = "{0, 7}";
target = "{0, 2}";
},
{
place = "{755, 21}";
target = up;
type = BottomGhost;
}
);
layerId = "9FDCACD5-7DFA-4B53-9786-D575BF0C2E18";
paths = (
{
closed = 1;
nodes = (
"795 0 LINE",
"795 40 LINE",
"40 40 LINE",
"40 230 LINE",
"795 230 LINE",
"795 500 LINE",
"0 500 LINE",
"0 0 LINE"
);
},
{
closed = 1;
nodes = (
"40 460 LINE",
"755 460 LINE",
"755 270 LINE",
"40 270 LINE"
);
}
);
width = 995;
}
);
unicode = 0065;
},
{
glyphname = edieresis;
lastChange = "2020-01-25 02:15:19 +0000";
layers = (
{
components = (
{
name = dieresis;
transform = "{1, 0, 0, 1, 158, 0}";
}
);
layerId = "C80544D9-48F8-4DA0-91C0-E0123F10AF4A";
paths = (
{
closed = 1;
nodes = (
"855 0 LINE",
"855 155 LINE",
"155 155 LINE",
"155 175 LINE",
"855 175 LINE",
"855 500 LINE",
"0 500 LINE",
"0 0 LINE"
);
},
{
closed = 1;
nodes = (
"155 345 LINE",
"700 345 LINE",
"700 325 LINE",
"155 325 LINE"
);
}
);
width = 875;
},
{
components = (
{
name = dieresis;
transform = "{1, 0, 0, 1, 177, 0}";
}
);
layerId = "9FDCACD5-7DFA-4B53-9786-D575BF0C2E18";
paths = (
{
closed = 1;
nodes = (
"795 0 LINE",
"795 40 LINE",
"40 40 LINE",
"40 230 LINE",
"795 230 LINE",
"795 500 LINE",
"0 500 LINE",
"0 0 LINE"
);
},
{
closed = 1;
nodes = (
"40 460 LINE",
"755 460 LINE",
"755 270 LINE",
"40 270 LINE"
);
}
);
width = 995;
}
);
unicode = 00EB;
},
{
glyphname = emacron;
lastChange = "2020-01-25 02:15:29 +0000";
layers = (
{
layerId = "C80544D9-48F8-4DA0-91C0-E0123F10AF4A";
paths = (
{
closed = 1;
nodes = (
"855 0 LINE",
"855 155 LINE",
"155 155 LINE",
"155 175 LINE",
"855 175 LINE",
"855 500 LINE",
"0 500 LINE",
"0 0 LINE"
);
},
{
closed = 1;
nodes = (
"155 345 LINE",
"700 345 LINE",
"700 325 LINE",
"155 325 LINE"
);
},
{
closed = 1;
nodes = (
"696 521 LINE",
"696 631 LINE",
"156 631 LINE",
"156 522 LINE"
);
}
);
width = 875;
},
{
layerId = "9FDCACD5-7DFA-4B53-9786-D575BF0C2E18";
paths = (
{
closed = 1;
nodes = (
"795 0 LINE",
"795 40 LINE",
"40 40 LINE",
"40 230 LINE",
"795 230 LINE",
"795 500 LINE",
"0 500 LINE",
"0 0 LINE"
);
},
{
closed = 1;
nodes = (
"40 460 LINE",
"755 460 LINE",
"755 270 LINE",
"40 270 LINE"
);
},
{
closed = 1;
nodes = (
"605 591 LINE",
"605 631 LINE",
"190 631 LINE",
"190 592 LINE"
);
}
);
width = 995;
}
);
unicode = 0113;
},
{
glyphname = eogonek;
lastChange = "2020-01-25 02:15:35 +0000";
layers = (
{
layerId = "C80544D9-48F8-4DA0-91C0-E0123F10AF4A";
paths = (
{
closed = 1;
nodes = (
"700 -200 LINE",
"700 -120 LINE",
"598 -120 LINE",
"855 45 LINE",
"855 155 LINE",
"155 155 LINE",
"155 175 LINE",
"855 175 LINE",
"855 500 LINE",
"0 500 LINE",
"0 0 LINE",
"636 0 LINE",
"426 -125 LINE",
"426 -200 LINE"
);
},
{
closed = 1;
nodes = (
"155 345 LINE",
"700 345 LINE",
"700 325 LINE",
"155 325 LINE"
);
}
);
width = 875;
},
{
layerId = "9FDCACD5-7DFA-4B53-9786-D575BF0C2E18";
paths = (
{
closed = 1;
nodes = (
"755 -200 LINE",
"755 -158 LINE",
"558 -158 LINE",
"795 20 LINE",
"795 40 LINE",
"40 40 LINE",
"40 230 LINE",
"795 230 LINE",
"795 500 LINE",
"0 500 LINE",
"0 0 LINE",
"708 0 LINE",
"496 -158 LINE",
"496 -200 LINE"
);
},
{
closed = 1;
nodes = (
"40 460 LINE",
"755 460 LINE",
"755 270 LINE",
"40 270 LINE"
);
}
);
width = 995;
}
);
unicode = 0119;
},
{
glyphname = f;
lastChange = "2020-01-04 08:07:37 +0000";
layers = (
{
hints = (
{
horizontal = 1;
origin = "{0, 13}";
target = "{0, 12}";
},
{
horizontal = 1;
origin = "{0, 7}";
target = "{0, 10}";
},
{
place = "{350, 155}";
}
);
layerId = "C80544D9-48F8-4DA0-91C0-E0123F10AF4A";
paths = (
{
closed = 1;
nodes = (
"350 345 LINE",
"350 0 LINE",
"505 0 LINE",
"505 345 LINE",
"855 345 LINE",
"855 500 LINE",
"505 500 LINE",
"505 520 LINE",
"855 520 LINE",
"855 675 LINE",
"350 675 LINE",
"350 500 LINE",
"0 500 LINE",
"0 345 LINE"
);
}
);
width = 875;
},
{
hints = (
{
horizontal = 1;
origin = "{0, 13}";
target = "{0, 12}";
},
{
horizontal = 1;
origin = "{0, 7}";
target = "{0, 10}";
},
{
place = "{380, 40}";
}
);
layerId = "9FDCACD5-7DFA-4B53-9786-D575BF0C2E18";
paths = (
{
closed = 1;
nodes = (
"380 460 LINE",
"380 0 LINE",
"420 0 LINE",
"420 460 LINE",
"795 460 LINE",
"795 500 LINE",
"420 500 LINE",
"420 635 LINE",
"795 635 LINE",
"795 675 LINE",
"380 675 LINE",
"380 500 LINE",
"0 500 LINE",
"0 460 LINE"
);
}
);
width = 995;
}
);
unicode = 0066;
},
{
glyphname = g;
lastChange = "2020-01-25 01:33:48 +0000";
layers = (
{
hints = (
{
horizontal = 1;
origin = "{0, 7}";
target = "{0, 6}";
},
{
horizontal = 1;
origin = "{1, 0}";
target = "{0, 2}";
},
{
horizontal = 1;
origin = "{0, 3}";
target = "{1, 3}";
},
{
origin = "{0, 3}";
target = "{1, 3}";
},
{
place = "{700, 155}";
}
);
layerId = "C80544D9-48F8-4DA0-91C0-E0123F10AF4A";
paths = (
{
closed = 1;
nodes = (
"855 -175 LINE",
"855 500 LINE",
"0 500 LINE",
"0 0 LINE",
"700 0 LINE",
"700 -20 LINE",
"0 -20 LINE",
"0 -175 LINE"
);
},
{
closed = 1;
nodes = (
"155 345 LINE",
"700 345 LINE",
"700 155 LINE",
"155 155 LINE"
);
}
);
width = 875;
},
{
hints = (
{
horizontal = 1;
origin = "{0, 7}";
target = "{0, 6}";
},
{
horizontal = 1;
origin = "{0, 3}";
target = "{1, 3}";
},
{
horizontal = 1;
origin = "{1, 0}";
target = "{0, 2}";
},
{
origin = "{0, 3}";
target = "{1, 3}";
},
{
place = "{755, 40}";
}
);
layerId = "9FDCACD5-7DFA-4B53-9786-D575BF0C2E18";
paths = (
{
closed = 1;
nodes = (
"795 -175 LINE",
"795 500 LINE",
"0 500 LINE",
"0 0 LINE",
"755 0 LINE",
"755 -135 LINE",
"0 -135 LINE",
"0 -175 LINE"
);
},
{
closed = 1;
nodes = (
"40 460 LINE",
"755 460 LINE",
"755 40 LINE",
"40 40 LINE"
);
}
);
width = 995;
}
);
unicode = 0067;
},
{
glyphname = h;
lastChange = "2020-01-25 01:33:52 +0000";
layers = (
{
hints = (
{
horizontal = 1;
origin = "{0, 1}";
target = "{0, 6}";
},
{
place = "{0, 155}";
},
{
place = "{700, 155}";
}
);
layerId = "C80544D9-48F8-4DA0-91C0-E0123F10AF4A";
paths = (
{
closed = 1;
nodes = (
"155 0 LINE",
"155 345 LINE",
"700 345 LINE",
"700 0 LINE",
"855 0 LINE",
"855 500 LINE",
"155 500 LINE",
"155 675 LINE",
"0 675 LINE",
"0 0 LINE"
);
}
);
width = 875;
},
{
guideLines = (
{
position = "{23, 0}";
}
);
hints = (
{
horizontal = 1;
origin = "{0, 1}";
target = up;
type = BottomGhost;
},
{
place = "{0, 45}";
},
{
place = "{750, 45}";
}
);
layerId = "9FDCACD5-7DFA-4B53-9786-D575BF0C2E18";
paths = (
{
closed = 1;
nodes = (
"40 0 LINE",
"40 460 LINE",
"755 460 LINE",
"755 0 LINE",
"795 0 LINE",
"795 500 LINE",
"40 500 LINE",
"40 675 LINE",
"0 675 LINE",
"0 0 LINE"
);
}
);
width = 995;
}
);
unicode = 0068;
},
{
glyphname = i;
lastChange = "2020-01-03 10:10:32 +0000";
layers = (
{
backgroundImage = {
crop = "{{0, 0}, {1377, 655}}";
imagePath = "../../sources/Screen Shot 2019-12-10 at 11.19.38 PM.png";
transform = "{6.532, 0, 0, 6.532, -7060, -3379}";
};
hints = (
{
horizontal = 1;
origin = "{0, 3}";
target = "{1, 0}";
},
{
place = "{0, 155}";
}
);
layerId = "C80544D9-48F8-4DA0-91C0-E0123F10AF4A";
paths = (
{
closed = 1;
nodes = (
"155 0 LINE",
"155 500 LINE",
"0 500 LINE",
"0 0 LINE"
);
},
{
closed = 1;
nodes = (
"0 675 LINE",
"155 675 LINE",
"155 520 LINE",
"0 520 LINE"
);
}
);
width = 175;
},
{
hints = (
{
horizontal = 1;
origin = "{0, 3}";
target = "{1, 0}";
},
{
place = "{0, 40}";
}
);
layerId = "9FDCACD5-7DFA-4B53-9786-D575BF0C2E18";
paths = (
{
closed = 1;
nodes = (
"40 0 LINE",
"40 500 LINE",
"0 500 LINE",
"0 0 LINE"
);
},
{
closed = 1;
nodes = (
"0 675 LINE",
"40 675 LINE",
"40 635 LINE",
"0 635 LINE"
);
}
);
width = 240;
}
);
unicode = 0069;
},
{
glyphname = j;
lastChange = "2020-01-24 09:59:06 +0000";
layers = (
{
backgroundImage = {
crop = "{{0, 0}, {1377, 655}}";
imagePath = "../../sources/Screen Shot 2019-12-10 at 11.19.38 PM.png";
transform = "{6.532, 0, 0, 6.532, -7240, -3379}";
};
hints = (
{
horizontal = 1;
origin = "{0, 5}";
target = "{0, 4}";
},
{
horizontal = 1;
origin = "{1, 3}";
target = "{1, 2}";
},
{
place = "{0, 155}";
}
);
layerId = "C80544D9-48F8-4DA0-91C0-E0123F10AF4A";
paths = (
{
closed = 1;
nodes = (
"155 -176 LINE",
"155 500 LINE",
"0 500 LINE",
"0 -20 LINE",
"-350 -20 LINE",
"-350 -176 LINE"
);
},
{
closed = 1;
nodes = (
"155 520 LINE",
"155 675 LINE",
"0 675 LINE",
"0 520 LINE"
);
}
);
width = 175;
},
{
hints = (
{
horizontal = 1;
origin = "{0, 5}";
target = "{0, 4}";
},
{
horizontal = 1;
origin = "{1, 3}";
target = "{1, 2}";
},
{
place = "{0, 40}";
}
);
layerId = "9FDCACD5-7DFA-4B53-9786-D575BF0C2E18";
paths = (
{
closed = 1;
nodes = (
"40 -175 LINE",
"40 500 LINE",
"0 500 LINE",
"0 -135 LINE",
"-485 -135 LINE",
"-485 -175 LINE"
);
},
{
closed = 1;
nodes = (
"40 635 LINE",
"40 675 LINE",
"0 675 LINE",
"0 635 LINE"
);
}
);
width = 240;
}
);
unicode = 006A;
},
{
glyphname = k;
lastChange = "2020-01-25 01:33:58 +0000";
layers = (
{
hints = (
{
horizontal = 1;
origin = "{0, 14}";
target = "{0, 5}";
},
{
horizontal = 1;
origin = "{0, 1}";
target = "{0, 11}";
},
{
horizontal = 1;
origin = "{0, 7}";
target = "{0, 9}";
},
{
place = "{0, 155}";
}
);
layerId = "C80544D9-48F8-4DA0-91C0-E0123F10AF4A";
paths = (
{
closed = 1;
nodes = (
"155 0 LINE",
"155 175 LINE",
"411 175 LINE",
"700 0 LINE",
"855 0 LINE",
"855 80 LINE",
"576 250 LINE",
"853 418 LINE",
"853 500 LINE",
"698 500 LINE",
"411 330 LINE",
"155 330 LINE",
"155 675 LINE",
"0 675 LINE",
"0 0 LINE"
);
}
);
width = 875;
},
{
hints = (
{
horizontal = 1;
place = "{0, 30}";
},
{
horizontal = 1;
place = "{230, 40}";
},
{
horizontal = 1;
place = "{470, 30}";
},
{
place = "{0, 40}";
}
);
layerId = "9FDCACD5-7DFA-4B53-9786-D575BF0C2E18";
paths = (
{
closed = 1;
nodes = (
"40 0 LINE",
"40 230 LINE",
"401.867 230 LINE",
"775 0 LINE",
"795 0 LINE",
"795 30 LINE",
"441 250 LINE",
"795 470 LINE",
"795 500 LINE",
"775 500 LINE",
"400.259 270 LINE",
"40 270 LINE",
"40 675 LINE",
"0 675 LINE",
"0 0 LINE"
);
}
);
width = 995;
}
);
unicode = 006B;
},
{
glyphname = l;
lastChange = "2020-01-01 19:13:00 +0000";
layers = (
{
backgroundImage = {
crop = "{{0, 0}, {1377, 655}}";
imagePath = "../../sources/Screen Shot 2019-12-10 at 11.19.38 PM.png";
transform = "{6.532, 0, 0, 6.532, -1017, -2672}";
};
hints = (
{
horizontal = 1;
origin = "{0, 3}";
target = "{0, 2}";
},
{
place = "{0, 155}";
}
);
layerId = "C80544D9-48F8-4DA0-91C0-E0123F10AF4A";
paths = (
{
closed = 1;
nodes = (
"155 0 LINE",
"155 675 LINE",
"0 675 LINE",
"0 0 LINE"
);
}
);
width = 175;
},
{
hints = (
{
horizontal = 1;
origin = "{0, 3}";
target = "{0, 2}";
},
{
place = "{0, 40}";
}
);
layerId = "9FDCACD5-7DFA-4B53-9786-D575BF0C2E18";
paths = (
{
closed = 1;
nodes = (
"40 0 LINE",
"40 675 LINE",
"0 675 LINE",
"0 0 LINE"
);
}
);
width = 240;
}
);
unicode = 006C;
},
{
glyphname = lslash;
lastChange = "2020-01-24 06:02:49 +0000";
layers = (
{
layerId = "C80544D9-48F8-4DA0-91C0-E0123F10AF4A";
paths = (
{
closed = 1;
nodes = (
"77 179 LINE",
"92 189.563 LINE",
"92 0 LINE",
"247 0 LINE",
"247 298.718 LINE",
"361 379 LINE",
"361 500 LINE",
"261 500 LINE",
"247 490.023 LINE",
"247 675 LINE",
"92 675 LINE",
"92 379.563 LINE",
"0 314 LINE",
"0 179 LINE"
);
}
);
width = 381;
},
{
layerId = "9FDCACD5-7DFA-4B53-9786-D575BF0C2E18";
paths = (
{
closed = 1;
nodes = (
"-80 275 LINE",
"37 346 LINE",
"37 0 LINE",
"77 0 LINE",
"77 371 LINE",
"240 470 LINE",
"240 500 LINE",
"220 500 LINE",
"77 413 LINE",
"77 675 LINE",
"37 675 LINE",
"37 388 LINE",
"-100 305 LINE",
"-100 275 LINE"
);
}
);
width = 340;
}
);
unicode = 0142;
},
{
glyphname = m;
lastChange = "2020-01-25 01:34:03 +0000";
layers = (
{
hints = (
{
horizontal = 1;
origin = "{0, 1}";
target = "{0, 10}";
},
{
place = "{0, 155}";
},
{
place = "{350, 155}";
},
{
place = "{700, 155}";
}
);
layerId = "C80544D9-48F8-4DA0-91C0-E0123F10AF4A";
paths = (
{
closed = 1;
nodes = (
"155 0 LINE",
"155 345 LINE",
"350 345 LINE",
"350 0 LINE",
"505 0 LINE",
"505 345 LINE",
"700 345 LINE",
"700 0 LINE",
"855 0 LINE",
"855 500 LINE",
"0 500 LINE",
"0 0 LINE"
);
}
);
width = 875;
},
{
hints = (
{
horizontal = 1;
origin = "{0, 1}";
target = "{0, 10}";
},
{
place = "{0, 40}";
},
{
place = "{378, 40}";
},
{
place = "{755, 40}";
}
);
layerId = "9FDCACD5-7DFA-4B53-9786-D575BF0C2E18";
paths = (
{
closed = 1;
nodes = (
"40 0 LINE",
"40 460 LINE",
"378 460 LINE",
"378 0 LINE",
"418 0 LINE",
"418 460 LINE",
"755 460 LINE",
"755 0 LINE",
"795 0 LINE",
"795 500 LINE",
"0 500 LINE",
"0 0 LINE"
);
}
);
width = 995;
}
);
unicode = 006D;
},
{
glyphname = n;
lastChange = "2020-01-25 01:34:08 +0000";
layers = (
{
hints = (
{
horizontal = 1;
origin = "{0, 1}";
target = "{0, 6}";
},
{
place = "{0, 155}";
},
{
place = "{700, 155}";
}
);
layerId = "C80544D9-48F8-4DA0-91C0-E0123F10AF4A";
paths = (
{
closed = 1;
nodes = (
"155 0 LINE",
"155 345 LINE",
"700 345 LINE",
"700 0 LINE",
"855 0 LINE",
"855 500 LINE",
"0 500 LINE",
"0 0 LINE"
);
}
);
width = 875;
},
{
hints = (
{
horizontal = 1;
origin = "{0, 1}";
target = up;
type = BottomGhost;
},
{
place = "{0, 21}";
target = up;
type = BottomGhost;
},
{
place = "{755, 21}";
target = up;
type = BottomGhost;
}
);
layerId = "9FDCACD5-7DFA-4B53-9786-D575BF0C2E18";
paths = (
{
closed = 1;
nodes = (
"40 0 LINE",
"40 460 LINE",
"755 460 LINE",
"755 0 LINE",
"795 0 LINE",
"795 500 LINE",
"0 500 LINE",
"0 0 LINE"
);
}
);
width = 995;
}
);
unicode = 006E;
},
{
glyphname = o;
lastChange = "2020-01-25 01:31:59 +0000";
layers = (
{
hints = (
{
horizontal = 1;
origin = "{0, 3}";
target = "{1, 3}";
},
{
horizontal = 1;
origin = "{1, 0}";
target = "{0, 2}";
},
{
origin = "{0, 3}";
target = "{1, 3}";
},
{
place = "{700, 155}";
}
);
layerId = "C80544D9-48F8-4DA0-91C0-E0123F10AF4A";
paths = (
{
closed = 1;
nodes = (
"855 0 LINE",
"855 500 LINE",
"0 500 LINE",
"0 0 LINE"
);
},
{
closed = 1;
nodes = (
"155 345 LINE",
"700 345 LINE",
"700 155 LINE",
"155 155 LINE"
);
}
);
width = 875;
},
{
hints = (
{
horizontal = 1;
origin = "{0, 3}";
target = up;
type = BottomGhost;
},
{
horizontal = 1;
origin = "{1, 0}";
target = "{0, 2}";
},
{
origin = "{0, 3}";
target = "{1, 3}";
},
{
place = "{755, 40}";
}
);
layerId = "9FDCACD5-7DFA-4B53-9786-D575BF0C2E18";
paths = (
{
closed = 1;
nodes = (
"795 0 LINE",
"795 500 LINE",
"0 500 LINE",
"0 0 LINE"
);
},
{
closed = 1;
nodes = (
"40 460 LINE",
"755 460 LINE",
"755 40 LINE",
"40 40 LINE"
);
}
);
width = 995;
}
);
unicode = 006F;
},
{
glyphname = omacron;
lastChange = "2020-01-25 01:56:28 +0000";
layers = (
{
components = (
{
name = o;
}
);
layerId = "C80544D9-48F8-4DA0-91C0-E0123F10AF4A";
paths = (
{
closed = 1;
nodes = (
"696 521 LINE",
"696 631 LINE",
"156 631 LINE",
"156 522 LINE"
);
}
);
width = 875;
},
{
components = (
{
name = o;
}
);
layerId = "9FDCACD5-7DFA-4B53-9786-D575BF0C2E18";
paths = (
{
closed = 1;
nodes = (
"605 591 LINE",
"605 631 LINE",
"190 631 LINE",
"190 592 LINE"
);
}
);
width = 995;
}
);
unicode = 014D;
},
{
glyphname = oslash;
lastChange = "2020-01-25 01:56:33 +0000";
layers = (
{
layerId = "C80544D9-48F8-4DA0-91C0-E0123F10AF4A";
paths = (
{
closed = 1;
nodes = (
"855 0 LINE",
"855 500 LINE",
"0 500 LINE",
"0 0 LINE"
);
},
{
closed = 1;
nodes = (
"155 345 LINE",
"440.417 345 LINE",
"155 204.371 LINE"
);
},
{
closed = 1;
nodes = (
"695 296.773 LINE",
"695 155 LINE",
"405.027 155 LINE"
);
}
);
width = 875;
},
{
layerId = "9FDCACD5-7DFA-4B53-9786-D575BF0C2E18";
paths = (
{
closed = 1;
nodes = (
"795 0 LINE",
"795 500 LINE",
"0 500 LINE",
"0 0 LINE"
);
},
{
closed = 1;
nodes = (
"40 460 LINE",
"708 460 LINE",
"40 63.729 LINE"
);
},
{
closed = 1;
nodes = (
"755 436.204 LINE",
"755 40 LINE",
"89 40 LINE"
);
}
);
width = 995;
}
);
unicode = 00F8;
},
{
glyphname = oe;
lastChange = "2020-01-25 01:56:52 +0000";
layers = (
{
layerId = "C80544D9-48F8-4DA0-91C0-E0123F10AF4A";
paths = (
{
closed = 1;
nodes = (
"855 0 LINE",
"855 155 LINE",
"505 155 LINE",
"505 175 LINE",
"855 175 LINE",
"855 500 LINE",
"0 500 LINE",
"0 0 LINE"
);
},
{
closed = 1;
nodes = (
"155 345 LINE",
"350 345 LINE",
"350 155 LINE",
"155 155 LINE"
);
},
{
closed = 1;
nodes = (
"505 345 LINE",
"702 345 LINE",
"702 325 LINE",
"505 325 LINE"
);
}
);
width = 875;
},
{
layerId = "9FDCACD5-7DFA-4B53-9786-D575BF0C2E18";
paths = (
{
closed = 1;
nodes = (
"795 0 LINE",
"795 40 LINE",
"418 40 LINE",
"418 230 LINE",
"795 230 LINE",
"795 500 LINE",
"0 500 LINE",
"0 0 LINE"
);
},
{
closed = 1;
nodes = (
"40 460 LINE",
"378 460 LINE",
"378 40 LINE",
"40 40 LINE"
);
},
{
closed = 1;
nodes = (
"418 460 LINE",
"755 460 LINE",
"755 270 LINE",
"418 270 LINE"
);
}
);
width = 995;
}
);
unicode = 0153;
},
{
glyphname = p;
lastChange = "2020-01-25 01:34:14 +0000";
layers = (
{
hints = (
{
horizontal = 1;
origin = "{0, 1}";
target = "{1, 3}";
},
{
horizontal = 1;
origin = "{1, 0}";
target = "{0, 4}";
},
{
origin = "{0, 1}";
target = "{1, 3}";
},
{
place = "{700, 155}";
}
);
layerId = "C80544D9-48F8-4DA0-91C0-E0123F10AF4A";
paths = (
{
closed = 1;
nodes = (
"155 -175 LINE",
"155 0 LINE",
"855 0 LINE",
"855 500 LINE",
"0 500 LINE",
"0 -175 LINE"
);
},
{
closed = 1;
nodes = (
"155 345 LINE",
"700 345 LINE",
"700 155 LINE",
"155 155 LINE"
);
}
);
width = 875;
},
{
hints = (
{
horizontal = 1;
origin = "{0, 1}";
target = "{1, 3}";
},
{
horizontal = 1;
origin = "{1, 0}";
target = "{0, 4}";
},
{
origin = "{0, 1}";
target = "{1, 3}";
},
{
place = "{755, 40}";
}
);
layerId = "9FDCACD5-7DFA-4B53-9786-D575BF0C2E18";
paths = (
{
closed = 1;
nodes = (
"40 -175 LINE",
"40 0 LINE",
"795 0 LINE",
"795 500 LINE",
"0 500 LINE",
"0 -175 LINE"
);
},
{
closed = 1;
nodes = (
"40 460 LINE",
"755 460 LINE",
"755 40 LINE",
"40 40 LINE"
);
}
);
width = 995;
}
);
unicode = 0070;
},
{
glyphname = thorn;
lastChange = "2020-01-25 01:56:57 +0000";
layers = (
{
layerId = "C80544D9-48F8-4DA0-91C0-E0123F10AF4A";
paths = (
{
closed = 1;
nodes = (
"155 -175 LINE",
"155 0 LINE",
"855 0 LINE",
"855 500 LINE",
"155 500 LINE",
"155 675 LINE",
"0 675 LINE",
"0 -175 LINE"
);
},
{
closed = 1;
nodes = (
"155 343 LINE",
"700 343 LINE",
"700 155 LINE",
"155 155 LINE"
);
}
);
width = 875;
},
{
layerId = "9FDCACD5-7DFA-4B53-9786-D575BF0C2E18";
paths = (
{
closed = 1;
nodes = (
"40 -175 LINE",
"40 0 LINE",
"795 0 LINE",
"795 500 LINE",
"40 500 LINE",
"40 675 LINE",
"0 675 LINE",
"0 -175 LINE"
);
},
{
closed = 1;
nodes = (
"40 460 LINE",
"755 460 LINE",
"755 40 LINE",
"40 40 LINE"
);
}
);
width = 995;
}
);
unicode = 00FE;
},
{
glyphname = q;
lastChange = "2020-01-25 01:34:18 +0000";
layers = (
{
hints = (
{
horizontal = 1;
origin = "{0, 5}";
target = "{1, 3}";
},
{
horizontal = 1;
origin = "{1, 0}";
target = "{0, 4}";
},
{
origin = "{0, 5}";
target = "{1, 3}";
},
{
place = "{700, 155}";
}
);
layerId = "C80544D9-48F8-4DA0-91C0-E0123F10AF4A";
paths = (
{
closed = 1;
nodes = (
"700 0 LINE",
"700 -175 LINE",
"855 -175 LINE",
"855 500 LINE",
"0 500 LINE",
"0 0 LINE"
);
},
{
closed = 1;
nodes = (
"155 345 LINE",
"700 345 LINE",
"700 155 LINE",
"155 155 LINE"
);
}
);
width = 875;
},
{
hints = (
{
horizontal = 1;
origin = "{0, 5}";
target = up;
type = BottomGhost;
},
{
horizontal = 1;
origin = "{1, 0}";
target = "{0, 4}";
},
{
origin = "{0, 5}";
target = "{1, 3}";
},
{
place = "{755, 40}";
}
);
layerId = "9FDCACD5-7DFA-4B53-9786-D575BF0C2E18";
paths = (
{
closed = 1;
nodes = (
"755 0 LINE",
"755 -175 LINE",
"795 -175 LINE",
"795 500 LINE",
"0 500 LINE",
"0 0 LINE"
);
},
{
closed = 1;
nodes = (
"40 460 LINE",
"755 460 LINE",
"755 40 LINE",
"40 40 LINE"
);
}
);
width = 995;
}
);
unicode = 0071;
},
{
glyphname = r;
lastChange = "2020-01-25 01:34:24 +0000";
layers = (
{
hints = (
{
horizontal = 1;
origin = "{0, 2}";
target = "{0, 8}";
},
{
place = "{0, 155}";
}
);
layerId = "C80544D9-48F8-4DA0-91C0-E0123F10AF4A";
paths = (
{
closed = 1;
nodes = (
"155 0 LINE",
"155 201 LINE",
"443 344 LINE",
"855 344 LINE",
"855 500 LINE",
"407 500 LINE",
"155 371 LINE",
"155 500 LINE",
"0 500 LINE",
"0 0 LINE"
);
}
);
width = 875;
},
{
hints = (
{
horizontal = 1;
place = "{459.5, 21}";
target = up;
type = BottomGhost;
},
{
place = "{0, 40}";
}
);
layerId = "9FDCACD5-7DFA-4B53-9786-D575BF0C2E18";
paths = (
{
closed = 1;
nodes = (
"40 0 LINE",
"40 275 LINE",
"394 459 LINE",
"795 460 LINE",
"795 500 LINE",
"390 500 LINE",
"40 315 LINE",
"40 500 LINE",
"0 500 LINE",
"0 0 LINE"
);
}
);
width = 985;
}
);
unicode = 0072;
},
{
glyphname = s;
lastChange = "2020-01-25 01:34:30 +0000";
layers = (
{
backgroundImage = {
crop = "{{0, 0}, {1377, 655}}";
imagePath = "../../sources/Screen Shot 2019-12-10 at 11.19.38 PM.png";
transform = "{6.532, 0, 0, 6.532, -167, -1955}";
};
hints = (
{
horizontal = 1;
origin = "{0, 11}";
target = "{0, 10}";
},
{
horizontal = 1;
origin = "{0, 3}";
target = "{0, 6}";
},
{
horizontal = 1;
origin = "{0, 7}";
target = "{0, 2}";
},
{
origin = "{0, 11}";
target = "{0, 10}";
},
{
place = "{700, 155}";
}
);
layerId = "C80544D9-48F8-4DA0-91C0-E0123F10AF4A";
paths = (
{
closed = 1;
nodes = (
"855 0 LINE",
"855 325 LINE",
"155 325 LINE",
"155 345 LINE",
"855 345 LINE",
"855 500 LINE",
"0 500 LINE",
"0 175 LINE",
"700 175 LINE",
"700 155 LINE",
"0 155 LINE",
"0 0 LINE"
);
}
);
width = 875;
},
{
hints = (
{
horizontal = 1;
origin = "{0, 11}";
target = up;
type = BottomGhost;
},
{
horizontal = 1;
origin = "{0, 7}";
target = up;
type = BottomGhost;
},
{
horizontal = 1;
origin = "{0, 3}";
target = up;
type = BottomGhost;
},
{
origin = "{0, 11}";
target = "{0, 10}";
},
{
place = "{755, 40}";
}
);
layerId = "9FDCACD5-7DFA-4B53-9786-D575BF0C2E18";
paths = (
{
closed = 1;
nodes = (
"795 0 LINE",
"795 270 LINE",
"40 270 LINE",
"40 460 LINE",
"795 460 LINE",
"795 500 LINE",
"0 500 LINE",
"0 230 LINE",
"755 230 LINE",
"755 40 LINE",
"0 40 LINE",
"0 0 LINE"
);
}
);
width = 995;
}
);
unicode = 0073;
},
{
glyphname = germandbls;
lastChange = "2020-01-20 07:35:24 +0000";
layers = (
{
layerId = "C80544D9-48F8-4DA0-91C0-E0123F10AF4A";
paths = (
{
closed = 1;
nodes = (
"155 0 LINE",
"155 520 LINE",
"555 520 LINE",
"555 500 LINE",
"215 500 LINE",
"215 332 LINE",
"615 332 LINE",
"615 155 LINE",
"216 155 LINE",
"216 0 LINE",
"770 0 LINE",
"770 500 LINE",
"654 500 LINE",
"654 520 LINE",
"705 520 LINE",
"705 675 LINE",
"0 675 LINE",
"0 0 LINE"
);
}
);
width = 790;
},
{
layerId = "9FDCACD5-7DFA-4B53-9786-D575BF0C2E18";
paths = (
{
closed = 1;
nodes = (
"40 0 LINE",
"40 635 LINE",
"580 635 LINE",
"580 500 LINE",
"245 500 LINE",
"245 458 LINE",
"755 458 LINE",
"755 40 LINE",
"237 40 LINE",
"237 0 LINE",
"795 0 LINE",
"795 500 LINE",
"600 500 LINE",
"600 517 LINE",
"620 517 LINE",
"620 675 LINE",
"0 675 LINE",
"0 0 LINE"
);
}
);
width = 995;
}
);
unicode = 00DF;
},
{
glyphname = t;
lastChange = "2020-01-25 01:34:34 +0000";
layers = (
{
hints = (
{
horizontal = 1;
origin = "{0, 9}";
target = "{0, 2}";
},
{
horizontal = 1;
origin = "{0, 3}";
target = "{0, 6}";
},
{
origin = "{0, 9}";
target = "{0, 2}";
}
);
layerId = "C80544D9-48F8-4DA0-91C0-E0123F10AF4A";
paths = (
{
closed = 1;
nodes = (
"855 0 LINE",
"855 155 LINE",
"155 155 LINE",
"155 345 LINE",
"855 345 LINE",
"855 500 LINE",
"155 500 LINE",
"155 675 LINE",
"0 675 LINE",
"0 0 LINE"
);
}
);
width = 875;
},
{
hints = (
{
horizontal = 1;
origin = "{0, 9}";
target = up;
type = BottomGhost;
},
{
horizontal = 1;
origin = "{0, 3}";
target = up;
type = BottomGhost;
},
{
origin = "{0, 9}";
target = "{0, 2}";
}
);
layerId = "9FDCACD5-7DFA-4B53-9786-D575BF0C2E18";
paths = (
{
closed = 1;
nodes = (
"795 0 LINE",
"795 40 LINE",
"40 40 LINE",
"40 460 LINE",
"795 460 LINE",
"795 500 LINE",
"40 500 LINE",
"40 675 LINE",
"0 675 LINE",
"0 0 LINE"
);
}
);
width = 995;
}
);
unicode = 0074;
},
{
glyphname = u;
lastChange = "2020-01-25 01:35:14 +0000";
layers = (
{
hints = (
{
horizontal = 1;
origin = "{0, 7}";
target = "{0, 4}";
},
{
origin = "{0, 7}";
target = "{0, 4}";
},
{
place = "{700, 155}";
}
);
layerId = "C80544D9-48F8-4DA0-91C0-E0123F10AF4A";
paths = (
{
closed = 1;
nodes = (
"855 0 LINE",
"855 500 LINE",
"700 500 LINE",
"700 155 LINE",
"155 155 LINE",
"155 500 LINE",
"0 500 LINE",
"0 0 LINE"
);
}
);
width = 875;
},
{
hints = (
{
horizontal = 1;
origin = "{0, 7}";
target = "{0, 4}";
},
{
origin = "{0, 7}";
target = "{0, 4}";
},
{
place = "{755, 40}";
}
);
layerId = "9FDCACD5-7DFA-4B53-9786-D575BF0C2E18";
paths = (
{
closed = 1;
nodes = (
"795 0 LINE",
"795 500 LINE",
"755 500 LINE",
"755 40 LINE",
"40 40 LINE",
"40 500 LINE",
"0 500 LINE",
"0 0 LINE"
);
}
);
width = 995;
}
);
unicode = 0075;
},
{
glyphname = v;
lastChange = "2020-01-25 01:35:18 +0000";
layers = (
{
hints = (
{
horizontal = 1;
origin = "{0, 9}";
target = "{0, 6}";
},
{
origin = "{0, 9}";
target = "{0, 6}";
},
{
place = "{701, 155}";
}
);
layerId = "C80544D9-48F8-4DA0-91C0-E0123F10AF4A";
paths = (
{
closed = 1;
nodes = (
"467 0 LINE",
"856 196 LINE",
"856 500 LINE",
"701 500 LINE",
"701 302 LINE",
"411 155 LINE",
"155 155 LINE",
"155 500 LINE",
"0 500 LINE",
"0 0 LINE"
);
}
);
width = 876;
},
{
hints = (
{
horizontal = 1;
origin = "{0, 9}";
target = "{0, 6}";
},
{
origin = "{0, 9}";
target = "{0, 6}";
},
{
place = "{755, 40}";
}
);
layerId = "9FDCACD5-7DFA-4B53-9786-D575BF0C2E18";
paths = (
{
closed = 1;
nodes = (
"403 0 LINE",
"795 240 LINE",
"795 500 LINE",
"755 500 LINE",
"755 259 LINE",
"392 40 LINE",
"40 40 LINE",
"40 500 LINE",
"0 500 LINE",
"0 0 LINE"
);
}
);
width = 995;
}
);
unicode = 0076;
},
{
glyphname = w;
lastChange = "2020-01-25 01:35:21 +0000";
layers = (
{
hints = (
{
horizontal = 1;
origin = "{0, 11}";
target = "{0, 8}";
},
{
origin = "{0, 11}";
target = "{0, 8}";
},
{
place = "{350, 155}";
},
{
place = "{700, 155}";
}
);
layerId = "C80544D9-48F8-4DA0-91C0-E0123F10AF4A";
paths = (
{
closed = 1;
nodes = (
"855 0 LINE",
"855 500 LINE",
"700 500 LINE",
"700 155 LINE",
"505 155 LINE",
"505 500 LINE",
"350 500 LINE",
"350 155 LINE",
"155 155 LINE",
"155 500 LINE",
"0 500 LINE",
"0 0 LINE"
);
}
);
width = 873;
},
{
hints = (
{
horizontal = 1;
origin = "{0, 11}";
target = "{0, 8}";
},
{
origin = "{0, 11}";
target = "{0, 8}";
},
{
place = "{378, 40}";
},
{
place = "{755, 40}";
}
);
layerId = "9FDCACD5-7DFA-4B53-9786-D575BF0C2E18";
paths = (
{
closed = 1;
nodes = (
"795 0 LINE",
"795 500 LINE",
"755 500 LINE",
"755 40 LINE",
"418 40 LINE",
"418 500 LINE",
"378 500 LINE",
"378 40 LINE",
"40 40 LINE",
"40 500 LINE",
"0 500 LINE",
"0 0 LINE"
);
}
);
width = 995;
}
);
unicode = 0077;
},
{
glyphname = x;
lastChange = "2020-01-25 01:35:25 +0000";
layers = (
{
hints = (
{
horizontal = 1;
origin = "{0, 15}";
target = "{0, 11}";
},
{
place = "{0, 855}";
},
{
origin = "{0, 11}";
target = "{0, 10}";
},
{
origin = "{0, 15}";
target = "{0, 0}";
},
{
origin = "{0, 2}";
target = "{0, 4}";
},
{
origin = "{0, 2}";
target = "{0, 3}";
},
{
horizontal = 1;
origin = "{0, 15}";
target = "{0, 14}";
},
{
horizontal = 1;
origin = "{0, 3}";
target = "{0, 4}";
},
{
horizontal = 1;
origin = "{0, 11}";
target = "{0, 12}";
},
{
horizontal = 1;
origin = "{0, 12}";
target = "{0, 10}";
}
);
layerId = "C80544D9-48F8-4DA0-91C0-E0123F10AF4A";
paths = (
{
closed = 1;
nodes = (
"100 0 LINE",
"428 166 LINE",
"755 0 LINE",
"855 0 LINE",
"855 128 LINE",
"604 252 LINE",
"855 375 LINE",
"855 500 LINE",
"755 500 LINE",
"428 339 LINE",
"100 500 LINE",
"0 500 LINE",
"0 375 LINE",
"251 252 LINE",
"0 128 LINE",
"0 0 LINE"
);
}
);
width = 875;
},
{
hints = (
{
horizontal = 1;
origin = "{0, 15}";
target = up;
type = BottomGhost;
},
{
horizontal = 1;
origin = "{0, 12}";
target = "{0, 11}";
},
{
place = "{0, 795}";
},
{
origin = "{0, 11}";
target = "{0, 10}";
},
{
origin = "{0, 8}";
target = "{0, 7}";
},
{
horizontal = 1;
origin = "{0, 11}";
target = "{0, 12}";
},
{
horizontal = 1;
origin = "{0, 6}";
target = "{0, 7}";
},
{
horizontal = 1;
origin = "{0, 3}";
target = "{0, 4}";
},
{
horizontal = 1;
origin = "{0, 14}";
target = down;
type = TopGhost;
},
{
origin = "{0, 15}";
target = "{0, 0}";
},
{
origin = "{0, 2}";
target = "{0, 3}";
}
);
layerId = "9FDCACD5-7DFA-4B53-9786-D575BF0C2E18";
paths = (
{
closed = 1;
nodes = (
"20 0 LINE",
"397 233 LINE",
"775 0 LINE",
"795 0 LINE",
"795 30 LINE",
"441 250 LINE",
"795 470 LINE",
"795 500 LINE",
"775 500 LINE",
"397 268 LINE",
"20 500 LINE",
"0 500 LINE",
"0 470 LINE",
"353 250 LINE",
"0 30 LINE",
"0 0 LINE"
);
}
);
width = 995;
}
);
unicode = 0078;
},
{
glyphname = y;
lastChange = "2020-01-25 01:35:29 +0000";
layers = (
{
hints = (
{
horizontal = 1;
origin = "{0, 11}";
target = "{0, 10}";
},
{
horizontal = 1;
origin = "{0, 7}";
target = "{0, 4}";
},
{
place = "{0, 155}";
},
{
place = "{700, 155}";
}
);
layerId = "C80544D9-48F8-4DA0-91C0-E0123F10AF4A";
paths = (
{
closed = 1;
nodes = (
"855 -175 LINE",
"855 500 LINE",
"700 500 LINE",
"700 152 LINE",
"155 152 LINE",
"155 500 LINE",
"0 500 LINE",
"0 0 LINE",
"702 0 LINE",
"702 -20 LINE",
"0 -20 LINE",
"0 -175 LINE"
);
}
);
width = 875;
},
{
hints = (
{
horizontal = 1;
origin = "{0, 11}";
target = up;
type = BottomGhost;
},
{
horizontal = 1;
origin = "{0, 7}";
target = up;
type = BottomGhost;
},
{
origin = "{0, 7}";
target = "{0, 4}";
},
{
place = "{755, 40}";
}
);
layerId = "9FDCACD5-7DFA-4B53-9786-D575BF0C2E18";
paths = (
{
closed = 1;
nodes = (
"795 -175 LINE",
"795 500 LINE",
"755 500 LINE",
"755 40 LINE",
"40 40 LINE",
"40 500 LINE",
"0 500 LINE",
"0 0 LINE",
"755 0 LINE",
"755 -135 LINE",
"0 -135 LINE",
"0 -175 LINE"
);
}
);
width = 995;
}
);
unicode = 0079;
},
{
glyphname = z;
lastChange = "2020-01-25 01:35:33 +0000";
layers = (
{
hints = (
{
horizontal = 1;
origin = "{0, 9}";
target = "{0, 2}";
},
{
horizontal = 1;
origin = "{0, 6}";
target = "{0, 5}";
},
{
place = "{0, 855}";
}
);
layerId = "C80544D9-48F8-4DA0-91C0-E0123F10AF4A";
paths = (
{
closed = 1;
nodes = (
"855 0 LINE",
"855 155 LINE",
"421 155 LINE",
"855 369 LINE",
"855 500 LINE",
"0 500 LINE",
"0 345 LINE",
"443 345 LINE",
"0 123 LINE",
"0 0 LINE"
);
}
);
width = 875;
},
{
hints = (
{
horizontal = 1;
origin = "{0, 9}";
target = "{0, 8}";
},
{
horizontal = 1;
origin = "{0, 6}";
target = "{0, 5}";
},
{
place = "{0, 795}";
}
);
layerId = "9FDCACD5-7DFA-4B53-9786-D575BF0C2E18";
paths = (
{
closed = 1;
nodes = (
"795 0 LINE",
"795 40 LINE",
"89 40 LINE",
"795 460 LINE",
"795 500 LINE",
"0 500 LINE",
"0 460 LINE",
"708 460 LINE",
"0 40 LINE",
"0 0 LINE"
);
}
);
width = 995;
}
);
unicode = 007A;
},
{
glyphname = j.ss01;
lastChange = "2020-01-05 06:23:52 +0000";
layers = (
{
layerId = "C80544D9-48F8-4DA0-91C0-E0123F10AF4A";
paths = (
{
closed = 1;
nodes = (
"155 -176 LINE",
"155 500 LINE",
"0 500 LINE",
"0 -176 LINE"
);
},
{
closed = 1;
nodes = (
"155 520 LINE",
"155 675 LINE",
"0 675 LINE",
"0 520 LINE"
);
}
);
width = 175;
},
{
layerId = "9FDCACD5-7DFA-4B53-9786-D575BF0C2E18";
paths = (
{
closed = 1;
nodes = (
"40 -175 LINE",
"40 500 LINE",
"0 500 LINE",
"0 -175 LINE"
);
},
{
closed = 1;
nodes = (
"40 635 LINE",
"40 675 LINE",
"0 675 LINE",
"0 635 LINE"
);
}
);
width = 240;
}
);
},
{
glyphname = n.ss01;
lastChange = "2020-01-25 01:57:29 +0000";
layers = (
{
layerId = "C80544D9-48F8-4DA0-91C0-E0123F10AF4A";
paths = (
{
closed = 1;
nodes = (
"155 0 LINE",
"155 201 LINE",
"444 345 LINE",
"700 345 LINE",
"700 0 LINE",
"855 0 LINE",
"855 500 LINE",
"408 500 LINE",
"155 371 LINE",
"155 500 LINE",
"0 500 LINE",
"0 0 LINE"
);
}
);
width = 875;
},
{
layerId = "9FDCACD5-7DFA-4B53-9786-D575BF0C2E18";
paths = (
{
closed = 1;
nodes = (
"40 0 LINE",
"40 275 LINE",
"394 459 LINE",
"755 459.9 LINE",
"755 0 LINE",
"795 0 LINE",
"795 500 LINE",
"390 500 LINE",
"40 315 LINE",
"40 500 LINE",
"0 500 LINE",
"0 0 LINE"
);
}
);
width = 995;
}
);
},
{
glyphname = u.ss01;
lastChange = "2020-01-25 01:57:34 +0000";
layers = (
{
layerId = "C80544D9-48F8-4DA0-91C0-E0123F10AF4A";
paths = (
{
closed = 1;
nodes = (
"447 0 LINE",
"700 129 LINE",
"700 0 LINE",
"855 0 LINE",
"855 500 LINE",
"700 500 LINE",
"700 299 LINE",
"411 155 LINE",
"155 155 LINE",
"155 500 LINE",
"0 500 LINE",
"0 0 LINE"
);
}
);
width = 875;
},
{
layerId = "9FDCACD5-7DFA-4B53-9786-D575BF0C2E18";
paths = (
{
closed = 1;
nodes = (
"403 0 LINE",
"755 215.51 LINE",
"755 0 LINE",
"795 0 LINE",
"795 500 LINE",
"755 500 LINE",
"755 259 LINE",
"392 40 LINE",
"40 40 LINE",
"40 500 LINE",
"0 500 LINE",
"0 0 LINE"
);
}
);
width = 995;
}
);
},
{
glyphname = y.ss01;
lastChange = "2020-01-25 01:58:07 +0000";
layers = (
{
layerId = "C80544D9-48F8-4DA0-91C0-E0123F10AF4A";
paths = (
{
closed = 1;
nodes = (
"855 0 LINE",
"855 500 LINE",
"700 500 LINE",
"700 327 LINE",
"155 327 LINE",
"155 500 LINE",
"0 500 LINE",
"0 175 LINE",
"702 175 LINE",
"702 155 LINE",
"0 155 LINE",
"0 0 LINE"
);
}
);
width = 875;
},
{
layerId = "9FDCACD5-7DFA-4B53-9786-D575BF0C2E18";
paths = (
{
closed = 1;
nodes = (
"795 0 LINE",
"795 500 LINE",
"755 500 LINE",
"755 215 LINE",
"40 215 LINE",
"40 500 LINE",
"0 500 LINE",
"0 175 LINE",
"755 175 LINE",
"755 40 LINE",
"0 40 LINE",
"0 0 LINE"
);
}
);
width = 995;
}
);
},
{
glyphname = "Be-cy";
lastChange = "2020-01-09 18:36:39 +0000";
layers = (
{
layerId = "C80544D9-48F8-4DA0-91C0-E0123F10AF4A";
paths = (
{
closed = 1;
nodes = (
"855 0 LINE",
"855 675 LINE",
"250 675 LINE",
"288 694 LINE",
"855 694 LINE",
"855 850 LINE",
"252 850 LINE",
"0 721 LINE",
"0 0 LINE"
);
},
{
closed = 1;
nodes = (
"155 500 LINE",
"700 500 LINE",
"700 155 LINE",
"155 155 LINE"
);
}
);
width = 875;
},
{
layerId = "9FDCACD5-7DFA-4B53-9786-D575BF0C2E18";
paths = (
{
closed = 1;
nodes = (
"795 0 LINE",
"795 675 LINE",
"73.615 675 LINE",
"408 864 LINE",
"795 865 LINE",
"795 905 LINE",
"392 905 LINE",
"0 675 LINE",
"0 0 LINE"
);
},
{
closed = 1;
nodes = (
"40 635 LINE",
"755 635 LINE",
"755 40 LINE",
"40 40 LINE"
);
}
);
width = 995;
}
);
unicode = 0411;
},
{
glyphname = "Ge-cy";
lastChange = "2020-01-25 01:45:39 +0000";
layers = (
{
layerId = "C80544D9-48F8-4DA0-91C0-E0123F10AF4A";
paths = (
{
closed = 1;
nodes = (
"155 0 LINE",
"155 520 LINE",
"855 520 LINE",
"855 675 LINE",
"0 675 LINE",
"0 0 LINE"
);
}
);
width = 875;
},
{
layerId = "9FDCACD5-7DFA-4B53-9786-D575BF0C2E18";
paths = (
{
closed = 1;
nodes = (
"40 0 LINE",
"40 635 LINE",
"795 635 LINE",
"795 675 LINE",
"0 675 LINE",
"0 0 LINE"
);
}
);
width = 995;
}
);
unicode = 0413;
},
{
glyphname = "De-cy";
lastChange = "2020-01-12 08:58:51 +0000";
layers = (
{
layerId = "C80544D9-48F8-4DA0-91C0-E0123F10AF4A";
paths = (
{
closed = 1;
nodes = (
"155 -175 LINE",
"155 0 LINE",
"700 0 LINE",
"700 -175 LINE",
"855 -175 LINE",
"855 155 LINE",
"700 155 LINE",
"700 675 LINE",
"155 675 LINE",
"155 359.609 LINE",
"0 283 LINE",
"0 -175 LINE"
);
},
{
closed = 1;
nodes = (
"155 187.595 LINE",
"310 263 LINE",
"310 520 LINE",
"545 520 LINE",
"545 155 LINE",
"155 155 LINE"
);
}
);
width = 875;
},
{
layerId = "9FDCACD5-7DFA-4B53-9786-D575BF0C2E18";
paths = (
{
closed = 1;
nodes = (
"40 -190 LINE",
"40 0 LINE",
"945 0 LINE",
"945 -190 LINE",
"985 -190 LINE",
"985 40 LINE",
"795 40 LINE",
"795 675 LINE",
"278 675 LINE",
"278 347 LINE",
"0 180 LINE",
"0 -190 LINE"
);
},
{
closed = 1;
nodes = (
"40 162 LINE",
"318 328 LINE",
"318 635 LINE",
"755 635 LINE",
"755 40 LINE",
"40 40 LINE"
);
}
);
width = 1185;
}
);
unicode = 0414;
},
{
glyphname = "Zhe-cy";
lastChange = "2020-01-09 18:53:57 +0000";
layers = (
{
layerId = "C80544D9-48F8-4DA0-91C0-E0123F10AF4A";
paths = (
{
closed = 1;
nodes = (
"100 0 LINE",
"350 178.354 LINE",
"350 0 LINE",
"505 0 LINE",
"505 178.899 LINE",
"755 0 LINE",
"855 0 LINE",
"855 135 LINE",
"572 338 LINE",
"855 540 LINE",
"855 675 LINE",
"755 675 LINE",
"505 496.101 LINE",
"505 675 LINE",
"350 675 LINE",
"350 496.646 LINE",
"100 675 LINE",
"0 675 LINE",
"0 540 LINE",
"283 338 LINE",
"0 135 LINE",
"0 0 LINE"
);
}
);
width = 875;
},
{
layerId = "9FDCACD5-7DFA-4B53-9786-D575BF0C2E18";
paths = (
{
closed = 1;
nodes = (
"22 0 LINE",
"377 291.742 LINE",
"377 0 LINE",
"417 0 LINE",
"417 293.344 LINE",
"773 0 LINE",
"795 0 LINE",
"795 40 LINE",
"432 337 LINE",
"795 636 LINE",
"795 675 LINE",
"775 675 LINE",
"417 381.573 LINE",
"417 675 LINE",
"377 675 LINE",
"377 383.167 LINE",
"20 675 LINE",
"0 675 LINE",
"0 636 LINE",
"363 337 LINE",
"0 40 LINE",
"0 0 LINE"
);
}
);
width = 995;
}
);
unicode = 0416;
},
{
glyphname = "Ze-cy";
lastChange = "2020-01-09 18:54:15 +0000";
layers = (
{
layerId = "C80544D9-48F8-4DA0-91C0-E0123F10AF4A";
paths = (
{
closed = 1;
nodes = (
"855 0 LINE",
"855 675 LINE",
"0 675 LINE",
"0 520 LINE",
"699 520 LINE",
"699 500 LINE",
"0 500 LINE",
"0 350 LINE",
"699 350 LINE",
"699 155 LINE",
"0 155 LINE",
"0 0 LINE"
);
}
);
width = 875;
},
{
layerId = "9FDCACD5-7DFA-4B53-9786-D575BF0C2E18";
paths = (
{
closed = 1;
nodes = (
"795 0 LINE",
"795 675 LINE",
"0 675 LINE",
"0 635 LINE",
"755 635 LINE",
"755 445 LINE",
"0 445 LINE",
"0 405 LINE",
"755 405 LINE",
"755 40 LINE",
"0 40 LINE",
"0 0 LINE"
);
}
);
width = 995;
}
);
unicode = 0417;
},
{
glyphname = "Ii-cy";
lastChange = "2020-01-09 18:54:33 +0000";
layers = (
{
layerId = "C80544D9-48F8-4DA0-91C0-E0123F10AF4A";
paths = (
{
closed = 1;
nodes = (
"855 675 LINE",
"700 675 LINE",
"155 235 LINE",
"155 674 LINE",
"0 674 LINE",
"0 -1 LINE",
"155 -1 LINE",
"699 440 LINE",
"700 0 LINE",
"855 0 LINE"
);
}
);
width = 875;
},
{
layerId = "9FDCACD5-7DFA-4B53-9786-D575BF0C2E18";
paths = (
{
closed = 1;
nodes = (
"795 675 LINE",
"773 675 LINE",
"40 72 LINE",
"40 675 LINE",
"0 675 LINE",
"0 0 LINE",
"20 0 LINE",
"755 602 LINE",
"755 0 LINE",
"795 0 LINE"
);
}
);
width = 995;
}
);
unicode = 0418;
},
{
glyphname = "Iishort-cy";
lastChange = "2020-01-12 08:38:54 +0000";
layers = (
{
layerId = "C80544D9-48F8-4DA0-91C0-E0123F10AF4A";
paths = (
{
closed = 1;
nodes = (
"855 675 LINE",
"700 675 LINE",
"155 235 LINE",
"155 674 LINE",
"0 674 LINE",
"0 -1 LINE",
"155 -1 LINE",
"699 440 LINE",
"700 0 LINE",
"855 0 LINE"
);
},
{
closed = 1;
nodes = (
"660 714 LINE",
"660 829 LINE",
"600 829 LINE",
"600 775 LINE",
"255 775 LINE",
"255 829 LINE",
"195 829 LINE",
"195 714 LINE"
);
}
);
width = 875;
},
{
layerId = "9FDCACD5-7DFA-4B53-9786-D575BF0C2E18";
paths = (
{
closed = 1;
nodes = (
"795 675 LINE",
"773 675 LINE",
"40 72 LINE",
"40 675 LINE",
"0 675 LINE",
"0 0 LINE",
"20 0 LINE",
"755 602 LINE",
"755 0 LINE",
"795 0 LINE"
);
},
{
closed = 1;
nodes = (
"630 714 LINE",
"630 829 LINE",
"590 829 LINE",
"590 755 LINE",
"205 755 LINE",
"205 829 LINE",
"165 829 LINE",
"165 714 LINE"
);
}
);
width = 995;
}
);
unicode = 0419;
},
{
glyphname = "Ka-cy";
lastChange = "2020-01-09 18:55:35 +0000";
layers = (
{
layerId = "C80544D9-48F8-4DA0-91C0-E0123F10AF4A";
paths = (
{
closed = 1;
nodes = (
"155 0 LINE",
"155 350 LINE",
"411 350 LINE",
"700 175 LINE",
"700 0 LINE",
"855 0 LINE",
"855 255 LINE",
"576 425 LINE",
"853 593 LINE",
"853 675 LINE",
"698 675 LINE",
"411 505 LINE",
"155 505 LINE",
"155 675 LINE",
"0 675 LINE",
"0 0 LINE"
);
}
);
width = 875;
},
{
layerId = "9FDCACD5-7DFA-4B53-9786-D575BF0C2E18";
paths = (
{
closed = 1;
nodes = (
"40 0 LINE",
"40 405 LINE",
"388 405 LINE",
"755 185.753 LINE",
"755 0 LINE",
"795 0 LINE",
"795 209 LINE",
"436 425 LINE",
"795 642 LINE",
"795 675 LINE",
"775 675 LINE",
"388 445 LINE",
"40 445 LINE",
"40 675 LINE",
"0 675 LINE",
"0 0 LINE"
);
}
);
width = 995;
}
);
unicode = 041A;
},
{
glyphname = "El-cy";
lastChange = "2020-01-10 03:05:56 +0000";
layers = (
{
layerId = "C80544D9-48F8-4DA0-91C0-E0123F10AF4A";
paths = (
{
closed = 1;
nodes = (
"88 0 LINE",
"310 109 LINE",
"310 520 LINE",
"700 520 LINE",
"700 0 LINE",
"855 0 LINE",
"855 675 LINE",
"155 675 LINE",
"155 204.574 LINE",
"0 128 LINE",
"0 0 LINE"
);
}
);
width = 875;
},
{
layerId = "9FDCACD5-7DFA-4B53-9786-D575BF0C2E18";
paths = (
{
closed = 1;
nodes = (
"20 0 LINE",
"240 136 LINE",
"240 660 LINE",
"755 660 LINE",
"755 0 LINE",
"795 0 LINE",
"795 700 LINE",
"200 700 LINE",
"200 155 LINE",
"0 30 LINE",
"0 0 LINE"
);
}
);
width = 995;
}
);
unicode = 041B;
},
{
glyphname = "Em-cy";
lastChange = "2020-01-12 10:01:28 +0000";
layers = (
{
layerId = "C80544D9-48F8-4DA0-91C0-E0123F10AF4A";
paths = (
{
closed = 1;
nodes = (
"155 0 LINE",
"155 501 LINE",
"335 155 LINE",
"460 155 LINE",
"640 501 LINE",
"640 0 LINE",
"795 0 LINE",
"795 675 LINE",
"556 675 LINE",
"398 355 LINE",
"239 675 LINE",
"0 675 LINE",
"0 0 LINE"
);
}
);
width = 815;
},
{
layerId = "9FDCACD5-7DFA-4B53-9786-D575BF0C2E18";
paths = (
{
closed = 1;
nodes = (
"40 0 LINE",
"40 589 LINE",
"378 0 LINE",
"418 0 LINE",
"755 589 LINE",
"755 0 LINE",
"795 0 LINE",
"795 675 LINE",
"755 675 LINE",
"398 43 LINE",
"40 675 LINE",
"0 675 LINE",
"0 0 LINE"
);
}
);
width = 995;
}
);
unicode = 041C;
},
{
glyphname = "U-cy";
lastChange = "2020-01-09 18:42:38 +0000";
layers = (
{
layerId = "C80544D9-48F8-4DA0-91C0-E0123F10AF4A";
paths = (
{
closed = 1;
nodes = (
"855 0 LINE",
"855 675 LINE",
"700 675 LINE",
"700 327 LINE",
"155 327 LINE",
"155 675 LINE",
"0 675 LINE",
"0 175 LINE",
"702 175 LINE",
"702 155 LINE",
"0 155 LINE",
"0 0 LINE"
);
}
);
width = 875;
},
{
layerId = "9FDCACD5-7DFA-4B53-9786-D575BF0C2E18";
paths = (
{
closed = 1;
nodes = (
"795 0 LINE",
"795 675 LINE",
"755 675 LINE",
"755 215 LINE",
"40 215 LINE",
"40 675 LINE",
"0 675 LINE",
"0 175 LINE",
"755 175 LINE",
"755 40 LINE",
"0 40 LINE",
"0 0 LINE"
);
}
);
width = 995;
}
);
unicode = 0423;
},
{
glyphname = "Ef-cy";
lastChange = "2020-01-09 18:45:59 +0000";
layers = (
{
layerId = "C80544D9-48F8-4DA0-91C0-E0123F10AF4A";
paths = (
{
closed = 1;
nodes = (
"350 0 LINE",
"350 -175 LINE",
"505 -175 LINE",
"505 0 LINE",
"855 0 LINE",
"855 675 LINE",
"505 675 LINE",
"505 845 LINE",
"350 845 LINE",
"350 675 LINE",
"0 675 LINE",
"0 0 LINE"
);
},
{
closed = 1;
nodes = (
"155 520 LINE",
"350 520 LINE",
"350 155 LINE",
"155 155 LINE"
);
},
{
closed = 1;
nodes = (
"505 520 LINE",
"700 520 LINE",
"700 155 LINE",
"505 155 LINE"
);
}
);
width = 875;
},
{
layerId = "9FDCACD5-7DFA-4B53-9786-D575BF0C2E18";
paths = (
{
closed = 1;
nodes = (
"378 0 LINE",
"378 -175 LINE",
"418 -175 LINE",
"418 0 LINE",
"795 0 LINE",
"795 675 LINE",
"418 675 LINE",
"418 845 LINE",
"378 845 LINE",
"378 675 LINE",
"0 675 LINE",
"0 0 LINE"
);
},
{
closed = 1;
nodes = (
"40 635 LINE",
"378 635 LINE",
"378 40 LINE",
"40 40 LINE"
);
},
{
closed = 1;
nodes = (
"418 635 LINE",
"755 635 LINE",
"755 40 LINE",
"418 40 LINE"
);
}
);
width = 995;
}
);
unicode = 0424;
},
{
glyphname = "Che-cy";
lastChange = "2020-01-09 18:28:34 +0000";
layers = (
{
layerId = "C80544D9-48F8-4DA0-91C0-E0123F10AF4A";
paths = (
{
closed = 1;
nodes = (
"855 0 LINE",
"855 675 LINE",
"700 675 LINE",
"700 504 LINE",
"155 504 LINE",
"155 675 LINE",
"0 675 LINE",
"0 349 LINE",
"700 349 LINE",
"700 0 LINE"
);
}
);
width = 875;
},
{
layerId = "9FDCACD5-7DFA-4B53-9786-D575BF0C2E18";
paths = (
{
closed = 1;
nodes = (
"795 0 LINE",
"795 675 LINE",
"755 675 LINE",
"755 445 LINE",
"40 445 LINE",
"40 675 LINE",
"0 675 LINE",
"0 405 LINE",
"755 405 LINE",
"755 0 LINE"
);
}
);
width = 995;
}
);
unicode = 0427;
},
{
glyphname = "Tse-cy";
lastChange = "2020-01-12 07:37:53 +0000";
layers = (
{
layerId = "C80544D9-48F8-4DA0-91C0-E0123F10AF4A";
paths = (
{
closed = 1;
nodes = (
"855 0 LINE",
"855 -175 LINE",
"1010 -175 LINE",
"1010 155 LINE",
"855 155 LINE",
"855 675 LINE",
"700 675 LINE",
"700 155 LINE",
"155 155 LINE",
"155 675 LINE",
"0 675 LINE",
"0 0 LINE"
);
}
);
width = 1030;
},
{
layerId = "9FDCACD5-7DFA-4B53-9786-D575BF0C2E18";
paths = (
{
closed = 1;
nodes = (
"945 0 LINE",
"945 -190 LINE",
"985 -190 LINE",
"985 40 LINE",
"795 40 LINE",
"795 675 LINE",
"755 675 LINE",
"755 40 LINE",
"40 40 LINE",
"40 675 LINE",
"0 675 LINE",
"0 0 LINE"
);
}
);
width = 1185;
}
);
unicode = 0426;
},
{
glyphname = "Sha-cy";
lastChange = "2020-01-09 18:39:49 +0000";
layers = (
{
layerId = "C80544D9-48F8-4DA0-91C0-E0123F10AF4A";
paths = (
{
closed = 1;
nodes = (
"855 0 LINE",
"855 675 LINE",
"700 675 LINE",
"700 155 LINE",
"505 155 LINE",
"505 675 LINE",
"350 675 LINE",
"350 155 LINE",
"155 155 LINE",
"155 675 LINE",
"0 675 LINE",
"0 0 LINE"
);
}
);
width = 875;
},
{
layerId = "9FDCACD5-7DFA-4B53-9786-D575BF0C2E18";
paths = (
{
closed = 1;
nodes = (
"795 0 LINE",
"795 675 LINE",
"755 675 LINE",
"755 40 LINE",
"418 40 LINE",
"418 675 LINE",
"378 675 LINE",
"378 40 LINE",
"40 40 LINE",
"40 675 LINE",
"0 675 LINE",
"0 0 LINE"
);
}
);
width = 995;
}
);
unicode = 0428;
},
{
glyphname = "Shcha-cy";
lastChange = "2020-01-12 07:38:21 +0000";
layers = (
{
layerId = "C80544D9-48F8-4DA0-91C0-E0123F10AF4A";
paths = (
{
closed = 1;
nodes = (
"855 0 LINE",
"855 -175 LINE",
"1010 -175 LINE",
"1010 155 LINE",
"855 155 LINE",
"855 675 LINE",
"700 675 LINE",
"700 155 LINE",
"505 155 LINE",
"505 675 LINE",
"350 675 LINE",
"350 155 LINE",
"155 155 LINE",
"155 675 LINE",
"0 675 LINE",
"0 0 LINE"
);
}
);
width = 875;
},
{
layerId = "9FDCACD5-7DFA-4B53-9786-D575BF0C2E18";
paths = (
{
closed = 1;
nodes = (
"945 0 LINE",
"945 -190 LINE",
"985 -190 LINE",
"985 40 LINE",
"795 40 LINE",
"795 675 LINE",
"755 675 LINE",
"755 40 LINE",
"418 40 LINE",
"418 675 LINE",
"378 675 LINE",
"378 40 LINE",
"40 40 LINE",
"40 675 LINE",
"0 675 LINE",
"0 0 LINE"
);
}
);
width = 1185;
}
);
unicode = 0429;
},
{
glyphname = "Softsign-cy";
lastChange = "2020-01-25 01:45:45 +0000";
layers = (
{
layerId = "C80544D9-48F8-4DA0-91C0-E0123F10AF4A";
paths = (
{
closed = 1;
nodes = (
"855 0 LINE",
"855 500 LINE",
"155 500 LINE",
"155 675 LINE",
"0 675 LINE",
"0 0 LINE"
);
},
{
closed = 1;
nodes = (
"155 345 LINE",
"700 345 LINE",
"700 155 LINE",
"155 155 LINE"
);
}
);
width = 875;
},
{
layerId = "9FDCACD5-7DFA-4B53-9786-D575BF0C2E18";
paths = (
{
closed = 1;
nodes = (
"795 0 LINE",
"795 500 LINE",
"40 500 LINE",
"40 675 LINE",
"0 675 LINE",
"0 0 LINE"
);
},
{
closed = 1;
nodes = (
"40 460 LINE",
"755 460 LINE",
"755 40 LINE",
"40 40 LINE"
);
}
);
width = 995;
}
);
unicode = 042C;
},
{
glyphname = "Hardsign-cy";
lastChange = "2020-01-12 08:40:44 +0000";
layers = (
{
layerId = "C80544D9-48F8-4DA0-91C0-E0123F10AF4A";
paths = (
{
closed = 1;
nodes = (
"155 520 LINE",
"155 0 LINE",
"1010 0 LINE",
"1010 500 LINE",
"310 500 LINE",
"310 675 LINE",
"0 675 LINE",
"0 520 LINE"
);
},
{
closed = 1;
nodes = (
"310 345 LINE",
"855 345 LINE",
"855 155 LINE",
"310 155 LINE"
);
}
);
width = 1030;
},
{
layerId = "9FDCACD5-7DFA-4B53-9786-D575BF0C2E18";
paths = (
{
closed = 1;
nodes = (
"150 634 LINE",
"150 0 LINE",
"945 0 LINE",
"945 500 LINE",
"190 500 LINE",
"190 675 LINE",
"0 675 LINE",
"0 634 LINE"
);
},
{
closed = 1;
nodes = (
"190 460 LINE",
"905 460 LINE",
"905 40 LINE",
"190 40 LINE"
);
}
);
width = 1145;
}
);
unicode = 042A;
},
{
glyphname = "Yeru-cy";
lastChange = "2020-01-12 10:03:58 +0000";
layers = (
{
layerId = "C80544D9-48F8-4DA0-91C0-E0123F10AF4A";
paths = (
{
closed = 1;
nodes = (
"680 0 LINE",
"680 500 LINE",
"155 500 LINE",
"155 675 LINE",
"0 675 LINE",
"0 0 LINE"
);
},
{
closed = 1;
nodes = (
"155 345 LINE",
"525 345 LINE",
"525 155 LINE",
"155 155 LINE"
);
},
{
closed = 1;
nodes = (
"855 0 LINE",
"855 675 LINE",
"700 675 LINE",
"700 0 LINE"
);
}
);
width = 875;
},
{
layerId = "9FDCACD5-7DFA-4B53-9786-D575BF0C2E18";
paths = (
{
closed = 1;
nodes = (
"625 0 LINE",
"625 500 LINE",
"40 500 LINE",
"40 675 LINE",
"0 675 LINE",
"0 0 LINE"
);
},
{
closed = 1;
nodes = (
"40 460 LINE",
"585 460 LINE",
"585 40 LINE",
"40 40 LINE"
);
},
{
closed = 1;
nodes = (
"795 0 LINE",
"795 675 LINE",
"755 675 LINE",
"755 0 LINE"
);
}
);
width = 995;
}
);
unicode = 042B;
},
{
glyphname = "Ereversed-cy";
lastChange = "2020-01-09 19:07:06 +0000";
layers = (
{
layerId = "C80544D9-48F8-4DA0-91C0-E0123F10AF4A";
paths = (
{
closed = 1;
nodes = (
"855 0 LINE",
"855 675 LINE",
"0 675 LINE",
"0 460 LINE",
"155 460 LINE",
"155 520 LINE",
"699 520 LINE",
"699 500 LINE",
"175 500 LINE",
"175 350 LINE",
"699 350 LINE",
"699 155 LINE",
"155 155 LINE",
"155 215 LINE",
"0 215 LINE",
"0 0 LINE"
);
}
);
width = 875;
},
{
layerId = "9FDCACD5-7DFA-4B53-9786-D575BF0C2E18";
paths = (
{
closed = 1;
nodes = (
"795 0 LINE",
"795 675 LINE",
"0 675 LINE",
"0 569 LINE",
"40 569 LINE",
"40 635 LINE",
"755 635 LINE",
"755 445 LINE",
"190 445 LINE",
"190 405 LINE",
"755 405 LINE",
"755 40 LINE",
"40 40 LINE",
"40 107 LINE",
"0 107 LINE",
"0 0 LINE"
);
}
);
width = 995;
}
);
unicode = 042D;
},
{
glyphname = "Iu-cy";
lastChange = "2020-01-12 08:45:13 +0000";
layers = (
{
layerId = "C80544D9-48F8-4DA0-91C0-E0123F10AF4A";
paths = (
{
closed = 1;
nodes = (
"155 0 LINE",
"155 255 LINE",
"215 255 LINE",
"215 0 LINE",
"855 0 LINE",
"855 675 LINE",
"215 675 LINE",
"215 410 LINE",
"155 410 LINE",
"155 675 LINE",
"0 675 LINE",
"0 0 LINE"
);
},
{
closed = 1;
nodes = (
"370 520 LINE",
"700 520 LINE",
"700 155 LINE",
"370 155 LINE"
);
}
);
width = 875;
},
{
layerId = "9FDCACD5-7DFA-4B53-9786-D575BF0C2E18";
paths = (
{
closed = 1;
nodes = (
"40 0 LINE",
"40 317 LINE",
"230 317 LINE",
"230 0 LINE",
"795 0 LINE",
"795 675 LINE",
"230 675 LINE",
"230 357 LINE",
"40 357 LINE",
"40 675 LINE",
"0 675 LINE",
"0 0 LINE"
);
},
{
closed = 1;
nodes = (
"270 635 LINE",
"755 635 LINE",
"755 40 LINE",
"270 40 LINE"
);
}
);
width = 995;
}
);
unicode = 042E;
},
{
glyphname = "Ia-cy";
lastChange = "2020-01-09 18:56:18 +0000";
layers = (
{
layerId = "C80544D9-48F8-4DA0-91C0-E0123F10AF4A";
paths = (
{
closed = 1;
nodes = (
"855 675 LINE",
"0 675 LINE",
"0 345 LINE",
"156 345 LINE",
"0 250 LINE",
"0 0 LINE",
"155 0 LINE",
"155 170 LINE",
"444 345 LINE",
"700 345 LINE",
"700 0 LINE",
"855 0 LINE"
);
},
{
closed = 1;
nodes = (
"155 500 LINE",
"155 520 LINE",
"700 520 LINE",
"700 500 LINE"
);
}
);
width = 875;
},
{
layerId = "9FDCACD5-7DFA-4B53-9786-D575BF0C2E18";
paths = (
{
closed = 1;
nodes = (
"795 675 LINE",
"0 675 LINE",
"0 405 LINE",
"336 405 LINE",
"0 209 LINE",
"0 0 LINE",
"40 0 LINE",
"40 186 LINE",
"407 405 LINE",
"755 405 LINE",
"755 0 LINE",
"795 0 LINE"
);
},
{
closed = 1;
nodes = (
"40 445 LINE",
"40 635 LINE",
"755 635 LINE",
"755 445 LINE"
);
}
);
width = 995;
}
);
unicode = 042F;
},
{
glyphname = "a-cy";
lastChange = "2020-01-25 01:43:14 +0000";
layers = (
{
layerId = "C80544D9-48F8-4DA0-91C0-E0123F10AF4A";
paths = (
{
closed = 1;
nodes = (
"0 345 LINE",
"700 345 LINE",
"700 325 LINE",
"0 325 LINE",
"0 0 LINE",
"855 0 LINE",
"855 500 LINE",
"0 500 LINE"
);
},
{
closed = 1;
nodes = (
"700 175 LINE",
"700 155 LINE",
"155 155 LINE",
"155 175 LINE"
);
}
);
width = 875;
},
{
layerId = "9FDCACD5-7DFA-4B53-9786-D575BF0C2E18";
paths = (
{
closed = 1;
nodes = (
"0 460 LINE",
"755 460 LINE",
"755 270 LINE",
"0 270 LINE",
"0 0 LINE",
"795 0 LINE",
"795 500 LINE",
"0 500 LINE"
);
},
{
closed = 1;
nodes = (
"755 230 LINE",
"755 40 LINE",
"40 40 LINE",
"40 230 LINE"
);
}
);
width = 995;
}
);
unicode = 0430;
},
{
glyphname = "be-cy";
lastChange = "2020-01-25 01:43:40 +0000";
layers = (
{
layerId = "C80544D9-48F8-4DA0-91C0-E0123F10AF4A";
paths = (
{
closed = 1;
nodes = (
"855 0 LINE",
"855 500 LINE",
"250 500 LINE",
"288 519 LINE",
"855 519 LINE",
"855 675 LINE",
"252 675 LINE",
"0 546 LINE",
"0 0 LINE"
);
},
{
closed = 1;
nodes = (
"155 343 LINE",
"700 343 LINE",
"700 155 LINE",
"155 155 LINE"
);
}
);
width = 875;
},
{
layerId = "9FDCACD5-7DFA-4B53-9786-D575BF0C2E18";
paths = (
{
closed = 1;
nodes = (
"795 0 LINE",
"795 500 LINE",
"74 500 LINE",
"408 689 LINE",
"795 690 LINE",
"795 730 LINE",
"392 730 LINE",
"0 500 LINE",
"0 0 LINE"
);
},
{
closed = 1;
nodes = (
"40 460 LINE",
"755 460 LINE",
"755 40 LINE",
"40 40 LINE"
);
}
);
width = 995;
}
);
unicode = 0431;
},
{
glyphname = "ve-cy";
lastChange = "2020-01-25 01:43:47 +0000";
layers = (
{
layerId = "C80544D9-48F8-4DA0-91C0-E0123F10AF4A";
paths = (
{
closed = 1;
nodes = (
"855 0 LINE",
"855 240 LINE",
"795 240 LINE",
"795 260 LINE",
"855 260 LINE",
"855 500 LINE",
"0 500 LINE",
"0 0 LINE"
);
},
{
closed = 1;
nodes = (
"155 175 LINE",
"700 175 LINE",
"700 155 LINE",
"155 155 LINE"
);
},
{
closed = 1;
nodes = (
"155 345 LINE",
"700 345 LINE",
"700 325 LINE",
"155 325 LINE"
);
}
);
width = 875;
},
{
layerId = "9FDCACD5-7DFA-4B53-9786-D575BF0C2E18";
paths = (
{
closed = 1;
nodes = (
"795 0 LINE",
"795 242 LINE",
"775 242 LINE",
"775 257 LINE",
"795 257 LINE",
"795 500 LINE",
"0 500 LINE",
"0 0 LINE"
);
},
{
closed = 1;
nodes = (
"40 230 LINE",
"755 230 LINE",
"755 40 LINE",
"40 40 LINE"
);
},
{
closed = 1;
nodes = (
"40 460 LINE",
"755 460 LINE",
"755 270 LINE",
"40 270 LINE"
);
}
);
width = 995;
}
);
unicode = 0432;
},
{
glyphname = "ge-cy";
lastChange = "2020-01-25 01:43:53 +0000";
layers = (
{
layerId = "C80544D9-48F8-4DA0-91C0-E0123F10AF4A";
paths = (
{
closed = 1;
nodes = (
"155 0 LINE",
"155 345 LINE",
"855 345 LINE",
"855 500 LINE",
"0 500 LINE",
"0 0 LINE"
);
}
);
width = 875;
},
{
layerId = "9FDCACD5-7DFA-4B53-9786-D575BF0C2E18";
paths = (
{
closed = 1;
nodes = (
"40 0 LINE",
"40 460 LINE",
"795 460 LINE",
"795 500 LINE",
"0 500 LINE",
"0 0 LINE"
);
}
);
width = 995;
}
);
unicode = 0433;
},
{
glyphname = "de-cy";
lastChange = "2020-01-25 01:44:04 +0000";
layers = (
{
layerId = "C80544D9-48F8-4DA0-91C0-E0123F10AF4A";
paths = (
{
closed = 1;
nodes = (
"155 -175 LINE",
"155 0 LINE",
"700 0 LINE",
"700 -175 LINE",
"855 -175 LINE",
"855 155 LINE",
"700 155 LINE",
"700 500 LINE",
"155 500 LINE",
"155 359.609 LINE",
"0 283 LINE",
"0 -175 LINE"
);
},
{
closed = 1;
nodes = (
"155 187.595 LINE",
"310 263 LINE",
"310 345 LINE",
"545 345 LINE",
"545 155 LINE",
"155 155 LINE"
);
}
);
width = 875;
},
{
layerId = "9FDCACD5-7DFA-4B53-9786-D575BF0C2E18";
paths = (
{
closed = 1;
nodes = (
"40 -190 LINE",
"40 0 LINE",
"945 0 LINE",
"945 -190 LINE",
"985 -190 LINE",
"985 40 LINE",
"795 40 LINE",
"795 500 LINE",
"278 500 LINE",
"278 287 LINE",
"0 120 LINE",
"0 -190 LINE"
);
},
{
closed = 1;
nodes = (
"40 102 LINE",
"318 268 LINE",
"318 460 LINE",
"755 460 LINE",
"755 40 LINE",
"40 40 LINE"
);
}
);
width = 1185;
}
);
unicode = 0434;
},
{
glyphname = "ie-cy";
lastChange = "2020-01-25 01:44:15 +0000";
layers = (
{
layerId = "C80544D9-48F8-4DA0-91C0-E0123F10AF4A";
paths = (
{
closed = 1;
nodes = (
"855 0 LINE",
"855 155 LINE",
"155 155 LINE",
"155 175 LINE",
"855 175 LINE",
"855 500 LINE",
"0 500 LINE",
"0 0 LINE"
);
},
{
closed = 1;
nodes = (
"155 345 LINE",
"700 345 LINE",
"700 325 LINE",
"155 325 LINE"
);
}
);
width = 875;
},
{
layerId = "9FDCACD5-7DFA-4B53-9786-D575BF0C2E18";
paths = (
{
closed = 1;
nodes = (
"795 0 LINE",
"795 40 LINE",
"40 40 LINE",
"40 230 LINE",
"795 230 LINE",
"795 500 LINE",
"0 500 LINE",
"0 0 LINE"
);
},
{
closed = 1;
nodes = (
"40 460 LINE",
"755 460 LINE",
"755 270 LINE",
"40 270 LINE"
);
}
);
width = 995;
}
);
unicode = 0435;
},
{
glyphname = "io-cy";
lastChange = "2020-01-25 01:44:22 +0000";
layers = (
{
components = (
{
name = dieresis;
transform = "{1, 0, 0, 1, 158, 0}";
}
);
layerId = "C80544D9-48F8-4DA0-91C0-E0123F10AF4A";
paths = (
{
closed = 1;
nodes = (
"855 0 LINE",
"855 155 LINE",
"155 155 LINE",
"155 175 LINE",
"855 175 LINE",
"855 500 LINE",
"0 500 LINE",
"0 0 LINE"
);
},
{
closed = 1;
nodes = (
"155 345 LINE",
"700 345 LINE",
"700 325 LINE",
"155 325 LINE"
);
}
);
width = 875;
},
{
components = (
{
name = dieresis;
transform = "{1, 0, 0, 1, 180, 0}";
}
);
layerId = "9FDCACD5-7DFA-4B53-9786-D575BF0C2E18";
paths = (
{
closed = 1;
nodes = (
"795 0 LINE",
"795 40 LINE",
"40 40 LINE",
"40 230 LINE",
"795 230 LINE",
"795 500 LINE",
"0 500 LINE",
"0 0 LINE"
);
},
{
closed = 1;
nodes = (
"40 460 LINE",
"755 460 LINE",
"755 270 LINE",
"40 270 LINE"
);
}
);
width = 995;
}
);
unicode = 0451;
},
{
glyphname = "zhe-cy";
lastChange = "2020-01-25 01:41:16 +0000";
layers = (
{
layerId = "C80544D9-48F8-4DA0-91C0-E0123F10AF4A";
paths = (
{
closed = 1;
nodes = (
"88 0 LINE",
"427 166 LINE",
"427 0 LINE",
"582 0 LINE",
"582 166 LINE",
"921 0 LINE",
"1009 0 LINE",
"1009 128 LINE",
"758 252 LINE",
"1009 375 LINE",
"1009 500 LINE",
"909 500 LINE",
"582 339 LINE",
"582 500 LINE",
"427 500 LINE",
"427 339 LINE",
"100 500 LINE",
"0 500 LINE",
"0 375 LINE",
"251 252 LINE",
"0 128 LINE",
"0 0 LINE"
);
}
);
width = 1029;
},
{
layerId = "9FDCACD5-7DFA-4B53-9786-D575BF0C2E18";
paths = (
{
closed = 1;
nodes = (
"20 0 LINE",
"397 233 LINE",
"397 0 LINE",
"437 0 LINE",
"437 233 LINE",
"814 0 LINE",
"834 0 LINE",
"834 30 LINE",
"481 250 LINE",
"834 470 LINE",
"834 500 LINE",
"814 500 LINE",
"437 268 LINE",
"437 500 LINE",
"397 500 LINE",
"397 268 LINE",
"20 500 LINE",
"0 500 LINE",
"0 470 LINE",
"353 250 LINE",
"0 30 LINE",
"0 0 LINE"
);
}
);
width = 1034;
}
);
unicode = 0436;
},
{
glyphname = "ze-cy";
lastChange = "2020-01-25 01:44:32 +0000";
layers = (
{
layerId = "C80544D9-48F8-4DA0-91C0-E0123F10AF4A";
paths = (
{
closed = 1;
nodes = (
"855 0 LINE",
"855 500 LINE",
"0 500 LINE",
"0 345 LINE",
"699 345 LINE",
"699 325 LINE",
"0 325 LINE",
"0 175 LINE",
"699 175 LINE",
"699 155 LINE",
"0 155 LINE",
"0 0 LINE"
);
}
);
width = 875;
},
{
layerId = "9FDCACD5-7DFA-4B53-9786-D575BF0C2E18";
paths = (
{
closed = 1;
nodes = (
"795 0 LINE",
"795 500 LINE",
"0 500 LINE",
"0 460 LINE",
"755 460 LINE",
"755 270 LINE",
"0 270 LINE",
"0 230 LINE",
"755 230 LINE",
"755 40 LINE",
"0 40 LINE",
"0 0 LINE"
);
}
);
width = 995;
}
);
unicode = 0437;
},
{
glyphname = "ii-cy";
lastChange = "2020-01-25 01:44:38 +0000";
layers = (
{
layerId = "C80544D9-48F8-4DA0-91C0-E0123F10AF4A";
paths = (
{
closed = 1;
nodes = (
"155 0 LINE",
"700 299 LINE",
"700 0 LINE",
"855 0 LINE",
"855 500 LINE",
"700 500 LINE",
"155 204 LINE",
"155 500 LINE",
"0 500 LINE",
"0 0 LINE"
);
}
);
width = 875;
},
{
layerId = "9FDCACD5-7DFA-4B53-9786-D575BF0C2E18";
paths = (
{
closed = 1;
nodes = (
"22 0 LINE",
"755 437 LINE",
"755 0 LINE",
"795 0 LINE",
"795 500 LINE",
"776 500 LINE",
"40 64 LINE",
"40 500 LINE",
"0 500 LINE",
"0 0 LINE"
);
}
);
width = 995;
}
);
unicode = 0438;
},
{
glyphname = "iishort-cy";
lastChange = "2020-01-25 01:44:45 +0000";
layers = (
{
layerId = "C80544D9-48F8-4DA0-91C0-E0123F10AF4A";
paths = (
{
closed = 1;
nodes = (
"155 0 LINE",
"700 299 LINE",
"700 0 LINE",
"855 0 LINE",
"855 500 LINE",
"700 500 LINE",
"155 204 LINE",
"155 500 LINE",
"0 500 LINE",
"0 0 LINE"
);
},
{
closed = 1;
nodes = (
"660 520 LINE",
"660 635 LINE",
"600 635 LINE",
"600 581 LINE",
"255 581 LINE",
"255 635 LINE",
"195 635 LINE",
"195 520 LINE"
);
}
);
width = 875;
},
{
layerId = "9FDCACD5-7DFA-4B53-9786-D575BF0C2E18";
paths = (
{
closed = 1;
nodes = (
"22 0 LINE",
"755 437 LINE",
"755 0 LINE",
"795 0 LINE",
"795 500 LINE",
"776 500 LINE",
"40 64 LINE",
"40 500 LINE",
"0 500 LINE",
"0 0 LINE"
);
},
{
closed = 1;
nodes = (
"633 560 LINE",
"633 675 LINE",
"593 675 LINE",
"593 601 LINE",
"208 601 LINE",
"208 675 LINE",
"168 675 LINE",
"168 560 LINE"
);
}
);
width = 995;
}
);
unicode = 0439;
},
{
glyphname = "ka-cy";
lastChange = "2020-01-25 01:44:52 +0000";
layers = (
{
layerId = "C80544D9-48F8-4DA0-91C0-E0123F10AF4A";
paths = (
{
closed = 1;
nodes = (
"155 0 LINE",
"155 175 LINE",
"411 175 LINE",
"700 0 LINE",
"855 0 LINE",
"855 80 LINE",
"576 250 LINE",
"853 418 LINE",
"853 500 LINE",
"698 500 LINE",
"411 330 LINE",
"155 330 LINE",
"155 500 LINE",
"0 500 LINE",
"0 0 LINE"
);
}
);
width = 875;
},
{
layerId = "9FDCACD5-7DFA-4B53-9786-D575BF0C2E18";
paths = (
{
closed = 1;
nodes = (
"40 0 LINE",
"40 230 LINE",
"401.867 230 LINE",
"775 0 LINE",
"795 0 LINE",
"795 30 LINE",
"441 250 LINE",
"795 470 LINE",
"795 500 LINE",
"775 500 LINE",
"400.259 270 LINE",
"40 270 LINE",
"40 500 LINE",
"0 500 LINE",
"0 0 LINE"
);
}
);
width = 995;
}
);
unicode = 043A;
},
{
glyphname = "el-cy";
lastChange = "2020-01-25 01:45:03 +0000";
layers = (
{
layerId = "C80544D9-48F8-4DA0-91C0-E0123F10AF4A";
paths = (
{
closed = 1;
nodes = (
"88 0 LINE",
"310 109 LINE",
"310 345 LINE",
"700 345 LINE",
"700 0 LINE",
"855 0 LINE",
"855 500 LINE",
"155 500 LINE",
"155 204.574 LINE",
"0 128 LINE",
"0 0 LINE"
);
}
);
width = 875;
},
{
layerId = "9FDCACD5-7DFA-4B53-9786-D575BF0C2E18";
paths = (
{
closed = 1;
nodes = (
"20 0 LINE",
"240 136 LINE",
"240 460 LINE",
"755 460 LINE",
"755 0 LINE",
"795 0 LINE",
"795 500 LINE",
"200 500 LINE",
"200 155 LINE",
"0 30 LINE",
"0 0 LINE"
);
}
);
width = 995;
}
);
unicode = 043B;
},
{
glyphname = "em-cy";
lastChange = "2020-01-25 01:42:04 +0000";
layers = (
{
layerId = "C80544D9-48F8-4DA0-91C0-E0123F10AF4A";
paths = (
{
closed = 1;
nodes = (
"155 0 LINE",
"155 342 LINE",
"335 0 LINE",
"460 0 LINE",
"640 342 LINE",
"640 0 LINE",
"795 0 LINE",
"795 500 LINE",
"556 500 LINE",
"398 207 LINE",
"239 500 LINE",
"0 500 LINE",
"0 0 LINE"
);
}
);
width = 815;
},
{
layerId = "9FDCACD5-7DFA-4B53-9786-D575BF0C2E18";
paths = (
{
closed = 1;
nodes = (
"40 0 LINE",
"40 434 LINE",
"378 0 LINE",
"418 0 LINE",
"755 434 LINE",
"755 0 LINE",
"795 0 LINE",
"795 500 LINE",
"755 500 LINE",
"398 37 LINE",
"40 500 LINE",
"0 500 LINE",
"0 0 LINE"
);
}
);
width = 995;
}
);
unicode = 043C;
},
{
glyphname = "en-cy";
lastChange = "2020-01-25 01:45:17 +0000";
layers = (
{
layerId = "C80544D9-48F8-4DA0-91C0-E0123F10AF4A";
paths = (
{
closed = 1;
nodes = (
"155 0 LINE",
"155 175 LINE",
"700 175 LINE",
"700 0 LINE",
"855 0 LINE",
"855 500 LINE",
"700 500 LINE",
"700 325 LINE",
"155 325 LINE",
"155 500 LINE",
"0 500 LINE",
"0 0 LINE"
);
}
);
width = 875;
},
{
layerId = "9FDCACD5-7DFA-4B53-9786-D575BF0C2E18";
paths = (
{
closed = 1;
nodes = (
"40 0 LINE",
"40 230 LINE",
"755 230 LINE",
"755 0 LINE",
"795 0 LINE",
"795 500 LINE",
"755 500 LINE",
"755 270 LINE",
"40 270 LINE",
"40 500 LINE",
"0 500 LINE",
"0 0 LINE"
);
}
);
width = 995;
}
);
unicode = 043D;
},
{
glyphname = "o-cy";
lastChange = "2020-01-25 01:45:56 +0000";
layers = (
{
layerId = "C80544D9-48F8-4DA0-91C0-E0123F10AF4A";
paths = (
{
closed = 1;
nodes = (
"855 0 LINE",
"855 500 LINE",
"0 500 LINE",
"0 0 LINE"
);
},
{
closed = 1;
nodes = (
"155 345 LINE",
"700 345 LINE",
"700 155 LINE",
"155 155 LINE"
);
}
);
width = 875;
},
{
layerId = "9FDCACD5-7DFA-4B53-9786-D575BF0C2E18";
paths = (
{
closed = 1;
nodes = (
"795 0 LINE",
"795 500 LINE",
"0 500 LINE",
"0 0 LINE"
);
},
{
closed = 1;
nodes = (
"40 460 LINE",
"755 460 LINE",
"755 40 LINE",
"40 40 LINE"
);
}
);
width = 995;
}
);
unicode = 043E;
},
{
glyphname = "pe-cy";
lastChange = "2020-01-25 01:46:03 +0000";
layers = (
{
layerId = "C80544D9-48F8-4DA0-91C0-E0123F10AF4A";
paths = (
{
closed = 1;
nodes = (
"155 0 LINE",
"155 345 LINE",
"700 345 LINE",
"700 0 LINE",
"855 0 LINE",
"855 500 LINE",
"0 500 LINE",
"0 0 LINE"
);
}
);
width = 875;
},
{
layerId = "9FDCACD5-7DFA-4B53-9786-D575BF0C2E18";
paths = (
{
closed = 1;
nodes = (
"40 0 LINE",
"40 460 LINE",
"755 460 LINE",
"755 0 LINE",
"795 0 LINE",
"795 500 LINE",
"0 500 LINE",
"0 0 LINE"
);
}
);
width = 995;
}
);
unicode = 043F;
},
{
glyphname = "er-cy";
lastChange = "2020-01-25 01:46:09 +0000";
layers = (
{
layerId = "C80544D9-48F8-4DA0-91C0-E0123F10AF4A";
paths = (
{
closed = 1;
nodes = (
"155 -175 LINE",
"155 0 LINE",
"855 0 LINE",
"855 500 LINE",
"0 500 LINE",
"0 -175 LINE"
);
},
{
closed = 1;
nodes = (
"155 345 LINE",
"700 345 LINE",
"700 155 LINE",
"155 155 LINE"
);
}
);
width = 875;
},
{
layerId = "9FDCACD5-7DFA-4B53-9786-D575BF0C2E18";
paths = (
{
closed = 1;
nodes = (
"40 -175 LINE",
"40 0 LINE",
"795 0 LINE",
"795 500 LINE",
"0 500 LINE",
"0 -175 LINE"
);
},
{
closed = 1;
nodes = (
"40 460 LINE",
"755 460 LINE",
"755 40 LINE",
"40 40 LINE"
);
}
);
width = 995;
}
);
unicode = 0440;
},
{
glyphname = "es-cy";
lastChange = "2020-01-25 01:46:14 +0000";
layers = (
{
layerId = "C80544D9-48F8-4DA0-91C0-E0123F10AF4A";
paths = (
{
closed = 1;
nodes = (
"855 0 LINE",
"855 155 LINE",
"156 155 LINE",
"156 345 LINE",
"855 345 LINE",
"855 500 LINE",
"0 500 LINE",
"0 0 LINE"
);
}
);
width = 875;
},
{
layerId = "9FDCACD5-7DFA-4B53-9786-D575BF0C2E18";
paths = (
{
closed = 1;
nodes = (
"795 0 LINE",
"795 41 LINE",
"40 41 LINE",
"40 459 LINE",
"795 459 LINE",
"795 500 LINE",
"0 500 LINE",
"0 0 LINE"
);
}
);
width = 995;
}
);
unicode = 0441;
},
{
glyphname = "te-cy";
lastChange = "2020-01-25 01:46:20 +0000";
layers = (
{
layerId = "C80544D9-48F8-4DA0-91C0-E0123F10AF4A";
paths = (
{
closed = 1;
nodes = (
"350 345 LINE",
"350 0 LINE",
"505 0 LINE",
"505 345 LINE",
"855 345 LINE",
"855 500 LINE",
"0 500 LINE",
"0 345 LINE"
);
}
);
width = 875;
},
{
layerId = "9FDCACD5-7DFA-4B53-9786-D575BF0C2E18";
paths = (
{
closed = 1;
nodes = (
"380 462 LINE",
"380 0 LINE",
"420 0 LINE",
"420 462 LINE",
"795 462 LINE",
"795 502 LINE",
"0 502 LINE",
"0 462 LINE"
);
}
);
width = 995;
}
);
unicode = 0442;
},
{
glyphname = "u-cy";
lastChange = "2020-01-25 01:46:25 +0000";
layers = (
{
layerId = "C80544D9-48F8-4DA0-91C0-E0123F10AF4A";
paths = (
{
closed = 1;
nodes = (
"855 -175 LINE",
"855 500 LINE",
"700 500 LINE",
"700 152 LINE",
"155 152 LINE",
"155 500 LINE",
"0 500 LINE",
"0 0 LINE",
"702 0 LINE",
"702 -20 LINE",
"0 -20 LINE",
"0 -175 LINE"
);
}
);
width = 875;
},
{
layerId = "9FDCACD5-7DFA-4B53-9786-D575BF0C2E18";
paths = (
{
closed = 1;
nodes = (
"795 -175 LINE",
"795 500 LINE",
"755 500 LINE",
"755 40 LINE",
"40 40 LINE",
"40 500 LINE",
"0 500 LINE",
"0 0 LINE",
"755 0 LINE",
"755 -135 LINE",
"0 -135 LINE",
"0 -175 LINE"
);
}
);
width = 995;
}
);
unicode = 0443;
},
{
glyphname = "ef-cy";
lastChange = "2020-01-25 01:46:34 +0000";
layers = (
{
layerId = "C80544D9-48F8-4DA0-91C0-E0123F10AF4A";
paths = (
{
closed = 1;
nodes = (
"350 0 LINE",
"350 -175 LINE",
"505 -175 LINE",
"505 0 LINE",
"855 0 LINE",
"855 500 LINE",
"505 500 LINE",
"505 675 LINE",
"350 675 LINE",
"350 500 LINE",
"0 500 LINE",
"0 0 LINE"
);
},
{
closed = 1;
nodes = (
"155 345 LINE",
"350 345 LINE",
"350 155 LINE",
"155 155 LINE"
);
},
{
closed = 1;
nodes = (
"505 345 LINE",
"700 345 LINE",
"700 155 LINE",
"505 155 LINE"
);
}
);
width = 875;
},
{
layerId = "9FDCACD5-7DFA-4B53-9786-D575BF0C2E18";
paths = (
{
closed = 1;
nodes = (
"379 0 LINE",
"379 -175 LINE",
"419 -175 LINE",
"419 0 LINE",
"795 0 LINE",
"795 500 LINE",
"419 500 LINE",
"419 675 LINE",
"379 675 LINE",
"379 500 LINE",
"0 500 LINE",
"0 0 LINE"
);
},
{
closed = 1;
nodes = (
"40 460 LINE",
"379 460 LINE",
"379 40 LINE",
"40 40 LINE"
);
},
{
closed = 1;
nodes = (
"419 460 LINE",
"755 460 LINE",
"755 40 LINE",
"419 40 LINE"
);
}
);
width = 995;
}
);
unicode = 0444;
},
{
glyphname = "ha-cy";
lastChange = "2020-01-25 01:46:47 +0000";
layers = (
{
layerId = "C80544D9-48F8-4DA0-91C0-E0123F10AF4A";
paths = (
{
closed = 1;
nodes = (
"100 0 LINE",
"428 166 LINE",
"755 0 LINE",
"855 0 LINE",
"855 128 LINE",
"604 252 LINE",
"855 375 LINE",
"855 500 LINE",
"755 500 LINE",
"428 339 LINE",
"100 500 LINE",
"0 500 LINE",
"0 375 LINE",
"251 252 LINE",
"0 128 LINE",
"0 0 LINE"
);
}
);
width = 875;
},
{
layerId = "9FDCACD5-7DFA-4B53-9786-D575BF0C2E18";
paths = (
{
closed = 1;
nodes = (
"20 0 LINE",
"397 233 LINE",
"775 0 LINE",
"795 0 LINE",
"795 30 LINE",
"441 250 LINE",
"795 470 LINE",
"795 500 LINE",
"775 500 LINE",
"397 268 LINE",
"20 500 LINE",
"0 500 LINE",
"0 470 LINE",
"353 250 LINE",
"0 30 LINE",
"0 0 LINE"
);
}
);
width = 995;
}
);
unicode = 0445;
},
{
glyphname = "che-cy";
lastChange = "2020-01-25 01:46:55 +0000";
layers = (
{
layerId = "C80544D9-48F8-4DA0-91C0-E0123F10AF4A";
paths = (
{
closed = 1;
nodes = (
"855 0 LINE",
"855 500 LINE",
"700 500 LINE",
"700 328 LINE",
"155 328 LINE",
"155 500 LINE",
"0 500 LINE",
"0 175 LINE",
"700 175 LINE",
"700 0 LINE"
);
}
);
width = 875;
},
{
layerId = "9FDCACD5-7DFA-4B53-9786-D575BF0C2E18";
paths = (
{
closed = 1;
nodes = (
"795 0 LINE",
"795 500 LINE",
"755 500 LINE",
"755 270 LINE",
"40 270 LINE",
"40 500 LINE",
"0 500 LINE",
"0 230 LINE",
"755 230 LINE",
"755 0 LINE"
);
}
);
width = 995;
}
);
unicode = 0447;
},
{
glyphname = "tse-cy";
lastChange = "2020-01-25 01:47:01 +0000";
layers = (
{
layerId = "C80544D9-48F8-4DA0-91C0-E0123F10AF4A";
paths = (
{
closed = 1;
nodes = (
"700 0 LINE",
"700 -175 LINE",
"855 -175 LINE",
"855 155 LINE",
"700 155 LINE",
"700 500 LINE",
"545 500 LINE",
"545 155 LINE",
"155 155 LINE",
"155 500 LINE",
"0 500 LINE",
"0 0 LINE"
);
}
);
width = 875;
},
{
layerId = "9FDCACD5-7DFA-4B53-9786-D575BF0C2E18";
paths = (
{
closed = 1;
nodes = (
"735 0 LINE",
"735 -190 LINE",
"775 -190 LINE",
"775 40 LINE",
"598 40 LINE",
"598 500 LINE",
"558 500 LINE",
"558 40 LINE",
"40 40 LINE",
"40 500 LINE",
"0 500 LINE",
"0 0 LINE"
);
}
);
width = 925;
}
);
unicode = 0446;
},
{
glyphname = "sha-cy";
lastChange = "2020-01-25 01:47:12 +0000";
layers = (
{
layerId = "C80544D9-48F8-4DA0-91C0-E0123F10AF4A";
paths = (
{
closed = 1;
nodes = (
"855 0 LINE",
"855 500 LINE",
"700 500 LINE",
"700 155 LINE",
"505 155 LINE",
"505 500 LINE",
"350 500 LINE",
"350 155 LINE",
"155 155 LINE",
"155 500 LINE",
"0 500 LINE",
"0 0 LINE"
);
}
);
width = 875;
},
{
layerId = "9FDCACD5-7DFA-4B53-9786-D575BF0C2E18";
paths = (
{
closed = 1;
nodes = (
"795 0 LINE",
"795 500 LINE",
"755 500 LINE",
"755 40 LINE",
"418 40 LINE",
"418 500 LINE",
"378 500 LINE",
"378 40 LINE",
"40 40 LINE",
"40 500 LINE",
"0 500 LINE",
"0 0 LINE"
);
}
);
width = 995;
}
);
unicode = 0448;
},
{
glyphname = "shcha-cy";
lastChange = "2020-01-25 01:47:41 +0000";
layers = (
{
layerId = "C80544D9-48F8-4DA0-91C0-E0123F10AF4A";
paths = (
{
closed = 1;
nodes = (
"855 0 LINE",
"855 -175 LINE",
"1010 -175 LINE",
"1010 155 LINE",
"855 155 LINE",
"855 500 LINE",
"700 500 LINE",
"700 155 LINE",
"505 155 LINE",
"505 500 LINE",
"350 500 LINE",
"350 155 LINE",
"155 155 LINE",
"155 500 LINE",
"0 500 LINE",
"0 0 LINE"
);
}
);
width = 1030;
},
{
layerId = "9FDCACD5-7DFA-4B53-9786-D575BF0C2E18";
paths = (
{
closed = 1;
nodes = (
"945 0 LINE",
"945 -190 LINE",
"985 -190 LINE",
"985 40 LINE",
"795 40 LINE",
"795 500 LINE",
"755 500 LINE",
"755 40 LINE",
"418 40 LINE",
"418 500 LINE",
"378 500 LINE",
"378 40 LINE",
"40 40 LINE",
"40 500 LINE",
"0 500 LINE",
"0 0 LINE"
);
}
);
width = 1185;
}
);
unicode = 0449;
},
{
glyphname = "softsign-cy";
lastChange = "2020-01-25 01:47:50 +0000";
layers = (
{
layerId = "C80544D9-48F8-4DA0-91C0-E0123F10AF4A";
paths = (
{
closed = 1;
nodes = (
"705 0 LINE",
"705 330 LINE",
"155 330 LINE",
"155 500 LINE",
"0 500 LINE",
"0 0 LINE"
);
},
{
closed = 1;
nodes = (
"155 175 LINE",
"550 175 LINE",
"550 155 LINE",
"155 155 LINE"
);
}
);
width = 725;
},
{
layerId = "9FDCACD5-7DFA-4B53-9786-D575BF0C2E18";
paths = (
{
closed = 1;
nodes = (
"645 0 LINE",
"645 270 LINE",
"40 270 LINE",
"40 500 LINE",
"0 500 LINE",
"0 0 LINE"
);
},
{
closed = 1;
nodes = (
"40 230 LINE",
"605 230 LINE",
"605 40 LINE",
"40 40 LINE"
);
}
);
width = 845;
}
);
unicode = 044C;
},
{
glyphname = "hardsign-cy";
lastChange = "2020-01-25 01:47:55 +0000";
layers = (
{
layerId = "C80544D9-48F8-4DA0-91C0-E0123F10AF4A";
paths = (
{
closed = 1;
nodes = (
"855 0 LINE",
"855 330 LINE",
"305 330 LINE",
"305 500 LINE",
"0 500 LINE",
"0 345 LINE",
"150 345 LINE",
"150 0 LINE"
);
},
{
closed = 1;
nodes = (
"305 175 LINE",
"700 175 LINE",
"700 155 LINE",
"305 155 LINE"
);
}
);
width = 875;
},
{
layerId = "9FDCACD5-7DFA-4B53-9786-D575BF0C2E18";
paths = (
{
closed = 1;
nodes = (
"765 0 LINE",
"765 270 LINE",
"160 270 LINE",
"160 500 LINE",
"0 500 LINE",
"0 460 LINE",
"120 460 LINE",
"120 0 LINE"
);
},
{
closed = 1;
nodes = (
"160 230 LINE",
"725 230 LINE",
"725 40 LINE",
"160 40 LINE"
);
}
);
width = 965;
}
);
unicode = 044A;
},
{
glyphname = "yeru-cy";
lastChange = "2020-01-25 01:48:01 +0000";
layers = (
{
layerId = "C80544D9-48F8-4DA0-91C0-E0123F10AF4A";
paths = (
{
closed = 1;
nodes = (
"680 0 LINE",
"680 330 LINE",
"155 330 LINE",
"155 500 LINE",
"0 500 LINE",
"0 0 LINE"
);
},
{
closed = 1;
nodes = (
"155 175 LINE",
"525 175 LINE",
"525 155 LINE",
"155 155 LINE"
);
},
{
closed = 1;
nodes = (
"855 0 LINE",
"855 500 LINE",
"700 500 LINE",
"700 0 LINE"
);
}
);
width = 875;
},
{
layerId = "9FDCACD5-7DFA-4B53-9786-D575BF0C2E18";
paths = (
{
closed = 1;
nodes = (
"620 0 LINE",
"620 270 LINE",
"40 270 LINE",
"40 500 LINE",
"0 500 LINE",
"0 0 LINE"
);
},
{
closed = 1;
nodes = (
"40 230 LINE",
"580 230 LINE",
"580 40 LINE",
"40 40 LINE"
);
},
{
closed = 1;
nodes = (
"795 0 LINE",
"795 500 LINE",
"755 500 LINE",
"755 0 LINE"
);
}
);
width = 995;
}
);
unicode = 044B;
},
{
glyphname = "ereversed-cy";
lastChange = "2020-01-25 01:48:07 +0000";
layers = (
{
layerId = "C80544D9-48F8-4DA0-91C0-E0123F10AF4A";
paths = (
{
closed = 1;
nodes = (
"855 0 LINE",
"855 500 LINE",
"0 500 LINE",
"0 285 LINE",
"155 285 LINE",
"155 345 LINE",
"699 345 LINE",
"699 325 LINE",
"176 325 LINE",
"176 175 LINE",
"699 175 LINE",
"699 155 LINE",
"155 155 LINE",
"155 215 LINE",
"0 215 LINE",
"0 0 LINE"
);
}
);
width = 875;
},
{
layerId = "9FDCACD5-7DFA-4B53-9786-D575BF0C2E18";
paths = (
{
closed = 1;
nodes = (
"795 0 LINE",
"795 500 LINE",
"0 500 LINE",
"0 394 LINE",
"40 394 LINE",
"40 460 LINE",
"755 460 LINE",
"755 270 LINE",
"190 270 LINE",
"190 230 LINE",
"755 230 LINE",
"755 40 LINE",
"40 40 LINE",
"40 107 LINE",
"0 107 LINE",
"0 0 LINE"
);
}
);
width = 995;
}
);
unicode = 044D;
},
{
glyphname = "iu-cy";
lastChange = "2020-01-25 01:48:15 +0000";
layers = (
{
layerId = "C80544D9-48F8-4DA0-91C0-E0123F10AF4A";
paths = (
{
closed = 1;
nodes = (
"155 0 LINE",
"155 175 LINE",
"215 175 LINE",
"215 0 LINE",
"855 0 LINE",
"855 500 LINE",
"215 500 LINE",
"215 325 LINE",
"155 325 LINE",
"155 500 LINE",
"0 500 LINE",
"0 0 LINE"
);
},
{
closed = 1;
nodes = (
"370 345 LINE",
"700 345 LINE",
"700 155 LINE",
"370 155 LINE"
);
}
);
width = 875;
},
{
layerId = "9FDCACD5-7DFA-4B53-9786-D575BF0C2E18";
paths = (
{
closed = 1;
nodes = (
"40 0 LINE",
"40 230 LINE",
"230 230 LINE",
"230 0 LINE",
"795 0 LINE",
"795 500 LINE",
"230 500 LINE",
"230 270 LINE",
"40 270 LINE",
"40 500 LINE",
"0 500 LINE",
"0 0 LINE"
);
},
{
closed = 1;
nodes = (
"270 460 LINE",
"755 460 LINE",
"755 40 LINE",
"270 40 LINE"
);
}
);
width = 995;
}
);
unicode = 044E;
},
{
glyphname = "ia-cy";
lastChange = "2020-01-25 01:48:22 +0000";
layers = (
{
layerId = "C80544D9-48F8-4DA0-91C0-E0123F10AF4A";
paths = (
{
closed = 1;
nodes = (
"855 500 LINE",
"0 500 LINE",
"0 175 LINE",
"156 175 LINE",
"0 80 LINE",
"0 0 LINE",
"155 0 LINE",
"444 175 LINE",
"700 175 LINE",
"700 0 LINE",
"855 0 LINE"
);
},
{
closed = 1;
nodes = (
"155 325 LINE",
"155 345 LINE",
"700 345 LINE",
"700 325 LINE"
);
}
);
width = 875;
},
{
layerId = "9FDCACD5-7DFA-4B53-9786-D575BF0C2E18";
paths = (
{
closed = 1;
nodes = (
"795 500 LINE",
"0 500 LINE",
"0 230 LINE",
"336 230 LINE",
"0 34 LINE",
"0 0 LINE",
"22 0 LINE",
"407 230 LINE",
"755 230 LINE",
"755 0 LINE",
"795 0 LINE"
);
},
{
closed = 1;
nodes = (
"40 270 LINE",
"40 460 LINE",
"755 460 LINE",
"755 270 LINE"
);
}
);
width = 995;
}
);
unicode = 044F;
},
{
glyphname = "i-kata";
lastChange = "2020-01-01 02:31:46 +0000";
layers = (
{
layerId = "C80544D9-48F8-4DA0-91C0-E0123F10AF4A";
paths = (
{
closed = 1;
nodes = (
"426 0 LINE",
"581 0 LINE",
"581 500 LINE",
"426 500 LINE"
);
},
{
closed = 1;
nodes = (
"820 691 LINE",
"65 319 LINE",
"65 191 LINE",
"153 191 LINE",
"920 566 LINE",
"920 691 LINE"
);
}
);
width = 1000;
},
{
layerId = "9FDCACD5-7DFA-4B53-9786-D575BF0C2E18";
width = 600;
}
);
unicode = 30A4;
},
{
glyphname = "u-kata";
lastChange = "2020-01-01 02:31:46 +0000";
layers = (
{
layerId = "C80544D9-48F8-4DA0-91C0-E0123F10AF4A";
paths = (
{
closed = 1;
nodes = (
"686 500 LINE",
"529 500 LINE",
"529 274 LINE",
"256 140 LINE",
"256 5 LINE",
"345 5 LINE",
"686 190 LINE"
);
},
{
closed = 1;
nodes = (
"155 234 LINE",
"155 345 LINE",
"531 345 LINE",
"531 345 LINE",
"686 345 LINE",
"686 500 LINE",
"0 500 LINE",
"0 234 LINE"
);
},
{
closed = 1;
nodes = (
"285 500 LINE",
"440 500 LINE",
"440 655 LINE",
"285 655 LINE"
);
}
);
width = 726;
},
{
layerId = "9FDCACD5-7DFA-4B53-9786-D575BF0C2E18";
width = 600;
}
);
unicode = 30A6;
},
{
glyphname = "ko-kata";
lastChange = "2020-01-01 02:31:46 +0000";
layers = (
{
layerId = "C80544D9-48F8-4DA0-91C0-E0123F10AF4A";
paths = (
{
closed = 1;
nodes = (
"0 0 LINE",
"0 155 LINE",
"700 155 LINE",
"700 345 LINE",
"0 345 LINE",
"0 500 LINE",
"855 500 LINE",
"855 0 LINE"
);
}
);
width = 895;
},
{
layerId = "9FDCACD5-7DFA-4B53-9786-D575BF0C2E18";
width = 600;
}
);
unicode = 30B3;
},
{
glyphname = "sa-kata";
lastChange = "2020-01-01 02:31:46 +0000";
layers = (
{
layerId = "C80544D9-48F8-4DA0-91C0-E0123F10AF4A";
paths = (
{
closed = 1;
nodes = (
"655 500 LINE",
"498 500 LINE",
"498 292 LINE",
"225 160 LINE",
"225 5 LINE",
"314 5 LINE",
"655 174 LINE"
);
},
{
closed = 1;
nodes = (
"70 295 LINE",
"225 295 LINE",
"225 500 LINE",
"70 500 LINE"
);
},
{
closed = 1;
nodes = (
"0 450 LINE",
"0 350 LINE",
"725 350 LINE",
"725 450 LINE"
);
}
);
width = 765;
},
{
layerId = "9FDCACD5-7DFA-4B53-9786-D575BF0C2E18";
width = 600;
}
);
unicode = 30B5;
},
{
glyphname = "na-kata";
lastChange = "2020-01-01 02:31:46 +0000";
layers = (
{
layerId = "C80544D9-48F8-4DA0-91C0-E0123F10AF4A";
paths = (
{
closed = 1;
nodes = (
"452 500 LINE",
"295 500 LINE",
"295 292 LINE",
"22 160 LINE",
"22 5 LINE",
"111 5 LINE",
"452 174 LINE"
);
}
);
width = 552;
},
{
layerId = "9FDCACD5-7DFA-4B53-9786-D575BF0C2E18";
width = 600;
}
);
unicode = 30CA;
},
{
glyphname = "no-kata";
lastChange = "2020-01-01 02:31:46 +0000";
layers = (
{
layerId = "C80544D9-48F8-4DA0-91C0-E0123F10AF4A";
paths = (
{
closed = 1;
nodes = (
"755 500 LINE",
"0 128 LINE",
"0 0 LINE",
"88 0 LINE",
"855 375 LINE",
"855 500 LINE"
);
},
{
closed = 1;
nodes = (
"716 373 LINE",
"855 373 LINE",
"855 618 LINE",
"716 618 LINE"
);
}
);
width = 895;
},
{
layerId = "9FDCACD5-7DFA-4B53-9786-D575BF0C2E18";
width = 600;
}
);
unicode = 30CE;
},
{
glyphname = "pi-kata";
lastChange = "2020-01-09 18:30:24 +0000";
layers = (
{
layerId = "C80544D9-48F8-4DA0-91C0-E0123F10AF4A";
paths = (
{
closed = 1;
nodes = (
"772 646 LINE",
"772 603 LINE",
"639 603 LINE",
"639 646 LINE"
);
},
{
closed = 1;
nodes = (
"556 547 LINE",
"855 547 LINE",
"855 702 LINE",
"556 702 LINE"
);
},
{
closed = 1;
nodes = (
"855 0 LINE",
"855 155 LINE",
"155 155 LINE",
"155 345 LINE",
"855 345 LINE",
"855 500 LINE",
"155 500 LINE",
"155 675 LINE",
"0 675 LINE",
"0 0 LINE"
);
}
);
width = 895;
},
{
layerId = "9FDCACD5-7DFA-4B53-9786-D575BF0C2E18";
width = 600;
}
);
unicode = 30D4;
},
{
glyphname = "pe-kata";
lastChange = "2020-01-01 02:31:46 +0000";
layers = (
{
layerId = "C80544D9-48F8-4DA0-91C0-E0123F10AF4A";
paths = (
{
closed = 1;
nodes = (
"772 606 LINE",
"772 563 LINE",
"639 563 LINE",
"639 606 LINE"
);
},
{
closed = 1;
nodes = (
"556 507 LINE",
"855 507 LINE",
"855 662 LINE",
"556 662 LINE"
);
}
);
width = 895;
},
{
layerId = "9FDCACD5-7DFA-4B53-9786-D575BF0C2E18";
width = 600;
}
);
unicode = 30DA;
},
{
glyphname = "ho-kata";
lastChange = "2020-01-05 08:12:10 +0000";
layers = (
{
layerId = "C80544D9-48F8-4DA0-91C0-E0123F10AF4A";
paths = (
{
closed = 1;
nodes = (
"505 0 LINE",
"505 345 LINE",
"855 345 LINE",
"855 500 LINE",
"0 500 LINE",
"0 345 LINE",
"350 345 LINE",
"350 0 LINE"
);
},
{
closed = 1;
nodes = (
"128 29 LINE",
"320 170 LINE",
"319 325 LINE",
"20 127 LINE",
"20 29 LINE"
);
},
{
closed = 1;
nodes = (
"835 29 LINE",
"835 127 LINE",
"536 325 LINE",
"535 170 LINE",
"727 29 LINE"
);
},
{
closed = 1;
nodes = (
"505 500 LINE",
"505 578 LINE",
"350 578 LINE",
"350 500 LINE"
);
}
);
width = 895;
},
{
layerId = "9FDCACD5-7DFA-4B53-9786-D575BF0C2E18";
width = 600;
}
);
unicode = 30DB;
},
{
glyphname = "po-kata";
lastChange = "2020-01-01 02:31:46 +0000";
layers = (
{
layerId = "C80544D9-48F8-4DA0-91C0-E0123F10AF4A";
paths = (
{
closed = 1;
nodes = (
"772 640 LINE",
"772 596 LINE",
"639 596 LINE",
"639 640 LINE"
);
},
{
closed = 1;
nodes = (
"556 540 LINE",
"855 540 LINE",
"855 695 LINE",
"556 695 LINE"
);
},
{
closed = 1;
nodes = (
"350 345 LINE",
"350 0 LINE",
"505 0 LINE",
"505 345 LINE",
"855 345 LINE",
"855 500 LINE",
"0 500 LINE",
"0 345 LINE"
);
},
{
closed = 1;
nodes = (
"350 500 LINE",
"505 500 LINE",
"505 578 LINE",
"350 578 LINE"
);
},
{
closed = 1;
nodes = (
"319 325 LINE",
"20 127 LINE",
"20 29 LINE",
"128 29 LINE",
"320 170 LINE"
);
},
{
closed = 1;
nodes = (
"727 29 LINE",
"835 29 LINE",
"835 127 LINE",
"536 325 LINE",
"535 170 LINE"
);
}
);
width = 895;
},
{
layerId = "9FDCACD5-7DFA-4B53-9786-D575BF0C2E18";
width = 600;
}
);
unicode = 30DD;
},
{
glyphname = "yu-kata";
lastChange = "2020-01-01 02:31:46 +0000";
layers = (
{
layerId = "C80544D9-48F8-4DA0-91C0-E0123F10AF4A";
paths = (
{
closed = 1;
nodes = (
"855 0 LINE",
"855 155 LINE",
"645 155 LINE",
"645 500 LINE",
"0 500 LINE",
"0 345 LINE",
"490 345 LINE",
"490 155 LINE",
"0 155 LINE",
"0 0 LINE"
);
}
);
width = 895;
},
{
layerId = "9FDCACD5-7DFA-4B53-9786-D575BF0C2E18";
width = 600;
}
);
unicode = 30E6;
},
{
glyphname = "yo-kata";
lastChange = "2020-01-01 02:31:46 +0000";
layers = (
{
layerId = "C80544D9-48F8-4DA0-91C0-E0123F10AF4A";
paths = (
{
closed = 1;
nodes = (
"855 500 LINE",
"0 500 LINE",
"0 345 LINE",
"700 345 LINE",
"700 325 LINE",
"0 325 LINE",
"0 175 LINE",
"700 175 LINE",
"700 155 LINE",
"0 155 LINE",
"0 0 LINE",
"855 0 LINE"
);
}
);
width = 895;
},
{
layerId = "9FDCACD5-7DFA-4B53-9786-D575BF0C2E18";
width = 600;
}
);
unicode = 30E8;
},
{
glyphname = "ri-kata";
lastChange = "2020-01-01 02:31:46 +0000";
layers = (
{
layerId = "C80544D9-48F8-4DA0-91C0-E0123F10AF4A";
paths = (
{
closed = 1;
nodes = (
"585 500 LINE",
"428 500 LINE",
"428 292 LINE",
"155 160 LINE",
"155 5 LINE",
"244 5 LINE",
"585 174 LINE"
);
},
{
closed = 1;
nodes = (
"0 295 LINE",
"155 295 LINE",
"155 500 LINE",
"0 500 LINE"
);
}
);
width = 625;
},
{
layerId = "9FDCACD5-7DFA-4B53-9786-D575BF0C2E18";
width = 600;
}
);
unicode = 30EA;
},
{
glyphname = "wa-kata";
lastChange = "2020-01-01 02:31:46 +0000";
layers = (
{
layerId = "C80544D9-48F8-4DA0-91C0-E0123F10AF4A";
paths = (
{
closed = 1;
nodes = (
"686 500 LINE",
"529 500 LINE",
"529 274 LINE",
"256 140 LINE",
"256 5 LINE",
"345 5 LINE",
"686 190 LINE"
);
},
{
closed = 1;
nodes = (
"155 234 LINE",
"155 345 LINE",
"531 345 LINE",
"531 345 LINE",
"686 345 LINE",
"686 500 LINE",
"0 500 LINE",
"0 234 LINE"
);
}
);
width = 726;
},
{
layerId = "9FDCACD5-7DFA-4B53-9786-D575BF0C2E18";
width = 600;
}
);
unicode = 30EF;
},
{
glyphname = zero;
lastChange = "2020-01-03 07:53:54 +0000";
layers = (
{
hints = (
{
horizontal = 1;
origin = "{0, 3}";
target = "{1, 3}";
},
{
horizontal = 1;
origin = "{1, 0}";
target = "{0, 2}";
},
{
origin = "{0, 3}";
target = "{1, 3}";
},
{
place = "{700, 155}";
}
);
layerId = "C80544D9-48F8-4DA0-91C0-E0123F10AF4A";
paths = (
{
closed = 1;
nodes = (
"855 0 LINE",
"855 675 LINE",
"0 675 LINE",
"0 0 LINE"
);
},
{
closed = 1;
nodes = (
"155 520 LINE",
"700 520 LINE",
"700 155 LINE",
"155 155 LINE"
);
}
);
width = 875;
},
{
hints = (
{
horizontal = 1;
origin = "{0, 3}";
target = "{1, 3}";
},
{
horizontal = 1;
origin = "{1, 0}";
target = "{0, 2}";
},
{
origin = "{0, 3}";
target = "{1, 3}";
},
{
place = "{755, 40}";
}
);
layerId = "9FDCACD5-7DFA-4B53-9786-D575BF0C2E18";
paths = (
{
closed = 1;
nodes = (
"795 0 LINE",
"795 675 LINE",
"0 675 LINE",
"0 0 LINE"
);
},
{
closed = 1;
nodes = (
"40 635 LINE",
"755 635 LINE",
"755 40 LINE",
"40 40 LINE"
);
}
);
width = 995;
}
);
unicode = 0030;
},
{
glyphname = one;
lastChange = "2020-01-05 05:39:29 +0000";
layers = (
{
hints = (
{
horizontal = 1;
origin = "{0, 9}";
target = "{0, 8}";
},
{
horizontal = 1;
origin = "{0, 5}";
target = "{0, 4}";
},
{
place = "{350, 155}";
}
);
layerId = "C80544D9-48F8-4DA0-91C0-E0123F10AF4A";
paths = (
{
closed = 1;
nodes = (
"855 0 LINE",
"855 155 LINE",
"505 155 LINE",
"505 675 LINE",
"0 675 LINE",
"0 520 LINE",
"350 520 LINE",
"350 155 LINE",
"0 155 LINE",
"0 0 LINE"
);
}
);
width = 875;
},
{
hints = (
{
horizontal = 1;
origin = "{0, 9}";
target = "{0, 8}";
},
{
horizontal = 1;
origin = "{0, 5}";
target = "{0, 4}";
},
{
place = "{378, 40}";
}
);
layerId = "9FDCACD5-7DFA-4B53-9786-D575BF0C2E18";
paths = (
{
closed = 1;
nodes = (
"795 0 LINE",
"795 40 LINE",
"418 40 LINE",
"418 675 LINE",
"0 675 LINE",
"0 635 LINE",
"378 635 LINE",
"378 40 LINE",
"0 40 LINE",
"0 0 LINE"
);
}
);
width = 995;
}
);
unicode = 0031;
},
{
glyphname = two;
lastChange = "2020-01-05 05:47:20 +0000";
layers = (
{
hints = (
{
horizontal = 1;
origin = "{0, 11}";
target = "{0, 2}";
},
{
horizontal = 1;
origin = "{0, 7}";
target = "{0, 6}";
},
{
horizontal = 1;
origin = "{0, 3}";
target = "{0, 10}";
},
{
origin = "{0, 11}";
target = "{0, 2}";
},
{
place = "{700, 155}";
}
);
layerId = "C80544D9-48F8-4DA0-91C0-E0123F10AF4A";
paths = (
{
closed = 1;
nodes = (
"855 0 LINE",
"855 155 LINE",
"155 155 LINE",
"155 350 LINE",
"855 350 LINE",
"855 675 LINE",
"0 675 LINE",
"0 520 LINE",
"700 520 LINE",
"700 500 LINE",
"0 500 LINE",
"0 0 LINE"
);
}
);
width = 875;
},
{
hints = (
{
horizontal = 1;
origin = "{0, 11}";
target = "{0, 2}";
},
{
horizontal = 1;
origin = "{0, 3}";
target = "{0, 10}";
},
{
horizontal = 1;
origin = "{0, 7}";
target = "{0, 6}";
},
{
origin = "{0, 11}";
target = "{0, 2}";
},
{
place = "{755, 40}";
}
);
layerId = "9FDCACD5-7DFA-4B53-9786-D575BF0C2E18";
paths = (
{
closed = 1;
nodes = (
"795 0 LINE",
"795 40 LINE",
"40 40 LINE",
"40 405 LINE",
"795 405 LINE",
"795 675 LINE",
"0 675 LINE",
"0 635 LINE",
"755 635 LINE",
"755 445 LINE",
"0 445 LINE",
"0 0 LINE"
);
}
);
width = 995;
}
);
unicode = 0032;
},
{
glyphname = three;
lastChange = "2020-01-03 08:11:02 +0000";
layers = (
{
hints = (
{
horizontal = 1;
origin = "{0, 11}";
target = "{0, 10}";
},
{
horizontal = 1;
origin = "{0, 3}";
target = "{0, 2}";
},
{
horizontal = 1;
origin = "{0, 7}";
target = "{0, 6}";
},
{
place = "{699, 156}";
}
);
layerId = "C80544D9-48F8-4DA0-91C0-E0123F10AF4A";
paths = (
{
closed = 1;
nodes = (
"855 0 LINE",
"855 675 LINE",
"0 675 LINE",
"0 520 LINE",
"699 520 LINE",
"699 500 LINE",
"0 500 LINE",
"0 350 LINE",
"699 350 LINE",
"699 155 LINE",
"0 155 LINE",
"0 0 LINE"
);
}
);
width = 875;
},
{
hints = (
{
horizontal = 1;
origin = "{0, 11}";
target = "{0, 10}";
},
{
horizontal = 1;
origin = "{0, 7}";
target = "{0, 6}";
},
{
horizontal = 1;
origin = "{0, 3}";
target = "{0, 2}";
},
{
place = "{755, 40}";
}
);
layerId = "9FDCACD5-7DFA-4B53-9786-D575BF0C2E18";
paths = (
{
closed = 1;
nodes = (
"795 0 LINE",
"795 675 LINE",
"0 675 LINE",
"0 635 LINE",
"755 635 LINE",
"755 445 LINE",
"0 445 LINE",
"0 405 LINE",
"755 405 LINE",
"755 40 LINE",
"0 40 LINE",
"0 0 LINE"
);
}
);
width = 995;
}
);
unicode = 0033;
},
{
glyphname = four;
lastChange = "2020-01-03 08:11:06 +0000";
layers = (
{
hints = (
{
horizontal = 1;
origin = "{0, 7}";
target = "{0, 4}";
},
{
place = "{0, 155}";
},
{
place = "{700, 155}";
}
);
layerId = "C80544D9-48F8-4DA0-91C0-E0123F10AF4A";
paths = (
{
closed = 1;
nodes = (
"855 0 LINE",
"855 675 LINE",
"700 675 LINE",
"700 504 LINE",
"155 504 LINE",
"155 675 LINE",
"0 675 LINE",
"0 349 LINE",
"700 349 LINE",
"700 0 LINE"
);
}
);
width = 875;
},
{
hints = (
{
horizontal = 1;
origin = "{0, 7}";
target = "{0, 4}";
},
{
place = "{0, 40}";
},
{
place = "{755, 40}";
}
);
layerId = "9FDCACD5-7DFA-4B53-9786-D575BF0C2E18";
paths = (
{
closed = 1;
nodes = (
"795 0 LINE",
"795 675 LINE",
"755 675 LINE",
"755 445 LINE",
"40 445 LINE",
"40 675 LINE",
"0 675 LINE",
"0 405 LINE",
"755 405 LINE",
"755 0 LINE"
);
}
);
width = 995;
}
);
unicode = 0034;
},
{
glyphname = five;
lastChange = "2020-01-03 08:11:11 +0000";
layers = (
{
hints = (
{
horizontal = 1;
origin = "{0, 11}";
target = "{0, 10}";
},
{
horizontal = 1;
origin = "{0, 3}";
target = "{0, 6}";
},
{
horizontal = 1;
origin = "{0, 7}";
target = "{0, 2}";
},
{
origin = "{0, 11}";
target = "{0, 10}";
},
{
place = "{698, 157}";
}
);
layerId = "C80544D9-48F8-4DA0-91C0-E0123F10AF4A";
paths = (
{
closed = 1;
nodes = (
"855 0 LINE",
"855 500 LINE",
"155 500 LINE",
"155 520 LINE",
"855 520 LINE",
"855 675 LINE",
"0 675 LINE",
"0 350 LINE",
"698 350 LINE",
"698 155 LINE",
"0 155 LINE",
"0 0 LINE"
);
}
);
width = 875;
},
{
hints = (
{
horizontal = 1;
origin = "{0, 11}";
target = "{0, 10}";
},
{
horizontal = 1;
origin = "{0, 7}";
target = "{0, 2}";
},
{
horizontal = 1;
origin = "{0, 3}";
target = "{0, 6}";
},
{
origin = "{0, 11}";
target = "{0, 10}";
},
{
place = "{755, 40}";
}
);
layerId = "9FDCACD5-7DFA-4B53-9786-D575BF0C2E18";
paths = (
{
closed = 1;
nodes = (
"795 0 LINE",
"795 445 LINE",
"40 445 LINE",
"40 635 LINE",
"795 635 LINE",
"795 675 LINE",
"0 675 LINE",
"0 405 LINE",
"755 405 LINE",
"755 40 LINE",
"0 40 LINE",
"0 0 LINE"
);
}
);
width = 995;
}
);
unicode = 0035;
},
{
glyphname = six;
lastChange = "2020-01-03 10:44:21 +0000";
layers = (
{
hints = (
{
horizontal = 1;
origin = "{0, 7}";
target = "{1, 3}";
},
{
horizontal = 1;
origin = "{0, 3}";
target = "{0, 6}";
},
{
horizontal = 1;
origin = "{1, 0}";
target = "{0, 2}";
},
{
origin = "{0, 7}";
target = "{1, 3}";
},
{
place = "{700, 155}";
}
);
layerId = "C80544D9-48F8-4DA0-91C0-E0123F10AF4A";
paths = (
{
closed = 1;
nodes = (
"855 0 LINE",
"855 500 LINE",
"155 500 LINE",
"155 520 LINE",
"855 520 LINE",
"855 675 LINE",
"0 675 LINE",
"0 0 LINE"
);
},
{
closed = 1;
nodes = (
"155 350 LINE",
"700 350 LINE",
"700 155 LINE",
"155 155 LINE"
);
}
);
width = 875;
},
{
hints = (
{
horizontal = 1;
origin = "{0, 7}";
target = "{1, 3}";
},
{
horizontal = 1;
origin = "{1, 0}";
target = "{0, 2}";
},
{
horizontal = 1;
origin = "{0, 3}";
target = "{0, 6}";
},
{
origin = "{0, 7}";
target = "{1, 3}";
},
{
place = "{755, 40}";
}
);
layerId = "9FDCACD5-7DFA-4B53-9786-D575BF0C2E18";
paths = (
{
closed = 1;
nodes = (
"795 0 LINE",
"795 445 LINE",
"40 445 LINE",
"40 635 LINE",
"795 635 LINE",
"795 675 LINE",
"0 675 LINE",
"0 0 LINE"
);
},
{
closed = 1;
nodes = (
"40 405 LINE",
"755 405 LINE",
"755 40 LINE",
"40 40 LINE"
);
}
);
width = 995;
}
);
unicode = 0036;
},
{
glyphname = seven;
lastChange = "2020-01-03 08:10:43 +0000";
layers = (
{
hints = (
{
horizontal = 1;
origin = "{0, 5}";
target = "{0, 4}";
},
{
place = "{700, 155}";
}
);
layerId = "C80544D9-48F8-4DA0-91C0-E0123F10AF4A";
paths = (
{
closed = 1;
nodes = (
"700 520 LINE",
"700 0 LINE",
"855 0 LINE",
"855 675 LINE",
"0 675 LINE",
"0 520 LINE"
);
}
);
width = 875;
},
{
hints = (
{
horizontal = 1;
origin = "{0, 5}";
target = "{0, 4}";
},
{
place = "{755, 40}";
}
);
layerId = "9FDCACD5-7DFA-4B53-9786-D575BF0C2E18";
paths = (
{
closed = 1;
nodes = (
"755 635 LINE",
"755 0 LINE",
"795 0 LINE",
"795 675 LINE",
"0 675 LINE",
"0 635 LINE"
);
}
);
width = 995;
}
);
unicode = 0037;
},
{
glyphname = eight;
lastChange = "2020-01-09 10:17:00 +0000";
layers = (
{
hints = (
{
horizontal = 1;
origin = "{0, 7}";
target = "{1, 3}";
},
{
horizontal = 1;
origin = "{2, 0}";
target = "{0, 4}";
},
{
horizontal = 1;
origin = "{1, 0}";
target = "{2, 3}";
},
{
origin = "{0, 7}";
target = "{1, 3}";
},
{
place = "{700, 155}";
}
);
layerId = "C80544D9-48F8-4DA0-91C0-E0123F10AF4A";
paths = (
{
closed = 1;
nodes = (
"855 0 LINE",
"855 500 LINE",
"700 500 LINE",
"700 675 LINE",
"153 675 LINE",
"153 500 LINE",
"0 500 LINE",
"0 0 LINE"
);
},
{
closed = 1;
nodes = (
"155 350 LINE",
"700 350 LINE",
"700 155 LINE",
"155 155 LINE"
);
},
{
closed = 1;
nodes = (
"308 520 LINE",
"540 520 LINE",
"540 500 LINE",
"308 500 LINE"
);
}
);
width = 875;
},
{
hints = (
{
horizontal = 1;
origin = "{0, 7}";
target = "{1, 3}";
},
{
horizontal = 1;
origin = "{1, 0}";
target = "{2, 3}";
},
{
horizontal = 1;
origin = "{2, 0}";
target = "{0, 4}";
},
{
origin = "{0, 7}";
target = "{1, 3}";
},
{
place = "{755, 40}";
}
);
layerId = "9FDCACD5-7DFA-4B53-9786-D575BF0C2E18";
paths = (
{
closed = 1;
nodes = (
"795 0 LINE",
"795 445 LINE",
"715 445 LINE",
"715 675 LINE",
"80 675 LINE",
"80 445 LINE",
"0 445 LINE",
"0 0 LINE"
);
},
{
closed = 1;
nodes = (
"40 405 LINE",
"755 405 LINE",
"755 40 LINE",
"40 40 LINE"
);
},
{
closed = 1;
nodes = (
"120 635 LINE",
"675 635 LINE",
"675 445 LINE",
"120 445 LINE"
);
}
);
width = 995;
}
);
unicode = 0038;
},
{
glyphname = nine;
lastChange = "2020-01-03 08:11:21 +0000";
layers = (
{
hints = (
{
horizontal = 1;
origin = "{0, 7}";
target = "{0, 6}";
},
{
horizontal = 1;
origin = "{1, 0}";
target = "{0, 2}";
},
{
horizontal = 1;
origin = "{0, 3}";
target = "{1, 3}";
},
{
origin = "{0, 7}";
target = "{0, 6}";
},
{
place = "{700, 155}";
}
);
layerId = "C80544D9-48F8-4DA0-91C0-E0123F10AF4A";
paths = (
{
closed = 1;
nodes = (
"855 0 LINE",
"855 675 LINE",
"0 675 LINE",
"0 350 LINE",
"700 350 LINE",
"700 155 LINE",
"0 155 LINE",
"0 0 LINE"
);
},
{
closed = 1;
nodes = (
"155 520 LINE",
"700 520 LINE",
"700 502 LINE",
"155 502 LINE"
);
}
);
width = 875;
},
{
hints = (
{
horizontal = 1;
origin = "{0, 7}";
target = "{0, 6}";
},
{
horizontal = 1;
origin = "{0, 3}";
target = "{1, 3}";
},
{
horizontal = 1;
origin = "{1, 0}";
target = "{0, 2}";
},
{
origin = "{0, 7}";
target = "{0, 6}";
},
{
place = "{755, 40}";
}
);
layerId = "9FDCACD5-7DFA-4B53-9786-D575BF0C2E18";
paths = (
{
closed = 1;
nodes = (
"795 0 LINE",
"795 675 LINE",
"0 675 LINE",
"0 405 LINE",
"755 405 LINE",
"755 40 LINE",
"0 40 LINE",
"0 0 LINE"
);
},
{
closed = 1;
nodes = (
"40 635 LINE",
"755 635 LINE",
"755 445 LINE",
"40 445 LINE"
);
}
);
width = 995;
}
);
unicode = 0039;
},
{
glyphname = one.ss01;
lastChange = "2020-01-25 01:38:38 +0000";
layers = (
{
layerId = "C80544D9-48F8-4DA0-91C0-E0123F10AF4A";
paths = (
{
closed = 1;
nodes = (
"855 0 LINE",
"855 155 LINE",
"505 155 LINE",
"505 500 LINE",
"0 500 LINE",
"0 345 LINE",
"350 345 LINE",
"350 155 LINE",
"0 155 LINE",
"0 0 LINE"
);
}
);
width = 875;
},
{
hints = (
{
horizontal = 1;
origin = "{0, 9}";
target = "{0, 8}";
},
{
horizontal = 1;
origin = "{0, 5}";
target = "{0, 4}";
},
{
place = "{378, 40}";
}
);
layerId = "9FDCACD5-7DFA-4B53-9786-D575BF0C2E18";
paths = (
{
closed = 1;
nodes = (
"795 0 LINE",
"795 40 LINE",
"418 40 LINE",
"418 500 LINE",
"0 500 LINE",
"0 460 LINE",
"378 460 LINE",
"378 40 LINE",
"0 40 LINE",
"0 0 LINE"
);
}
);
width = 995;
}
);
},
{
glyphname = two.ss01;
lastChange = "2020-01-25 01:38:47 +0000";
layers = (
{
layerId = "C80544D9-48F8-4DA0-91C0-E0123F10AF4A";
paths = (
{
closed = 1;
nodes = (
"855 0 LINE",
"855 155 LINE",
"155 155 LINE",
"155 175 LINE",
"855 175 LINE",
"855 500 LINE",
"0 500 LINE",
"0 345 LINE",
"700 345 LINE",
"700 325 LINE",
"0 325 LINE",
"0 0 LINE"
);
}
);
width = 875;
},
{
layerId = "9FDCACD5-7DFA-4B53-9786-D575BF0C2E18";
paths = (
{
closed = 1;
nodes = (
"795 0 LINE",
"795 40 LINE",
"40 40 LINE",
"40 230 LINE",
"795 230 LINE",
"795 500 LINE",
"0 500 LINE",
"0 460 LINE",
"755 460 LINE",
"755 270 LINE",
"0 270 LINE",
"0 0 LINE"
);
}
);
width = 995;
}
);
},
{
glyphname = three.ss01;
lastChange = "2020-01-25 01:38:54 +0000";
layers = (
{
layerId = "C80544D9-48F8-4DA0-91C0-E0123F10AF4A";
paths = (
{
closed = 1;
nodes = (
"855 0 LINE",
"855 500 LINE",
"0 500 LINE",
"0 345 LINE",
"699 345 LINE",
"699 325 LINE",
"0 325 LINE",
"0 175 LINE",
"699 175 LINE",
"699 155 LINE",
"0 155 LINE",
"0 0 LINE"
);
}
);
width = 875;
},
{
layerId = "9FDCACD5-7DFA-4B53-9786-D575BF0C2E18";
paths = (
{
closed = 1;
nodes = (
"795 0 LINE",
"795 500 LINE",
"0 500 LINE",
"0 460 LINE",
"755 460 LINE",
"755 270 LINE",
"0 270 LINE",
"0 230 LINE",
"755 230 LINE",
"755 40 LINE",
"0 40 LINE",
"0 0 LINE"
);
}
);
width = 995;
}
);
},
{
glyphname = four.ss01;
lastChange = "2020-01-25 01:38:58 +0000";
layers = (
{
layerId = "C80544D9-48F8-4DA0-91C0-E0123F10AF4A";
paths = (
{
closed = 1;
nodes = (
"855 0 LINE",
"855 500 LINE",
"700 500 LINE",
"700 329 LINE",
"155 329 LINE",
"155 500 LINE",
"0 500 LINE",
"0 174 LINE",
"700 174 LINE",
"700 0 LINE"
);
}
);
width = 875;
},
{
layerId = "9FDCACD5-7DFA-4B53-9786-D575BF0C2E18";
paths = (
{
closed = 1;
nodes = (
"795 0 LINE",
"795 500 LINE",
"755 500 LINE",
"755 270 LINE",
"40 270 LINE",
"40 500 LINE",
"0 500 LINE",
"0 230 LINE",
"755 230 LINE",
"755 0 LINE"
);
}
);
width = 995;
}
);
},
{
glyphname = five.ss01;
lastChange = "2020-01-25 01:39:33 +0000";
layers = (
{
layerId = "C80544D9-48F8-4DA0-91C0-E0123F10AF4A";
paths = (
{
closed = 1;
nodes = (
"855 0 LINE",
"855 326 LINE",
"155 326 LINE",
"155 346 LINE",
"855 346 LINE",
"855 501 LINE",
"0 501 LINE",
"0 176 LINE",
"698 176 LINE",
"698 155 LINE",
"0 155 LINE",
"0 0 LINE"
);
}
);
width = 875;
},
{
layerId = "9FDCACD5-7DFA-4B53-9786-D575BF0C2E18";
paths = (
{
closed = 1;
nodes = (
"795 0 LINE",
"795 270 LINE",
"40 270 LINE",
"40 460 LINE",
"795 460 LINE",
"795 500 LINE",
"0 500 LINE",
"0 230 LINE",
"755 230 LINE",
"755 40 LINE",
"0 40 LINE",
"0 0 LINE"
);
}
);
width = 995;
}
);
},
{
glyphname = six.ss01;
lastChange = "2020-01-03 07:52:35 +0000";
layers = (
{
layerId = "C80544D9-48F8-4DA0-91C0-E0123F10AF4A";
paths = (
{
closed = 1;
nodes = (
"855 0 LINE",
"855 325 LINE",
"155 325 LINE",
"155 345 LINE",
"855 345 LINE",
"855 500 LINE",
"0 500 LINE",
"0 0 LINE"
);
},
{
closed = 1;
nodes = (
"155 175 LINE",
"700 175 LINE",
"700 155 LINE",
"155 155 LINE"
);
}
);
width = 875;
},
{
layerId = "9FDCACD5-7DFA-4B53-9786-D575BF0C2E18";
paths = (
{
closed = 1;
nodes = (
"795 0 LINE",
"795 270 LINE",
"40 270 LINE",
"40 460 LINE",
"795 460 LINE",
"795 500 LINE",
"0 500 LINE",
"0 0 LINE"
);
},
{
closed = 1;
nodes = (
"40 230 LINE",
"755 230 LINE",
"755 40 LINE",
"40 40 LINE"
);
}
);
width = 995;
}
);
},
{
glyphname = seven.ss01;
lastChange = "2020-01-22 05:50:05 +0000";
layers = (
{
layerId = "C80544D9-48F8-4DA0-91C0-E0123F10AF4A";
paths = (
{
closed = 1;
nodes = (
"700 345 LINE",
"700 0 LINE",
"855 0 LINE",
"855 500 LINE",
"0 500 LINE",
"0 345 LINE"
);
}
);
width = 875;
},
{
layerId = "9FDCACD5-7DFA-4B53-9786-D575BF0C2E18";
paths = (
{
closed = 1;
nodes = (
"755 460 LINE",
"755 0 LINE",
"795 0 LINE",
"795 500 LINE",
"0 500 LINE",
"0 460 LINE"
);
}
);
width = 995;
}
);
},
{
glyphname = eight.ss01;
lastChange = "2020-01-03 07:52:58 +0000";
layers = (
{
layerId = "C80544D9-48F8-4DA0-91C0-E0123F10AF4A";
paths = (
{
closed = 1;
nodes = (
"855 0 LINE",
"855 500 LINE",
"0 500 LINE",
"0 0 LINE"
);
},
{
closed = 1;
nodes = (
"155 175 LINE",
"700 175 LINE",
"700 155 LINE",
"155 155 LINE"
);
},
{
closed = 1;
nodes = (
"155 345 LINE",
"700 345 LINE",
"700 325 LINE",
"155 325 LINE"
);
}
);
width = 875;
},
{
layerId = "9FDCACD5-7DFA-4B53-9786-D575BF0C2E18";
paths = (
{
closed = 1;
nodes = (
"795 0 LINE",
"795 500 LINE",
"0 500 LINE",
"0 0 LINE"
);
},
{
closed = 1;
nodes = (
"40 230 LINE",
"755 230 LINE",
"755 40 LINE",
"40 40 LINE"
);
},
{
closed = 1;
nodes = (
"40 460 LINE",
"755 460 LINE",
"755 270 LINE",
"40 270 LINE"
);
}
);
width = 995;
}
);
},
{
glyphname = nine.ss01;
lastChange = "2020-01-03 07:53:12 +0000";
layers = (
{
layerId = "C80544D9-48F8-4DA0-91C0-E0123F10AF4A";
paths = (
{
closed = 1;
nodes = (
"855 0 LINE",
"855 500 LINE",
"0 500 LINE",
"0 175 LINE",
"700 175 LINE",
"700 155 LINE",
"0 155 LINE",
"0 0 LINE"
);
},
{
closed = 1;
nodes = (
"155 345 LINE",
"700 345 LINE",
"700 327 LINE",
"155 327 LINE"
);
}
);
width = 875;
},
{
layerId = "9FDCACD5-7DFA-4B53-9786-D575BF0C2E18";
paths = (
{
closed = 1;
nodes = (
"795 0 LINE",
"795 500 LINE",
"0 500 LINE",
"0 230 LINE",
"755 230 LINE",
"755 40 LINE",
"0 40 LINE",
"0 0 LINE"
);
},
{
closed = 1;
nodes = (
"40 460 LINE",
"755 460 LINE",
"755 270 LINE",
"40 270 LINE"
);
}
);
width = 995;
}
);
},
{
glyphname = fraction;
lastChange = "2020-01-09 23:57:01 +0000";
layers = (
{
layerId = "C80544D9-48F8-4DA0-91C0-E0123F10AF4A";
paths = (
{
closed = 1;
nodes = (
"88 0 LINE",
"855 375 LINE",
"855 500 LINE",
"755 500 LINE",
"0 128 LINE",
"0 0 LINE"
);
}
);
width = 875;
},
{
layerId = "9FDCACD5-7DFA-4B53-9786-D575BF0C2E18";
paths = (
{
closed = 1;
nodes = (
"20 0 LINE",
"795 470 LINE",
"795 500 LINE",
"775 500 LINE",
"0 30 LINE",
"0 0 LINE"
);
}
);
width = 995;
}
);
unicode = 2044;
},
{
glyphname = asterisk;
lastChange = "2020-01-04 08:16:05 +0000";
layers = (
{
layerId = "C80544D9-48F8-4DA0-91C0-E0123F10AF4A";
paths = (
{
closed = 1;
nodes = (
"197 560 LINE",
"197 592 LINE",
"115 670 LINE",
"0 670 LINE",
"0 560 LINE"
);
},
{
closed = 1;
nodes = (
"418 560 LINE",
"418 670 LINE",
"299 670 LINE",
"217 592 LINE",
"217 560 LINE"
);
},
{
closed = 1;
nodes = (
"0 690 LINE",
"115 690 LINE",
"197 768 LINE",
"197 800 LINE",
"0 800 LINE"
);
},
{
closed = 1;
nodes = (
"217 768 LINE",
"299 690 LINE",
"418 690 LINE",
"418 800 LINE",
"217 800 LINE"
);
}
);
width = 438;
},
{
layerId = "9FDCACD5-7DFA-4B53-9786-D575BF0C2E18";
paths = (
{
closed = 1;
nodes = (
"177 560 LINE",
"177 572 LINE",
"95 650 LINE",
"0 650 LINE",
"0 560 LINE"
);
},
{
closed = 1;
nodes = (
"418 560 LINE",
"418 650 LINE",
"319 650 LINE",
"237 572 LINE",
"237 560 LINE"
);
},
{
closed = 1;
nodes = (
"0 710 LINE",
"95 710 LINE",
"177 788 LINE",
"177 800 LINE",
"0 800 LINE"
);
},
{
closed = 1;
nodes = (
"237 788 LINE",
"319 710 LINE",
"418 710 LINE",
"418 800 LINE",
"237 800 LINE"
);
}
);
width = 618;
}
);
unicode = 002A;
},
{
glyphname = backslash;
lastChange = "2020-01-12 22:17:15 +0000";
layers = (
{
layerId = "C80544D9-48F8-4DA0-91C0-E0123F10AF4A";
paths = (
{
closed = 1;
nodes = (
"855 0 LINE",
"855 135 LINE",
"100 675 LINE",
"0 675 LINE",
"0 540 LINE",
"755 0 LINE"
);
}
);
width = 875;
},
{
layerId = "9FDCACD5-7DFA-4B53-9786-D575BF0C2E18";
paths = (
{
closed = 1;
nodes = (
"795 0 LINE",
"795 40 LINE",
"20 675 LINE",
"0 675 LINE",
"0 636 LINE",
"773 0 LINE"
);
}
);
width = 995;
}
);
unicode = 005C;
},
{
glyphname = periodcentered;
lastChange = "2020-01-22 06:06:50 +0000";
layers = (
{
layerId = "C80544D9-48F8-4DA0-91C0-E0123F10AF4A";
paths = (
{
closed = 1;
nodes = (
"150 170 LINE",
"305 170 LINE",
"305 325 LINE",
"150 325 LINE"
);
}
);
width = 455;
},
{
layerId = "9FDCACD5-7DFA-4B53-9786-D575BF0C2E18";
paths = (
{
closed = 1;
nodes = (
"335 192 LINE",
"335 262 LINE",
"230 262 LINE",
"230 192 LINE"
);
}
);
width = 600;
}
);
unicode = 00B7;
},
{
glyphname = colon;
lastChange = "2020-01-19 08:39:27 +0000";
layers = (
{
layerId = "C80544D9-48F8-4DA0-91C0-E0123F10AF4A";
paths = (
{
closed = 1;
nodes = (
"155 345 LINE",
"155 500 LINE",
"0 500 LINE",
"0 345 LINE"
);
},
{
closed = 1;
nodes = (
"155 0 LINE",
"155 155 LINE",
"0 155 LINE",
"0 0 LINE"
);
}
);
width = 175;
},
{
layerId = "9FDCACD5-7DFA-4B53-9786-D575BF0C2E18";
paths = (
{
closed = 1;
nodes = (
"105 430 LINE",
"105 500 LINE",
"0 500 LINE",
"0 430 LINE"
);
},
{
closed = 1;
nodes = (
"105 0 LINE",
"105 70 LINE",
"0 70 LINE",
"0 0 LINE"
);
}
);
width = 240;
}
);
unicode = 003A;
},
{
glyphname = comma;
lastChange = "2020-01-19 08:44:02 +0000";
layers = (
{
layerId = "C80544D9-48F8-4DA0-91C0-E0123F10AF4A";
paths = (
{
closed = 1;
nodes = (
"76 0 LINE",
"76 -63 LINE",
"97 -63 LINE",
"154 0 LINE",
"154 157 LINE",
"0 157 LINE",
"0 0 LINE"
);
}
);
width = 174;
},
{
layerId = "9FDCACD5-7DFA-4B53-9786-D575BF0C2E18";
paths = (
{
closed = 1;
nodes = (
"53 0 LINE",
"53 -44 LINE",
"64 -44 LINE",
"105 0 LINE",
"105 70 LINE",
"0 70 LINE",
"0 0 LINE"
);
}
);
width = 305;
}
);
unicode = 002C;
},
{
glyphname = exclam;
lastChange = "2020-01-19 08:48:43 +0000";
layers = (
{
hints = (
{
horizontal = 1;
origin = "{0, 1}";
target = "{0, 2}";
},
{
origin = "{0, 2}";
target = "{0, 1}";
},
{
horizontal = 1;
origin = "{1, 0}";
target = "{1, 1}";
}
);
layerId = "C80544D9-48F8-4DA0-91C0-E0123F10AF4A";
paths = (
{
closed = 1;
nodes = (
"245 175 LINE",
"245 675 LINE",
"90 675 LINE",
"90 175 LINE"
);
},
{
closed = 1;
nodes = (
"245 0 LINE",
"245 155 LINE",
"90 155 LINE",
"90 0 LINE"
);
}
);
width = 365;
},
{
hints = (
{
horizontal = 1;
origin = "{1, 3}";
target = "{1, 2}";
},
{
origin = "{0, 2}";
target = "{0, 1}";
}
);
layerId = "9FDCACD5-7DFA-4B53-9786-D575BF0C2E18";
paths = (
{
closed = 1;
nodes = (
"120 175 LINE",
"120 675 LINE",
"80 675 LINE",
"80 175 LINE"
);
},
{
closed = 1;
nodes = (
"151 0 LINE",
"151 70 LINE",
"46 70 LINE",
"46 0 LINE"
);
}
);
width = 420;
}
);
unicode = 0021;
},
{
glyphname = numbersign;
lastChange = "2020-01-24 03:45:14 +0000";
layers = (
{
layerId = "C80544D9-48F8-4DA0-91C0-E0123F10AF4A";
paths = (
{
closed = 1;
nodes = (
"203.794 175 LINE",
"104 58 LINE",
"104 0 LINE",
"148 0 LINE",
"298.618 175 LINE",
"443.794 175 LINE",
"344 58 LINE",
"344 0 LINE",
"388 0 LINE",
"538.618 175 LINE",
"875 175 LINE",
"875 235 LINE",
"590.258 235 LINE",
"616.079 265 LINE",
"875 265 LINE",
"875 325 LINE",
"667.719 325 LINE",
"771 445 LINE",
"771 500 LINE",
"721 500 LINE",
"571.735 325 LINE",
"427.719 325 LINE",
"531 445 LINE",
"531 500 LINE",
"481 500 LINE",
"331.735 325 LINE",
"20 325 LINE",
"20 265 LINE",
"280.559 265 LINE",
"254.971 235 LINE",
"20 235 LINE",
"20 175 LINE"
);
},
{
closed = 1;
nodes = (
"376.079 265 LINE",
"520.559 265 LINE",
"494.971 235 LINE",
"350.258 235 LINE"
);
}
);
width = 915;
},
{
layerId = "9FDCACD5-7DFA-4B53-9786-D575BF0C2E18";
paths = (
{
closed = 1;
nodes = (
"304 165 LINE",
"194 28 LINE",
"194 0 LINE",
"228 0 LINE",
"359 165 LINE",
"544 165 LINE",
"434 28 LINE",
"434 0 LINE",
"468 0 LINE",
"599 165 LINE",
"955 165 LINE",
"955 205 LINE",
"620 205 LINE",
"676 275 LINE",
"955 275 LINE",
"955 315 LINE",
"708 315 LINE",
"841 475 LINE",
"841 500 LINE",
"801 500 LINE",
"652 315 LINE",
"468 315 LINE",
"601 475 LINE",
"601 500 LINE",
"561 500 LINE",
"412 315 LINE",
"100 315 LINE",
"100 275 LINE",
"381 275 LINE",
"325 205 LINE",
"100 205 LINE",
"100 165 LINE"
);
},
{
closed = 1;
nodes = (
"436 275 LINE",
"621 275 LINE",
"565 205 LINE",
"380 205 LINE"
);
}
);
width = 1155;
}
);
unicode = 0023;
},
{
glyphname = period;
lastChange = "2020-01-20 21:37:53 +0000";
layers = (
{
layerId = "C80544D9-48F8-4DA0-91C0-E0123F10AF4A";
paths = (
{
closed = 1;
nodes = (
"155 0 LINE",
"155 155 LINE",
"0 155 LINE",
"0 0 LINE"
);
}
);
width = 175;
},
{
layerId = "9FDCACD5-7DFA-4B53-9786-D575BF0C2E18";
paths = (
{
closed = 1;
nodes = (
"105 0 LINE",
"105 70 LINE",
"0 70 LINE",
"0 0 LINE"
);
}
);
width = 290;
}
);
unicode = 002E;
},
{
glyphname = question;
lastChange = "2020-01-19 08:41:19 +0000";
layers = (
{
layerId = "C80544D9-48F8-4DA0-91C0-E0123F10AF4A";
paths = (
{
closed = 1;
nodes = (
"699 520 LINE",
"699 500 LINE",
"339 500 LINE",
"339 173 LINE",
"494 173 LINE",
"494 345 LINE",
"855 345 LINE",
"855 675 LINE",
"0 675 LINE",
"0 520 LINE"
);
},
{
closed = 1;
nodes = (
"494 0 LINE",
"494 155 LINE",
"339 155 LINE",
"339 0 LINE"
);
}
);
width = 875;
},
{
layerId = "9FDCACD5-7DFA-4B53-9786-D575BF0C2E18";
paths = (
{
closed = 1;
nodes = (
"755 635 LINE",
"755 445 LINE",
"380 445 LINE",
"380 230 LINE",
"420 230 LINE",
"420 405 LINE",
"795 405 LINE",
"795 675 LINE",
"0 675 LINE",
"0 635 LINE"
);
},
{
closed = 1;
nodes = (
"453 0 LINE",
"453 70 LINE",
"348 70 LINE",
"348 0 LINE"
);
}
);
width = 995;
}
);
unicode = 003F;
},
{
glyphname = questiondown;
lastChange = "2020-01-05 06:29:04 +0000";
layers = (
{
layerId = "C80544D9-48F8-4DA0-91C0-E0123F10AF4A";
paths = (
{
closed = 1;
nodes = (
"156 -20 LINE",
"156 0 LINE",
"516 0 LINE",
"516 327 LINE",
"361 327 LINE",
"361 155 LINE",
"0 155 LINE",
"0 -175 LINE",
"855 -175 LINE",
"855 -20 LINE"
);
},
{
closed = 1;
nodes = (
"361 500 LINE",
"361 345 LINE",
"516 345 LINE",
"516 500 LINE"
);
}
);
width = 700;
},
{
layerId = "9FDCACD5-7DFA-4B53-9786-D575BF0C2E18";
paths = (
{
closed = 1;
nodes = (
"40 -135 LINE",
"40 55 LINE",
"415 55 LINE",
"415 270 LINE",
"375 270 LINE",
"375 95 LINE",
"0 95 LINE",
"0 -175 LINE",
"795 -175 LINE",
"795 -135 LINE"
);
},
{
closed = 1;
nodes = (
"375 500 LINE",
"375 460 LINE",
"415 460 LINE",
"415 500 LINE"
);
}
);
width = 755;
}
);
unicode = 00BF;
},
{
glyphname = quotedbl;
lastChange = "2020-01-19 08:37:18 +0000";
layers = (
{
layerId = "C80544D9-48F8-4DA0-91C0-E0123F10AF4A";
paths = (
{
closed = 1;
nodes = (
"76 518 LINE",
"76 456 LINE",
"97 456 LINE",
"155 518 LINE",
"155 670 LINE",
"0 670 LINE",
"0 518 LINE"
);
},
{
closed = 1;
nodes = (
"251 518 LINE",
"251 456 LINE",
"272 456 LINE",
"330 518 LINE",
"330 670 LINE",
"175 670 LINE",
"175 518 LINE"
);
}
);
width = 350;
},
{
layerId = "9FDCACD5-7DFA-4B53-9786-D575BF0C2E18";
paths = (
{
closed = 1;
nodes = (
"11 594 LINE",
"11 550 LINE",
"22 550 LINE",
"40 594 LINE",
"40 700 LINE",
"0 700 LINE",
"0 594 LINE"
);
},
{
closed = 1;
nodes = (
"131 594 LINE",
"131 550 LINE",
"142 550 LINE",
"160 594 LINE",
"160 700 LINE",
"120 700 LINE",
"120 594 LINE"
);
}
);
width = 360;
}
);
unicode = 0022;
},
{
glyphname = quotesingle;
lastChange = "2020-01-19 08:36:57 +0000";
layers = (
{
layerId = "C80544D9-48F8-4DA0-91C0-E0123F10AF4A";
paths = (
{
closed = 1;
nodes = (
"76 518 LINE",
"76 456 LINE",
"97 456 LINE",
"154 518 LINE",
"154 670 LINE",
"0 670 LINE",
"0 518 LINE"
);
}
);
width = 174;
},
{
layerId = "9FDCACD5-7DFA-4B53-9786-D575BF0C2E18";
paths = (
{
closed = 1;
nodes = (
"12 594 LINE",
"12 550 LINE",
"23 550 LINE",
"41 594 LINE",
"41 700 LINE",
"1 700 LINE",
"1 594 LINE"
);
}
);
width = 240;
}
);
unicode = 0027;
},
{
glyphname = semicolon;
lastChange = "2020-01-20 21:05:04 +0000";
layers = (
{
layerId = "C80544D9-48F8-4DA0-91C0-E0123F10AF4A";
paths = (
{
closed = 1;
nodes = (
"97 -63 LINE",
"155 0 LINE",
"155 155 LINE",
"0 155 LINE",
"0 0 LINE",
"76 0 LINE",
"76 -63 LINE"
);
},
{
closed = 1;
nodes = (
"155 345 LINE",
"155 500 LINE",
"0 500 LINE",
"0 345 LINE"
);
}
);
width = 174;
},
{
layerId = "9FDCACD5-7DFA-4B53-9786-D575BF0C2E18";
paths = (
{
closed = 1;
nodes = (
"64 -44 LINE",
"105 0 LINE",
"105 70 LINE",
"0 70 LINE",
"0 0 LINE",
"53 0 LINE",
"53 -44 LINE"
);
},
{
closed = 1;
nodes = (
"105 430 LINE",
"105 500 LINE",
"0 500 LINE",
"0 430 LINE"
);
}
);
width = 240;
}
);
unicode = 003B;
},
{
glyphname = slash;
lastChange = "2020-01-04 08:12:28 +0000";
layers = (
{
layerId = "C80544D9-48F8-4DA0-91C0-E0123F10AF4A";
paths = (
{
closed = 1;
nodes = (
"100 0 LINE",
"855 540 LINE",
"855 675 LINE",
"755 675 LINE",
"0 135 LINE",
"0 0 LINE"
);
}
);
width = 875;
},
{
layerId = "9FDCACD5-7DFA-4B53-9786-D575BF0C2E18";
paths = (
{
closed = 1;
nodes = (
"22 0 LINE",
"795 636 LINE",
"795 675 LINE",
"775 675 LINE",
"0 40 LINE",
"0 0 LINE"
);
}
);
width = 995;
}
);
unicode = 002F;
},
{
glyphname = underscore;
lastChange = "2020-01-10 03:03:14 +0000";
layers = (
{
layerId = "C80544D9-48F8-4DA0-91C0-E0123F10AF4A";
paths = (
{
closed = 1;
nodes = (
"855 -291 LINE",
"855 -136 LINE",
"0 -136 LINE",
"0 -291 LINE"
);
}
);
width = 875;
},
{
layerId = "9FDCACD5-7DFA-4B53-9786-D575BF0C2E18";
paths = (
{
closed = 1;
nodes = (
"795 -175 LINE",
"795 -135 LINE",
"0 -135 LINE",
"0 -175 LINE"
);
}
);
width = 995;
}
);
unicode = 005F;
},
{
glyphname = slash.ss01;
lastChange = "2020-01-09 23:56:11 +0000";
layers = (
{
layerId = "C80544D9-48F8-4DA0-91C0-E0123F10AF4A";
paths = (
{
closed = 1;
nodes = (
"100 0 LINE",
"855 375 LINE",
"855 500 LINE",
"755 500 LINE",
"0 128 LINE",
"0 0 LINE"
);
}
);
width = 875;
},
{
layerId = "9FDCACD5-7DFA-4B53-9786-D575BF0C2E18";
paths = (
{
closed = 1;
nodes = (
"20 0 LINE",
"795 470 LINE",
"795 500 LINE",
"775 500 LINE",
"0 30 LINE",
"0 0 LINE"
);
}
);
width = 995;
}
);
},
{
glyphname = braceleft;
lastChange = "2020-01-24 04:49:11 +0000";
layers = (
{
layerId = "C80544D9-48F8-4DA0-91C0-E0123F10AF4A";
paths = (
{
closed = 1;
nodes = (
"0 170 LINE",
"0 -288 LINE",
"430 -289 LINE",
"430 -134 LINE",
"160 -134 LINE",
"160 735 LINE",
"430 735 LINE",
"430 890 LINE",
"0 890 LINE",
"0 325 LINE",
"-150 325 LINE",
"-150 170 LINE"
);
}
);
width = 424;
},
{
layerId = "9FDCACD5-7DFA-4B53-9786-D575BF0C2E18";
paths = (
{
closed = 1;
nodes = (
"0 337 LINE",
"0 -175 LINE",
"310 -175 LINE",
"310 -135 LINE",
"40 -135 LINE",
"40 850 LINE",
"310 850 LINE",
"310 890 LINE",
"0 890 LINE",
"0 377 LINE",
"-120 377 LINE",
"-120 337 LINE"
);
}
);
width = 310;
}
);
unicode = 007B;
},
{
glyphname = braceright;
lastChange = "2020-01-24 04:45:41 +0000";
layers = (
{
layerId = "C80544D9-48F8-4DA0-91C0-E0123F10AF4A";
paths = (
{
closed = 1;
nodes = (
"574 325 LINE",
"430 325 LINE",
"430 890 LINE",
"0 890 LINE",
"0 735 LINE",
"266 735 LINE",
"266 -134 LINE",
"0 -134 LINE",
"0 -289 LINE",
"430 -288 LINE",
"430 170 LINE",
"574 170 LINE"
);
}
);
width = 594;
},
{
layerId = "9FDCACD5-7DFA-4B53-9786-D575BF0C2E18";
paths = (
{
closed = 1;
nodes = (
"230 377 LINE",
"110 377 LINE",
"110 890 LINE",
"-200 890 LINE",
"-200 850 LINE",
"70 850 LINE",
"70 -135 LINE",
"-200 -135 LINE",
"-200 -175 LINE",
"110 -175 LINE",
"110 337 LINE",
"230 337 LINE"
);
}
);
width = 430;
}
);
unicode = 007D;
},
{
glyphname = bracketleft;
lastChange = "2020-01-10 02:38:12 +0000";
layers = (
{
layerId = "C80544D9-48F8-4DA0-91C0-E0123F10AF4A";
paths = (
{
closed = 1;
nodes = (
"430 -290 LINE",
"430 -135 LINE",
"155 -135 LINE",
"155 735 LINE",
"430 735 LINE",
"430 890 LINE",
"0 890 LINE",
"0 -290 LINE"
);
}
);
width = 425;
},
{
layerId = "9FDCACD5-7DFA-4B53-9786-D575BF0C2E18";
paths = (
{
closed = 1;
nodes = (
"310 -175 LINE",
"310 -135 LINE",
"40 -135 LINE",
"40 850 LINE",
"310 850 LINE",
"310 890 LINE",
"0 890 LINE",
"0 -175 LINE"
);
}
);
width = 310;
}
);
unicode = 005B;
},
{
glyphname = bracketright;
lastChange = "2020-01-24 04:45:29 +0000";
layers = (
{
layerId = "C80544D9-48F8-4DA0-91C0-E0123F10AF4A";
paths = (
{
closed = 1;
nodes = (
"430 -290 LINE",
"430 890 LINE",
"0 890 LINE",
"0 735 LINE",
"275 735 LINE",
"275 -135 LINE",
"0 -135 LINE",
"0 -290 LINE"
);
}
);
width = 450;
},
{
layerId = "9FDCACD5-7DFA-4B53-9786-D575BF0C2E18";
paths = (
{
closed = 1;
nodes = (
"110 -175 LINE",
"110 890 LINE",
"-200 890 LINE",
"-200 850 LINE",
"70 850 LINE",
"70 -135 LINE",
"-200 -135 LINE",
"-200 -175 LINE"
);
}
);
width = 310;
}
);
unicode = 005D;
},
{
glyphname = parenleft;
lastChange = "2020-01-24 04:46:43 +0000";
layers = (
{
layerId = "C80544D9-48F8-4DA0-91C0-E0123F10AF4A";
paths = (
{
closed = 1;
nodes = (
"341 -290 LINE",
"430 -290 LINE",
"430 -135 LINE",
"157 -1 LINE",
"157 603 LINE",
"430 735 LINE",
"430 890 LINE",
"328 890 LINE",
"0 728 LINE",
"0 -135 LINE"
);
}
);
width = 425;
},
{
layerId = "9FDCACD5-7DFA-4B53-9786-D575BF0C2E18";
paths = (
{
closed = 1;
nodes = (
"290 -175 LINE",
"310 -175 LINE",
"310 -143 LINE",
"40 23 LINE",
"40 692 LINE",
"310 858 LINE",
"310 890 LINE",
"290 890 LINE",
"0 711 LINE",
"0 4 LINE"
);
}
);
width = 310;
}
);
unicode = 0028;
},
{
glyphname = parenright;
lastChange = "2020-01-24 04:47:09 +0000";
layers = (
{
layerId = "C80544D9-48F8-4DA0-91C0-E0123F10AF4A";
paths = (
{
closed = 1;
nodes = (
"430 728 LINE",
"102 890 LINE",
"0 890 LINE",
"0 735 LINE",
"273 603 LINE",
"273 -1 LINE",
"0 -135 LINE",
"0 -290 LINE",
"89 -290 LINE",
"430 -135 LINE"
);
}
);
width = 450;
},
{
layerId = "9FDCACD5-7DFA-4B53-9786-D575BF0C2E18";
paths = (
{
closed = 1;
nodes = (
"110 711 LINE",
"-180 890 LINE",
"-200 890 LINE",
"-200 858 LINE",
"70 692 LINE",
"70 23 LINE",
"-200 -143 LINE",
"-200 -175 LINE",
"-180 -175 LINE",
"110 4 LINE"
);
}
);
width = 310;
}
);
unicode = 0029;
},
{
glyphname = emdash;
lastChange = "2020-01-19 08:53:48 +0000";
layers = (
{
layerId = "C80544D9-48F8-4DA0-91C0-E0123F10AF4A";
paths = (
{
closed = 1;
nodes = (
"0 177 LINE",
"583 177 LINE",
"583 330 LINE",
"0 330 LINE"
);
}
);
width = 783;
},
{
layerId = "9FDCACD5-7DFA-4B53-9786-D575BF0C2E18";
paths = (
{
closed = 1;
nodes = (
"-100 230 LINE",
"475 230 LINE",
"475 270 LINE",
"-100 270 LINE"
);
}
);
width = 720;
}
);
unicode = 2014;
},
{
glyphname = endash;
lastChange = "2020-01-19 08:51:26 +0000";
layers = (
{
layerId = "C80544D9-48F8-4DA0-91C0-E0123F10AF4A";
paths = (
{
closed = 1;
nodes = (
"165 177 LINE",
"430 177 LINE",
"430 330 LINE",
"165 330 LINE"
);
}
);
width = 600;
},
{
layerId = "9FDCACD5-7DFA-4B53-9786-D575BF0C2E18";
paths = (
{
closed = 1;
nodes = (
"45 230 LINE",
"250 230 LINE",
"250 270 LINE",
"45 270 LINE"
);
}
);
width = 500;
}
);
unicode = 2013;
},
{
glyphname = hyphen;
lastChange = "2020-01-19 08:52:36 +0000";
layers = (
{
layerId = "C80544D9-48F8-4DA0-91C0-E0123F10AF4A";
paths = (
{
closed = 1;
nodes = (
"150 170 LINE",
"305 170 LINE",
"305 325 LINE",
"150 325 LINE"
);
}
);
width = 455;
},
{
layerId = "9FDCACD5-7DFA-4B53-9786-D575BF0C2E18";
paths = (
{
closed = 1;
nodes = (
"100 230 LINE",
"205 230 LINE",
"205 270 LINE",
"100 270 LINE"
);
}
);
width = 500;
}
);
unicode = 002D;
},
{
glyphname = guillemetleft;
lastChange = "2020-01-20 21:05:21 +0000";
layers = (
{
layerId = "C80544D9-48F8-4DA0-91C0-E0123F10AF4A";
paths = (
{
closed = 1;
nodes = (
"855 0 LINE",
"855 128 LINE",
"604 252 LINE",
"855 375 LINE",
"855 500 LINE",
"755 500 LINE",
"428 339 LINE",
"428 166 LINE",
"767 0 LINE"
);
},
{
closed = 1;
nodes = (
"427 0 LINE",
"427 128 LINE",
"176 252 LINE",
"427 375 LINE",
"427 500 LINE",
"327 500 LINE",
"0 339 LINE",
"0 166 LINE",
"339 0 LINE"
);
}
);
width = 875;
},
{
layerId = "9FDCACD5-7DFA-4B53-9786-D575BF0C2E18";
paths = (
{
closed = 1;
nodes = (
"1000 0 LINE",
"1000 30 LINE",
"647 250 LINE",
"1000 470 LINE",
"1000 500 LINE",
"980 500 LINE",
"603 268 LINE",
"603 233 LINE",
"980 0 LINE"
);
},
{
closed = 1;
nodes = (
"397 0 LINE",
"397 30 LINE",
"44 250 LINE",
"397 470 LINE",
"397 500 LINE",
"377 500 LINE",
"0 268 LINE",
"0 233 LINE",
"377 0 LINE"
);
}
);
width = 1200;
}
);
unicode = 00AB;
},
{
glyphname = guillemetright;
lastChange = "2020-01-12 22:16:50 +0000";
layers = (
{
layerId = "C80544D9-48F8-4DA0-91C0-E0123F10AF4A";
paths = (
{
closed = 1;
nodes = (
"516 0 LINE",
"855 166 LINE",
"855 339 LINE",
"528 500 LINE",
"428 500 LINE",
"428 375 LINE",
"679 252 LINE",
"428 128 LINE",
"428 0 LINE"
);
},
{
closed = 1;
nodes = (
"88 0 LINE",
"427 166 LINE",
"427 339 LINE",
"100 500 LINE",
"0 500 LINE",
"0 375 LINE",
"251 252 LINE",
"0 128 LINE",
"0 0 LINE"
);
}
);
width = 875;
},
{
layerId = "9FDCACD5-7DFA-4B53-9786-D575BF0C2E18";
paths = (
{
closed = 1;
nodes = (
"623 0 LINE",
"1000 233 LINE",
"1000 268 LINE",
"623 500 LINE",
"603 500 LINE",
"603 470 LINE",
"956 250 LINE",
"603 30 LINE",
"603 0 LINE"
);
},
{
closed = 1;
nodes = (
"20 0 LINE",
"397 233 LINE",
"397 268 LINE",
"20 500 LINE",
"0 500 LINE",
"0 470 LINE",
"353 250 LINE",
"0 30 LINE",
"0 0 LINE"
);
}
);
width = 1200;
}
);
unicode = 00BB;
},
{
glyphname = quotedblleft;
lastChange = "2020-01-19 08:37:54 +0000";
layers = (
{
layerId = "C80544D9-48F8-4DA0-91C0-E0123F10AF4A";
paths = (
{
closed = 1;
nodes = (
"328 456 LINE",
"328 608 LINE",
"252 608 LINE",
"252 670 LINE",
"231 670 LINE",
"174 608 LINE",
"174 456 LINE"
);
},
{
closed = 1;
nodes = (
"154 456 LINE",
"154 608 LINE",
"78 608 LINE",
"78 670 LINE",
"57 670 LINE",
"0 608 LINE",
"0 456 LINE"
);
}
);
width = 348;
},
{
layerId = "9FDCACD5-7DFA-4B53-9786-D575BF0C2E18";
paths = (
{
closed = 1;
nodes = (
"160 550 LINE",
"160 656 LINE",
"149 656 LINE",
"149 700 LINE",
"138 700 LINE",
"120 656 LINE",
"120 550 LINE"
);
},
{
closed = 1;
nodes = (
"40 550 LINE",
"40 656 LINE",
"29 656 LINE",
"29 700 LINE",
"18 700 LINE",
"0 656 LINE",
"0 550 LINE"
);
}
);
width = 360;
}
);
unicode = 201C;
},
{
glyphname = quotedblright;
lastChange = "2020-01-19 08:38:33 +0000";
layers = (
{
layerId = "C80544D9-48F8-4DA0-91C0-E0123F10AF4A";
paths = (
{
closed = 1;
nodes = (
"271 456 LINE",
"328 518 LINE",
"328 670 LINE",
"174 670 LINE",
"174 518 LINE",
"250 518 LINE",
"250 456 LINE"
);
},
{
closed = 1;
nodes = (
"97 456 LINE",
"154 518 LINE",
"154 670 LINE",
"0 670 LINE",
"0 518 LINE",
"76 518 LINE",
"76 456 LINE"
);
}
);
width = 348;
},
{
layerId = "9FDCACD5-7DFA-4B53-9786-D575BF0C2E18";
paths = (
{
closed = 1;
nodes = (
"142 550 LINE",
"160 594 LINE",
"160 700 LINE",
"120 700 LINE",
"120 594 LINE",
"131 594 LINE",
"131 550 LINE"
);
},
{
closed = 1;
nodes = (
"22 550 LINE",
"40 594 LINE",
"40 700 LINE",
"0 700 LINE",
"0 594 LINE",
"11 594 LINE",
"11 550 LINE"
);
}
);
width = 360;
}
);
unicode = 201D;
},
{
glyphname = cent;
lastChange = "2020-01-24 03:47:32 +0000";
layers = (
{
layerId = "C80544D9-48F8-4DA0-91C0-E0123F10AF4A";
paths = (
{
closed = 1;
nodes = (
"505 -175 LINE",
"505 0 LINE",
"855 0 LINE",
"855 155 LINE",
"505 155 LINE",
"505 345 LINE",
"855 345 LINE",
"855 500 LINE",
"505 500 LINE",
"505 675 LINE",
"350 675 LINE",
"350 500 LINE",
"0 500 LINE",
"0 0 LINE",
"350 0 LINE",
"350 -175 LINE"
);
},
{
closed = 1;
nodes = (
"156 345 LINE",
"350 345 LINE",
"350 155 LINE",
"156 155 LINE"
);
}
);
width = 875;
},
{
layerId = "9FDCACD5-7DFA-4B53-9786-D575BF0C2E18";
paths = (
{
closed = 1;
nodes = (
"418 -175 LINE",
"418 0 LINE",
"795 0 LINE",
"795 41 LINE",
"418 41 LINE",
"418 459 LINE",
"795 459 LINE",
"795 500 LINE",
"418 500 LINE",
"418 675 LINE",
"378 675 LINE",
"378 500 LINE",
"0 500 LINE",
"0 0 LINE",
"378 0 LINE",
"378 -175 LINE"
);
},
{
closed = 1;
nodes = (
"40 459 LINE",
"378 459 LINE",
"378 41 LINE",
"40 41 LINE"
);
}
);
width = 995;
}
);
unicode = 00A2;
},
{
glyphname = dollar;
lastChange = "2020-01-24 04:52:49 +0000";
layers = (
{
layerId = "C80544D9-48F8-4DA0-91C0-E0123F10AF4A";
paths = (
{
closed = 1;
nodes = (
"350 0 LINE",
"350 -155 LINE",
"505 -155 LINE",
"505 0 LINE",
"855 0 LINE",
"855 325 LINE",
"153 325 LINE",
"153 345 LINE",
"855 345 LINE",
"855 500 LINE",
"505 500 LINE",
"505 655 LINE",
"350 655 LINE",
"350 500 LINE",
"0 500 LINE",
"0 175 LINE",
"700 175 LINE",
"700 155 LINE",
"0 155 LINE",
"0 0 LINE"
);
}
);
width = 875;
},
{
layerId = "9FDCACD5-7DFA-4B53-9786-D575BF0C2E18";
paths = (
{
closed = 1;
nodes = (
"378 0 LINE",
"378 -120 LINE",
"418 -120 LINE",
"418 0 LINE",
"795 0 LINE",
"795 270 LINE",
"40 270 LINE",
"40 460 LINE",
"795 460 LINE",
"795 500 LINE",
"418 500 LINE",
"418 620 LINE",
"378 620 LINE",
"378 500 LINE",
"0 500 LINE",
"0 230 LINE",
"755 230 LINE",
"755 40 LINE",
"0 40 LINE",
"0 0 LINE"
);
}
);
width = 995;
}
);
unicode = 0024;
},
{
glyphname = euro;
lastChange = "2020-01-24 03:51:34 +0000";
layers = (
{
layerId = "C80544D9-48F8-4DA0-91C0-E0123F10AF4A";
paths = (
{
closed = 1;
nodes = (
"82 178 LINE",
"82 1 LINE",
"925 0 LINE",
"925 154 LINE",
"236 154 LINE",
"236 178 LINE",
"735 178 LINE",
"735 238 LINE",
"236 238 LINE",
"236 259 LINE",
"735 259 LINE",
"735 319 LINE",
"236 319 LINE",
"236 343 LINE",
"925 343 LINE",
"925 500 LINE",
"81 500 LINE",
"81 319 LINE",
"0 319 LINE",
"0 259 LINE",
"81 259 LINE",
"82 238 LINE",
"0 238 LINE",
"0 178 LINE"
);
}
);
width = 945;
},
{
layerId = "9FDCACD5-7DFA-4B53-9786-D575BF0C2E18";
paths = (
{
closed = 1;
nodes = (
"399 173 LINE",
"399 0 LINE",
"1194 0 LINE",
"1194 41 LINE",
"439 41 LINE",
"439 173 LINE",
"1064 173 LINE",
"1064 213 LINE",
"439 213 LINE",
"439 283 LINE",
"1064 283 LINE",
"1064 323 LINE",
"439 323 LINE",
"439 459 LINE",
"1194 459 LINE",
"1194 500 LINE",
"399 500 LINE",
"399 323 LINE",
"199 323 LINE",
"199 283 LINE",
"399 283 LINE",
"399 213 LINE",
"199 213 LINE",
"199 173 LINE"
);
}
);
width = 1394;
}
);
unicode = 20AC;
},
{
glyphname = yen;
lastChange = "2020-01-24 04:51:52 +0000";
layers = (
{
layerId = "C80544D9-48F8-4DA0-91C0-E0123F10AF4A";
paths = (
{
closed = 1;
nodes = (
"350 175 LINE",
"350 133 LINE",
"290 133 LINE",
"290 103 LINE",
"350 103 LINE",
"350 73 LINE",
"290 73 LINE",
"290 43 LINE",
"350 43 LINE",
"350 0 LINE",
"505 0 LINE",
"505 43 LINE",
"560 43 LINE",
"560 73 LINE",
"505 73 LINE",
"505 103 LINE",
"560 103 LINE",
"560 133 LINE",
"505 133 LINE",
"505 175 LINE",
"855 175 LINE",
"855 500 LINE",
"700 500 LINE",
"700 328 LINE",
"155 328 LINE",
"155 500 LINE",
"0 500 LINE",
"0 175 LINE"
);
}
);
width = 875;
},
{
layerId = "9FDCACD5-7DFA-4B53-9786-D575BF0C2E18";
paths = (
{
closed = 1;
nodes = (
"378 231 LINE",
"378 161 LINE",
"263 161 LINE",
"263 131 LINE",
"378 131 LINE",
"378 101 LINE",
"263 101 LINE",
"263 71 LINE",
"378 71 LINE",
"378 0 LINE",
"418 0 LINE",
"418 71 LINE",
"533 71 LINE",
"533 101 LINE",
"418 101 LINE",
"418 131 LINE",
"533 131 LINE",
"533 161 LINE",
"418 161 LINE",
"418 231 LINE",
"795 231 LINE",
"795 501 LINE",
"755 501 LINE",
"755 271 LINE",
"40 271 LINE",
"40 501 LINE",
"0 501 LINE",
"0 231 LINE"
);
}
);
width = 995;
}
);
unicode = 00A5;
},
{
glyphname = plus;
lastChange = "2020-01-05 05:39:07 +0000";
layers = (
{
layerId = "C80544D9-48F8-4DA0-91C0-E0123F10AF4A";
paths = (
{
closed = 1;
nodes = (
"195 177 LINE",
"195 0 LINE",
"350 0 LINE",
"350 177 LINE",
"520 177 LINE",
"520 332 LINE",
"350 332 LINE",
"350 500 LINE",
"195 500 LINE",
"195 332 LINE",
"20 332 LINE",
"20 177 LINE"
);
}
);
width = 560;
},
{
layerId = "9FDCACD5-7DFA-4B53-9786-D575BF0C2E18";
paths = (
{
closed = 1;
nodes = (
"230 230 LINE",
"230 0 LINE",
"270 0 LINE",
"270 230 LINE",
"500 230 LINE",
"500 270 LINE",
"270 270 LINE",
"270 500 LINE",
"230 500 LINE",
"230 270 LINE",
"0 270 LINE",
"0 230 LINE"
);
}
);
width = 700;
}
);
unicode = 002B;
},
{
glyphname = equal;
lastChange = "2020-01-24 06:01:46 +0000";
layers = (
{
layerId = "C80544D9-48F8-4DA0-91C0-E0123F10AF4A";
paths = (
{
closed = 1;
nodes = (
"520 265 LINE",
"520 325 LINE",
"20 325 LINE",
"20 265 LINE"
);
},
{
closed = 1;
nodes = (
"520 176 LINE",
"520 236 LINE",
"20 236 LINE",
"20 176 LINE"
);
}
);
width = 560;
},
{
layerId = "9FDCACD5-7DFA-4B53-9786-D575BF0C2E18";
paths = (
{
closed = 1;
nodes = (
"500 310 LINE",
"500 350 LINE",
"0 350 LINE",
"0 310 LINE"
);
},
{
closed = 1;
nodes = (
"500 140 LINE",
"500 180 LINE",
"0 180 LINE",
"0 140 LINE"
);
}
);
width = 700;
}
);
unicode = 003D;
},
{
glyphname = greater;
lastChange = "2020-01-05 05:44:02 +0000";
layers = (
{
layerId = "C80544D9-48F8-4DA0-91C0-E0123F10AF4A";
paths = (
{
closed = 1;
nodes = (
"88 0 LINE",
"427 166 LINE",
"427 339 LINE",
"100 500 LINE",
"0 500 LINE",
"0 375 LINE",
"251 252 LINE",
"0 128 LINE",
"0 0 LINE"
);
}
);
width = 447;
},
{
layerId = "9FDCACD5-7DFA-4B53-9786-D575BF0C2E18";
paths = (
{
closed = 1;
nodes = (
"20 0 LINE",
"397 233 LINE",
"397 268 LINE",
"20 500 LINE",
"0 500 LINE",
"0 470 LINE",
"353 250 LINE",
"0 30 LINE",
"0 0 LINE"
);
}
);
width = 597;
}
);
unicode = 003E;
},
{
glyphname = less;
lastChange = "2020-01-05 05:44:10 +0000";
layers = (
{
layerId = "C80544D9-48F8-4DA0-91C0-E0123F10AF4A";
paths = (
{
closed = 1;
nodes = (
"427 128 LINE",
"176 252 LINE",
"427 375 LINE",
"427 500 LINE",
"327 500 LINE",
"0 339 LINE",
"0 166 LINE",
"339 0 LINE",
"427 0 LINE"
);
}
);
width = 448;
},
{
layerId = "9FDCACD5-7DFA-4B53-9786-D575BF0C2E18";
paths = (
{
closed = 1;
nodes = (
"397 30 LINE",
"44 250 LINE",
"397 470 LINE",
"397 500 LINE",
"377 500 LINE",
"0 268 LINE",
"0 233 LINE",
"377 0 LINE",
"397 0 LINE"
);
}
);
width = 597;
}
);
unicode = 003C;
},
{
glyphname = plusminus;
lastChange = "2020-01-22 06:09:27 +0000";
layers = (
{
layerId = "C80544D9-48F8-4DA0-91C0-E0123F10AF4A";
paths = (
{
closed = 1;
nodes = (
"520 177 LINE",
"520 227 LINE",
"20 227 LINE",
"20 177 LINE"
);
},
{
closed = 1;
nodes = (
"192.639 346 LINE",
"193 259 LINE",
"348 259 LINE",
"347.639 346 LINE",
"520 346 LINE",
"520 406 LINE",
"347.39 406 LINE",
"347 500 LINE",
"192 500 LINE",
"192.39 406 LINE",
"20 406 LINE",
"20 346 LINE"
);
}
);
width = 560;
},
{
layerId = "9FDCACD5-7DFA-4B53-9786-D575BF0C2E18";
paths = (
{
closed = 1;
nodes = (
"520 107 LINE",
"520 147 LINE",
"20 147 LINE",
"20 107 LINE"
);
},
{
closed = 1;
nodes = (
"243 296 LINE",
"243 199 LINE",
"298 199 LINE",
"298 296 LINE",
"520 296 LINE",
"520 336 LINE",
"297 336 LINE",
"297 440 LINE",
"242 440 LINE",
"242 336 LINE",
"20 336 LINE",
"20 296 LINE"
);
}
);
width = 720;
}
);
unicode = 00B1;
},
{
glyphname = asciitilde;
lastChange = "2020-01-16 07:58:07 +0000";
layers = (
{
layerId = "C80544D9-48F8-4DA0-91C0-E0123F10AF4A";
paths = (
{
closed = 1;
nodes = (
"369 198 LINE",
"477 286 LINE",
"477 308 LINE",
"213 308 LINE",
"105 221 LINE",
"105 199 LINE"
);
}
);
width = 600;
},
{
layerId = "9FDCACD5-7DFA-4B53-9786-D575BF0C2E18";
paths = (
{
closed = 1;
nodes = (
"452 255 LINE",
"487 285 LINE",
"487 295 LINE",
"235 295 LINE",
"200 266 LINE",
"200 256 LINE"
);
}
);
width = 687;
}
);
unicode = 007E;
},
{
glyphname = logicalnot;
lastChange = "2020-01-24 03:59:56 +0000";
layers = (
{
layerId = "C80544D9-48F8-4DA0-91C0-E0123F10AF4A";
paths = (
{
closed = 1;
nodes = (
"720 345 LINE",
"720 0 LINE",
"875 0 LINE",
"875 500 LINE",
"20 500 LINE",
"20 345 LINE"
);
}
);
width = 915;
},
{
layerId = "9FDCACD5-7DFA-4B53-9786-D575BF0C2E18";
paths = (
{
closed = 1;
nodes = (
"955 460 LINE",
"955 0 LINE",
"995 0 LINE",
"995 500 LINE",
"200 500 LINE",
"200 460 LINE"
);
}
);
width = 1395;
}
);
unicode = 00AC;
},
{
glyphname = micro;
lastChange = "2020-01-20 08:25:20 +0000";
layers = (
{
layerId = "C80544D9-48F8-4DA0-91C0-E0123F10AF4A";
paths = (
{
closed = 1;
nodes = (
"155 -176 LINE",
"155 0 LINE",
"447 0 LINE",
"700 129 LINE",
"700 0 LINE",
"855 0 LINE",
"855 500 LINE",
"700 500 LINE",
"700 299 LINE",
"411 155 LINE",
"155 155 LINE",
"155 500 LINE",
"0 500 LINE",
"0 -176 LINE"
);
}
);
width = 875;
},
{
layerId = "9FDCACD5-7DFA-4B53-9786-D575BF0C2E18";
paths = (
{
closed = 1;
nodes = (
"40 -175 LINE",
"40 0 LINE",
"403 0 LINE",
"755 216 LINE",
"755 0 LINE",
"795 0 LINE",
"795 500 LINE",
"755 500 LINE",
"755 259 LINE",
"392 40 LINE",
"40 40 LINE",
"40 500 LINE",
"0 500 LINE",
"0 -175 LINE"
);
}
);
width = 995;
}
);
unicode = 00B5;
},
{
glyphname = percent;
lastChange = "2020-01-24 05:58:14 +0000";
layers = (
{
layerId = "C80544D9-48F8-4DA0-91C0-E0123F10AF4A";
paths = (
{
closed = 1;
nodes = (
"88 0 LINE",
"855 375 LINE",
"855 501 LINE",
"755 501 LINE",
"0 128 LINE",
"0 0 LINE"
);
},
{
closed = 1;
nodes = (
"299 344 LINE",
"299 499 LINE",
"0 499 LINE",
"0 344 LINE"
);
},
{
closed = 1;
nodes = (
"854 0 LINE",
"854 155 LINE",
"555 155 LINE",
"555 0 LINE"
);
}
);
width = 875;
},
{
layerId = "9FDCACD5-7DFA-4B53-9786-D575BF0C2E18";
paths = (
{
closed = 1;
nodes = (
"20 0 LINE",
"795 470 LINE",
"795 500 LINE",
"775 500 LINE",
"0 30 LINE",
"0 0 LINE"
);
},
{
closed = 1;
nodes = (
"105 430 LINE",
"105 500 LINE",
"0 500 LINE",
"0 430 LINE"
);
},
{
closed = 1;
nodes = (
"795 0 LINE",
"795 70 LINE",
"690 70 LINE",
"690 0 LINE"
);
}
);
width = 995;
}
);
unicode = 0025;
},
{
glyphname = upArrow;
lastChange = "2020-01-24 03:53:29 +0000";
layers = (
{
layerId = "C80544D9-48F8-4DA0-91C0-E0123F10AF4A";
paths = (
{
closed = 1;
nodes = (
"108 175 LINE",
"370 299.835 LINE",
"370 0 LINE",
"525 0 LINE",
"525 300.204 LINE",
"787 175 LINE",
"875 175 LINE",
"875 295 LINE",
"448 500 LINE",
"20 295 LINE",
"20 175 LINE"
);
}
);
width = 915;
},
{
layerId = "9FDCACD5-7DFA-4B53-9786-D575BF0C2E18";
paths = (
{
closed = 1;
nodes = (
"20 225 LINE",
"378 446.257 LINE",
"378 1 LINE",
"418 1 LINE",
"418 445.056 LINE",
"775 225 LINE",
"795 225 LINE",
"795 255 LINE",
"397 502 LINE",
"0 255 LINE",
"0 225 LINE"
);
}
);
width = 995;
}
);
unicode = 2191;
},
{
glyphname = rightArrow;
lastChange = "2020-01-24 03:57:13 +0000";
layers = (
{
layerId = "C80544D9-48F8-4DA0-91C0-E0123F10AF4A";
paths = (
{
closed = 1;
nodes = (
"603.656 175 LINE",
"448 90 LINE",
"448 0 LINE",
"536 0 LINE",
"875 208 LINE",
"875 297 LINE",
"548 500 LINE",
"448 500 LINE",
"448 410 LINE",
"603.656 325 LINE",
"20 325 LINE",
"20 175 LINE"
);
}
);
width = 915;
},
{
layerId = "9FDCACD5-7DFA-4B53-9786-D575BF0C2E18";
paths = (
{
closed = 1;
nodes = (
"921 231 LINE",
"598 30 LINE",
"598 0 LINE",
"618 0 LINE",
"995 233 LINE",
"995 268 LINE",
"618 500 LINE",
"598 500 LINE",
"598 470 LINE",
"917 271 LINE",
"200 271 LINE",
"200 231 LINE"
);
}
);
width = 1195;
}
);
unicode = 2192;
},
{
glyphname = downArrow;
lastChange = "2020-01-24 03:57:34 +0000";
layers = (
{
layerId = "C80544D9-48F8-4DA0-91C0-E0123F10AF4A";
paths = (
{
closed = 1;
nodes = (
"20 205 LINE",
"448 0 LINE",
"875 205 LINE",
"875 325 LINE",
"787 325 LINE",
"525 200 LINE",
"525 500 LINE",
"370 500 LINE",
"370 200 LINE",
"108 325 LINE",
"20 325 LINE"
);
}
);
width = 915;
},
{
layerId = "9FDCACD5-7DFA-4B53-9786-D575BF0C2E18";
paths = (
{
closed = 1;
nodes = (
"200 248 LINE",
"597 1 LINE",
"995 248 LINE",
"995 278 LINE",
"975 278 LINE",
"618 58 LINE",
"618 502 LINE",
"578 502 LINE",
"578 57 LINE",
"220 278 LINE",
"200 278 LINE"
);
}
);
width = 1195;
}
);
unicode = 2193;
},
{
glyphname = leftArrow;
lastChange = "2020-01-24 03:57:42 +0000";
layers = (
{
layerId = "C80544D9-48F8-4DA0-91C0-E0123F10AF4A";
paths = (
{
closed = 1;
nodes = (
"447 0 LINE",
"447 90 LINE",
"291.344 175 LINE",
"875 175 LINE",
"875 325 LINE",
"291.344 325 LINE",
"447 410 LINE",
"447 500 LINE",
"347 500 LINE",
"20 297 LINE",
"20 208 LINE",
"359 0 LINE"
);
}
);
width = 915;
},
{
layerId = "9FDCACD5-7DFA-4B53-9786-D575BF0C2E18";
paths = (
{
closed = 1;
nodes = (
"597 0 LINE",
"597 30 LINE",
"274 231 LINE",
"995 231 LINE",
"995 271 LINE",
"278 271 LINE",
"597 470 LINE",
"597 500 LINE",
"577 500 LINE",
"200 268 LINE",
"200 233 LINE",
"577 0 LINE"
);
}
);
width = 1195;
}
);
unicode = 2190;
},
{
glyphname = at;
lastChange = "2020-01-05 05:40:16 +0000";
layers = (
{
layerId = "C80544D9-48F8-4DA0-91C0-E0123F10AF4A";
paths = (
{
closed = 1;
nodes = (
"1310 -175 LINE",
"1310 -20 LINE",
"260 -20 LINE",
"260 520 LINE",
"1155 520 LINE",
"1155 156 LINE",
"1135 156 LINE",
"1135 500 LINE",
"280 500 LINE",
"280 343 LINE",
"980 343 LINE",
"980 323 LINE",
"280 323 LINE",
"280 0 LINE",
"1310 0 LINE",
"1310 675 LINE",
"105 675 LINE",
"105 -175 LINE"
);
},
{
closed = 1;
nodes = (
"427 175 LINE",
"980 175 LINE",
"980 155 LINE",
"427 155 LINE"
);
}
);
width = 1415;
},
{
layerId = "9FDCACD5-7DFA-4B53-9786-D575BF0C2E18";
paths = (
{
closed = 1;
nodes = (
"1455 -175 LINE",
"1455 -135 LINE",
"240 -135 LINE",
"240 635 LINE",
"1415 635 LINE",
"1415 40 LINE",
"1225 40 LINE",
"1225 500 LINE",
"430 500 LINE",
"430 460 LINE",
"1185 460 LINE",
"1185 270 LINE",
"430 270 LINE",
"430 0 LINE",
"1455 0 LINE",
"1455 675 LINE",
"200 675 LINE",
"200 -175 LINE"
);
},
{
closed = 1;
nodes = (
"470 230 LINE",
"1185 230 LINE",
"1185 40 LINE",
"470 40 LINE"
);
}
);
width = 1855;
}
);
unicode = 0040;
},
{
glyphname = ampersand;
lastChange = "2020-01-04 08:26:08 +0000";
layers = (
{
layerId = "C80544D9-48F8-4DA0-91C0-E0123F10AF4A";
paths = (
{
closed = 1;
nodes = (
"510 0 LINE",
"510 155 LINE",
"155 155 LINE",
"155 175 LINE",
"855 175 LINE",
"855 325 LINE",
"155 325 LINE",
"155 345 LINE",
"510 345 LINE",
"510 500 LINE",
"0 500 LINE",
"0 0 LINE"
);
},
{
closed = 1;
nodes = (
"530 0 LINE",
"684 0 LINE",
"684 175 LINE",
"530 175 LINE"
);
}
);
width = 875;
},
{
layerId = "9FDCACD5-7DFA-4B53-9786-D575BF0C2E18";
paths = (
{
closed = 1;
nodes = (
"513 0 LINE",
"513 40 LINE",
"40 40 LINE",
"40 230 LINE",
"795 230 LINE",
"795 270 LINE",
"40 270 LINE",
"40 460 LINE",
"508 460 LINE",
"508 500 LINE",
"0 500 LINE",
"0 0 LINE"
);
},
{
closed = 1;
nodes = (
"640 0 LINE",
"680 0 LINE",
"680 230 LINE",
"640 230 LINE"
);
}
);
width = 995;
}
);
unicode = 0026;
},
{
glyphname = paragraph;
lastChange = "2020-01-24 04:55:06 +0000";
layers = (
{
layerId = "C80544D9-48F8-4DA0-91C0-E0123F10AF4A";
paths = (
{
closed = 1;
nodes = (
"355 175 LINE",
"354 0 LINE",
"509 0 LINE",
"509 342 LINE",
"529 342 LINE",
"529 0 LINE",
"684 0 LINE",
"684 500 LINE",
"0 500 LINE",
"0 175 LINE"
);
}
);
width = 704;
},
{
layerId = "9FDCACD5-7DFA-4B53-9786-D575BF0C2E18";
paths = (
{
closed = 1;
nodes = (
"355 175 LINE",
"354 0 LINE",
"509 0 LINE",
"509 342 LINE",
"529 342 LINE",
"529 0 LINE",
"684 0 LINE",
"684 500 LINE",
"0 500 LINE",
"0 175 LINE"
);
}
);
width = 884;
}
);
unicode = 00B6;
},
{
glyphname = copyright;
lastChange = "2020-01-22 05:50:51 +0000";
layers = (
{
layerId = "C80544D9-48F8-4DA0-91C0-E0123F10AF4A";
paths = (
{
closed = 1;
nodes = (
"1310 -175 LINE",
"1310 675 LINE",
"105 675 LINE",
"105 -175 LINE"
);
},
{
closed = 1;
nodes = (
"260 520 LINE",
"1155 520 LINE",
"1155 -20 LINE",
"260 -20 LINE"
);
},
{
closed = 1;
nodes = (
"1135 0 LINE",
"1135 155 LINE",
"435 155 LINE",
"435 345 LINE",
"1135 345 LINE",
"1135 500 LINE",
"280 500 LINE",
"280 0 LINE"
);
}
);
width = 1415;
},
{
layerId = "9FDCACD5-7DFA-4B53-9786-D575BF0C2E18";
paths = (
{
closed = 1;
nodes = (
"1455 -175 LINE",
"1455 675 LINE",
"200 675 LINE",
"200 -175 LINE"
);
},
{
closed = 1;
nodes = (
"240 635 LINE",
"1415 635 LINE",
"1415 -135 LINE",
"240 -135 LINE"
);
},
{
closed = 1;
nodes = (
"1263 0 LINE",
"1263 40 LINE",
"470 40 LINE",
"470 460 LINE",
"1225 460 LINE",
"1225 500 LINE",
"430 500 LINE",
"430 0 LINE"
);
}
);
width = 1855;
}
);
unicode = 00A9;
},
{
glyphname = registered;
lastChange = "2020-01-24 04:55:50 +0000";
layers = (
{
layerId = "C80544D9-48F8-4DA0-91C0-E0123F10AF4A";
paths = (
{
closed = 1;
nodes = (
"1216 -175 LINE",
"968 -20 LINE",
"260 -20 LINE",
"260 520 LINE",
"1155 520 LINE",
"1155 60 LINE",
"979 175 LINE",
"1135 175 LINE",
"1135 500 LINE",
"280 500 LINE",
"280 0 LINE",
"435 0 LINE",
"435 175 LINE",
"691 175 LINE",
"1246 -175 LINE",
"1310 -175 LINE",
"1310 675 LINE",
"105 675 LINE",
"105 -175 LINE"
);
},
{
closed = 1;
nodes = (
"435 345 LINE",
"980 345 LINE",
"980 325 LINE",
"435 325 LINE"
);
}
);
width = 1415;
},
{
layerId = "9FDCACD5-7DFA-4B53-9786-D575BF0C2E18";
paths = (
{
closed = 1;
nodes = (
"1294 -175 LINE",
"1230 -135 LINE",
"240 -135 LINE",
"240 635 LINE",
"1415 635 LINE",
"1415 -79 LINE",
"889 230 LINE",
"1225 230 LINE",
"1225 500 LINE",
"430 500 LINE",
"430 0 LINE",
"470 0 LINE",
"470 230 LINE",
"818 230 LINE",
"1420 -128 LINE",
"1455 -128 LINE",
"1455 675 LINE",
"200 675 LINE",
"200 -175 LINE"
);
},
{
closed = 1;
nodes = (
"470 460 LINE",
"1185 460 LINE",
"1185 270 LINE",
"470 270 LINE"
);
}
);
width = 1855;
}
);
unicode = 00AE;
},
{
glyphname = bar;
lastChange = "2020-01-24 03:38:31 +0000";
layers = (
{
layerId = "C80544D9-48F8-4DA0-91C0-E0123F10AF4A";
paths = (
{
closed = 1;
nodes = (
"155 -290 LINE",
"155 890 LINE",
"0 890 LINE",
"0 -290 LINE"
);
}
);
width = 175;
},
{
layerId = "9FDCACD5-7DFA-4B53-9786-D575BF0C2E18";
paths = (
{
closed = 1;
nodes = (
"40 -290 LINE",
"40 890 LINE",
"0 890 LINE",
"0 -290 LINE"
);
}
);
width = 240;
}
);
unicode = 007C;
},
{
glyphname = asciicircum;
lastChange = "2020-01-16 07:32:02 +0000";
layers = (
{
layerId = "C80544D9-48F8-4DA0-91C0-E0123F10AF4A";
paths = (
{
closed = 1;
nodes = (
"88 520 LINE",
"428 686 LINE",
"767 520 LINE",
"855 520 LINE",
"855 648 LINE",
"428 859 LINE",
"0 648 LINE",
"0 520 LINE"
);
}
);
width = 875;
},
{
layerId = "9FDCACD5-7DFA-4B53-9786-D575BF0C2E18";
paths = (
{
closed = 1;
nodes = (
"20 398 LINE",
"397 631 LINE",
"775 398 LINE",
"795 398 LINE",
"795 428 LINE",
"397 675 LINE",
"0 428 LINE",
"0 398 LINE"
);
}
);
width = 995;
}
);
unicode = 005E;
},
{
glyphname = acute;
lastChange = "2020-01-20 07:41:58 +0000";
layers = (
{
layerId = "C80544D9-48F8-4DA0-91C0-E0123F10AF4A";
paths = (
{
closed = 1;
nodes = (
"237 518 LINE",
"237 628 LINE",
"20 518 LINE"
);
}
);
width = 257;
},
{
layerId = "9FDCACD5-7DFA-4B53-9786-D575BF0C2E18";
paths = (
{
closed = 1;
nodes = (
"365 518 LINE",
"365 608 LINE",
"190 518 LINE"
);
}
);
width = 600;
}
);
unicode = 00B4;
},
{
glyphname = circumflex;
lastChange = "2020-01-20 07:07:35 +0000";
layers = (
{
layerId = "C80544D9-48F8-4DA0-91C0-E0123F10AF4A";
paths = (
{
closed = 1;
nodes = (
"66 520 LINE",
"127 549 LINE",
"187 520 LINE",
"253 520 LINE",
"253 558 LINE",
"127 621 LINE",
"0 558 LINE",
"0 520 LINE"
);
}
);
width = 283;
},
{
layerId = "9FDCACD5-7DFA-4B53-9786-D575BF0C2E18";
paths = (
{
closed = 1;
nodes = (
"116 521 LINE",
"227 582 LINE",
"337 521 LINE",
"353 521 LINE",
"353 549 LINE",
"227 621 LINE",
"100 549 LINE",
"100 521 LINE"
);
}
);
width = 553;
}
);
unicode = 02C6;
},
{
glyphname = dieresis;
lastChange = "2020-01-20 05:05:48 +0000";
layers = (
{
layerId = "C80544D9-48F8-4DA0-91C0-E0123F10AF4A";
paths = (
{
closed = 1;
nodes = (
"536 518 LINE",
"536 628 LINE",
"407 628 LINE",
"319 550 LINE",
"319 518 LINE"
);
},
{
closed = 1;
nodes = (
"222 518 LINE",
"222 550 LINE",
"134 628 LINE",
"5 628 LINE",
"5 518 LINE"
);
}
);
width = 551;
},
{
layerId = "9FDCACD5-7DFA-4B53-9786-D575BF0C2E18";
paths = (
{
closed = 1;
nodes = (
"447 630 LINE",
"447 700 LINE",
"362 700 LINE",
"310 642 LINE",
"310 630 LINE"
);
},
{
closed = 1;
nodes = (
"137 630 LINE",
"137 642 LINE",
"85 700 LINE",
"0 700 LINE",
"0 630 LINE"
);
}
);
width = 647;
}
);
unicode = 00A8;
},
